<svg width="104" height="44" viewBox="0 0 104 44" fill="none" xmlns="http://www.w3.org/2000/svg">
<path d="M50.8505 15.2096C45.854 9.88707 37.7308 5.6118 29.8506 3.70969C23.7867 2.24599 15.9228 2.95248 10.8506 6.7097C4.96307 11.0708 1.9185 17.8901 3.35059 25.2097C5.41347 35.7533 15.3505 45.2097 27 39.0332C37.3419 33.55 42.3505 13.7096 43.1268 24.5948C44.9143 41.5763 46.4466 41.864 46.8829 40.446C50.4336 28.9062 59.574 11.2277 69.2123 7.46872C78.8506 3.70969 86.8506 5.20972 94.3506 10.7097C101.851 16.2097 106.716 40.081 90.3506 41.2097C84.2589 41.6298 78.0506 34.9375 76.3506 31.4375C75.0316 28.7219 79.3506 35.2574 74.519 39.7097C69.6874 44.1621 62.3505 36.4375 59.8505 28.4375" stroke="#8A581D" stroke-width="5" stroke-linecap="round"/>
</svg>
