<svg width="94" height="92" viewBox="0 0 94 92" fill="none" xmlns="http://www.w3.org/2000/svg">
<path fill-rule="evenodd" clip-rule="evenodd" d="M28.5385 0C32.0791 0 35.4056 0.0778317 35.9309 0.194579C36.4756 0.291869 38.7906 0.46699 41.0861 0.583738C43.3816 0.681027 46.3191 0.875606 47.6031 0.972896C48.887 1.08964 51.202 1.18693 52.7583 1.18693C54.3146 1.18693 59.2169 1.08964 63.6523 0.972896C68.0877 0.836691 73.6904 0.797775 76.1026 0.856148C78.5149 0.93398 80.5575 1.07019 80.6743 1.16748C80.791 1.26476 81.1022 1.3426 81.4135 1.3426C81.7053 1.3426 82.678 1.69284 83.5923 2.12091C84.5066 2.54899 85.2848 2.97706 85.3431 3.09381C85.4015 3.21056 85.5766 3.28839 85.7322 3.28839C85.8878 3.28839 86.3158 3.52188 86.666 3.81375C86.9967 4.10562 87.8332 4.92285 88.5141 5.62334C89.3117 6.44057 90.012 7.43293 90.5178 8.44474C90.9263 9.30089 91.2765 10.157 91.2765 10.3516C91.2765 10.5267 91.3543 10.7213 91.471 10.7797C91.5877 10.8381 91.6656 11.2856 91.6656 11.7915C91.685 12.3169 91.8017 12.9395 91.9574 13.2119C92.113 13.4843 92.2297 14.0875 92.2297 14.574C92.2492 15.0604 92.327 15.5469 92.4243 15.6442C92.541 15.7415 92.6577 17.2786 92.6966 19.0493C92.755 20.82 92.8717 22.9214 92.9884 23.7192C93.1051 24.517 93.2802 25.5677 93.3969 26.0542C93.5137 26.5795 93.6109 30.6268 93.6304 36.075C93.6498 42.3988 93.5915 45.551 93.4358 46.2904C93.3191 46.8741 93.2219 48.5864 93.2219 50.0847C93.2413 51.7191 93.358 53.5093 93.5526 54.56C93.7277 55.5134 93.8638 57.1868 93.8444 58.257C93.8444 59.3272 93.7666 60.8644 93.7082 61.6621C93.6304 62.5961 93.6693 63.1993 93.8055 63.3161C93.9222 63.4328 94 64.5225 94 66.0791C94 68.0833 93.9416 68.7059 93.7276 68.8032C93.572 68.9005 93.358 69.3091 93.2413 69.7372C93.1246 70.1653 93.0273 71.0214 93.0273 71.6441C93.0273 72.2473 92.9495 72.7921 92.8328 72.8505C92.7161 72.9088 92.5993 73.2396 92.5604 73.5704C92.5215 73.9206 92.3464 74.699 92.1519 75.2827C91.9768 75.8664 91.7823 76.9172 91.7434 77.6176C91.685 78.3181 91.5488 79.2326 91.4127 79.6607C91.2959 80.0888 91.0625 80.5947 90.8874 80.7698C90.7318 80.9449 90.4205 81.4314 90.2065 81.84C89.9925 82.2486 89.5451 83.0075 89.2144 83.5523C88.9031 84.0777 88.5141 84.7976 88.3974 85.1089C88.2806 85.4203 87.9694 85.8678 87.7359 86.0818C87.483 86.2959 87.094 86.5877 86.8605 86.7045C86.6076 86.8407 86.2185 86.9574 85.9656 86.9574C85.7128 86.9574 85.4404 87.0158 85.3626 87.0937C85.2653 87.1909 84.8762 87.3661 84.4872 87.5023C84.0981 87.6385 83.2227 87.8525 82.5224 87.9498C81.822 88.0471 80.7326 88.2222 80.0906 88.339C79.4487 88.4557 78.0091 88.5919 76.8808 88.6697C75.7525 88.7476 74.702 88.8838 74.5464 88.9811C74.3907 89.0978 73.6904 89.234 72.9901 89.3313C72.2897 89.4091 71.1614 89.5648 70.4611 89.6816C69.7608 89.7983 68.4768 89.9734 67.582 90.0707C66.7065 90.1875 65.87 90.3237 65.7533 90.4015C65.6171 90.4793 64.4499 90.6155 63.166 90.6934C61.882 90.7907 59.6449 90.9463 58.2053 91.0436C56.7657 91.1409 53.9644 91.316 51.9801 91.4133C49.9959 91.5106 48.0699 91.6857 47.7003 91.8025C47.2723 91.9387 44.8017 92.0165 40.8916 91.997C37.5261 91.997 34.2773 91.8998 33.6937 91.8025C33.1101 91.6857 31.3204 91.5495 29.7057 91.4911C28.1105 91.4522 26.7098 91.316 26.5931 91.2187C26.4764 91.1214 25.9317 91.0436 25.387 91.0436C24.8228 91.0436 24.3171 90.9852 24.2781 90.8879C24.2392 90.8101 23.7334 90.6739 23.1693 90.5766C22.5857 90.4793 21.4185 90.421 20.5625 90.4404C19.7065 90.4599 18.3059 90.382 17.4499 90.2653C16.1465 90.0902 15.7574 90.0902 15.0182 90.3626C14.5319 90.5182 13.5203 90.6544 12.781 90.6544C11.8278 90.6544 11.2831 90.5572 10.9329 90.3237C10.6606 90.1485 10.2326 89.7594 9.96026 89.4675C9.68791 89.1756 9.12376 88.7865 8.69578 88.6114C8.2678 88.4362 7.70364 88.1833 7.43129 88.0471C7.15894 87.9303 6.20571 87.0936 5.29139 86.1791C3.87127 84.7587 3.56002 84.3306 3.07368 83.0659C2.74296 82.2681 2.43171 81.5676 2.37334 81.5092C2.29553 81.4509 1.98427 80.9644 1.12831 79.4661L1.0894 75.4773C1.0505 73.2785 0.933775 70.4377 0.797599 69.1534C0.603063 67.3049 0.603063 65.7483 0.797599 61.5649C0.972682 57.5954 0.992136 54.8519 0.836507 50.3766C0.719785 47.1076 0.544702 42.3793 0.42798 39.8693C0.330712 37.3592 0.175083 34.5573 0.116722 33.6427C0.0583609 32.7282 0 30.1598 0 27.9027C0 25.6455 0.0778145 22.9409 0.175083 21.8707C0.272351 20.8005 0.466887 19.6914 0.583609 19.3801C0.719785 19.0882 0.817053 18.6018 0.817053 18.271C0.817053 17.9402 0.914321 17.6483 1.01159 17.59C1.12831 17.5316 1.20613 17.2981 1.20613 17.0451C1.20613 16.8116 1.30339 16.3057 1.42012 15.936C1.55629 15.5663 1.77028 14.9048 1.92591 14.4767C2.08154 14.0486 2.29553 13.5427 2.3928 13.3481C2.49007 13.173 2.56788 12.8811 2.56788 12.7255C2.56788 12.5698 2.80132 12.025 3.09313 11.4996C3.38493 10.9937 3.71565 10.41 3.83237 10.196C3.94909 9.98191 4.29925 9.41763 4.59106 8.93119C4.90232 8.44474 5.60265 7.60805 6.14735 7.08268C6.69205 6.53786 7.762 5.6428 8.50124 5.07852C9.25993 4.51424 10.6606 3.67755 11.6138 3.21056C12.5865 2.72411 13.6759 2.19874 14.0455 2.04308C14.4151 1.86796 14.8626 1.65392 15.0182 1.55663C15.1738 1.4788 15.5046 1.30368 15.7574 1.18693C15.9909 1.05073 16.3605 0.953438 16.5745 0.953438C16.7885 0.953438 17.0025 0.856148 17.0608 0.758859C17.1192 0.642111 17.3721 0.56428 17.6445 0.56428C17.9168 0.56428 18.3253 0.46699 18.5393 0.350242C18.8311 0.214037 19.1424 0.214037 19.5704 0.3697C20.0373 0.544822 20.3874 0.525364 21.1461 0.291869C21.9243 0.0583738 23.4416 0 28.5385 0ZM21.2434 1.32314C20.4458 1.3426 19.4342 1.4788 19.0062 1.63447C18.5782 1.79013 17.8974 1.92633 17.5083 1.92633C17.0998 1.92633 16.7301 2.00417 16.6718 2.12091C16.6134 2.2182 16.2438 2.31549 15.8547 2.33495C15.4462 2.33495 14.8626 2.51007 14.5319 2.72411C14.2012 2.91869 13.7732 3.17164 13.5592 3.26893C13.3452 3.36622 12.9561 3.54134 12.6838 3.65809C12.4114 3.79429 11.9834 4.00833 11.7111 4.16399C11.4387 4.33912 11.3415 4.45586 11.5166 4.45586C11.6722 4.45586 12.1585 4.33912 12.5865 4.22237C13.0145 4.10562 13.4425 3.9305 13.5592 3.83321C13.6565 3.75538 13.9288 3.67755 14.1817 3.67755C14.4346 3.67755 14.668 3.58026 14.7264 3.48297C14.7848 3.36622 15.0766 3.28839 15.3684 3.28839C15.6602 3.28839 15.9909 3.21056 16.0882 3.09381C16.2049 2.99652 16.7301 2.80194 17.2554 2.68519C17.8001 2.54899 20.4652 2.37387 23.1887 2.29603C25.9123 2.2182 29.375 2.06254 30.8729 1.94579C32.3709 1.82904 33.6353 1.69284 33.6937 1.63447C33.7521 1.59555 32.9934 1.49826 32.0401 1.43989C31.0869 1.36205 29.7641 1.22585 29.1221 1.12856C28.4801 1.03127 27.0406 0.972896 25.9123 0.972896C24.7839 0.992354 23.6167 1.07019 23.286 1.14802C22.9553 1.22585 22.041 1.30368 21.2434 1.32314ZM64.625 1.90688C63.3994 1.90688 62.4267 1.96525 62.4851 2.02362C62.5435 2.082 63.9052 2.14037 65.5004 2.15983C67.8738 2.17929 68.5352 2.12091 69.0021 1.86796L69.5857 1.55663C68.2239 1.57609 67.6209 1.65392 67.3485 1.73175C67.0762 1.80959 65.8506 1.88742 64.625 1.90688ZM78.69 2.35441C79.2541 2.41278 80.2268 2.56845 80.8688 2.68519C81.5108 2.80194 82.3084 2.93815 82.6196 2.99652C82.9309 3.05489 83.0671 3.03544 82.9114 2.97706C82.7558 2.91869 82.3278 2.74357 81.9971 2.5879C81.6469 2.43224 81.1411 2.31549 80.8688 2.31549C80.5964 2.31549 80.3435 2.2182 80.2852 2.12091C80.2268 2.00417 79.5459 1.92633 78.7872 1.92633C78.0091 1.92633 77.4449 1.98471 77.5228 2.06254C77.62 2.14037 78.1453 2.27658 78.69 2.35441ZM32.332 3.09381C31.6316 3.21056 28.6163 3.38568 25.6204 3.48297C22.469 3.59972 20.0956 3.75538 19.9983 3.87213C19.8816 3.96942 19.6093 4.06671 19.3564 4.06671C19.1035 4.06671 18.5782 4.20291 18.1892 4.37803C17.7806 4.55315 17.2748 4.76719 17.0608 4.84502C16.8469 4.94231 16.3605 5.13689 15.9909 5.31201C15.6213 5.48713 15.0766 5.79846 14.8042 5.97358C14.5319 6.1487 13.9677 6.53786 13.5397 6.81027C13.1312 7.10214 11.9056 8.25016 10.8357 9.35926C9.76573 10.4878 8.65687 11.7526 8.34561 12.1612C8.05381 12.5698 7.68419 13.1341 7.54801 13.4065C7.39238 13.6789 7.04222 14.3794 6.75041 14.9631C6.45861 15.5469 6.10844 16.2863 5.97227 16.6171C5.83609 16.9478 5.6221 17.4148 5.52483 17.6872C5.40811 17.9597 5.27194 18.4267 5.19412 18.7574C5.13576 19.0882 4.99959 19.7303 4.90232 20.2168C4.8245 20.7032 4.64942 21.715 4.51325 22.4544C4.39652 23.1938 4.22144 24.3029 4.12417 24.8867C4.00745 25.4704 3.92964 26.6573 3.92964 27.5135C3.92964 28.3696 3.83237 29.5955 3.71565 30.2376C3.56002 31.0354 3.50166 36.9506 3.52111 49.3064C3.54056 61.059 3.46275 67.7719 3.32657 68.8616C3.20985 69.7761 3.07368 71.43 3.01531 72.5586L2.91805 74.6017C4.47434 77.929 5.15521 79.3494 5.40811 79.9137C5.66101 80.4585 5.97227 80.9644 6.06954 81.0228C6.18626 81.0812 6.26407 81.2952 6.26407 81.5092C6.26407 81.7233 6.36134 81.8984 6.45861 81.8984C6.57533 81.8984 6.65315 82.0151 6.65315 82.1319C6.65315 82.2681 6.88659 82.6767 7.13949 83.0075C7.41184 83.3577 7.62583 83.708 7.62583 83.7858C7.60637 83.8831 7.99545 84.3695 8.44288 84.8949C8.90977 85.4203 9.72682 86.1013 10.2521 86.3932C10.7968 86.7045 11.4193 86.9574 11.6722 86.9574C11.9056 86.9574 12.1391 87.0158 12.178 87.0937C12.2169 87.1909 12.5087 87.3077 12.8005 87.3855C13.1118 87.4634 13.8899 87.6579 14.5319 87.8525C15.2906 88.086 16.8274 88.2417 19.0062 88.339C20.8348 88.4168 23.1887 88.5724 24.2587 88.6892C25.3286 88.7865 26.5153 88.9811 26.8849 89.0784C27.3129 89.2146 29.9197 89.2924 33.6937 89.2924C37.1759 89.2924 40.1523 89.1951 40.5997 89.0784C41.0277 88.9811 41.8642 88.8059 42.4478 88.6892C43.0315 88.5919 44.043 88.4168 44.685 88.3C45.327 88.2027 48.2645 88.0276 51.202 87.9303C54.1395 87.8136 56.7463 87.6579 56.9992 87.5412C57.2326 87.4439 58.2831 87.3466 59.3336 87.3466C60.3647 87.3466 61.493 87.4244 61.8042 87.5217C62.1155 87.619 63.4383 87.7552 64.7223 87.7941C66.3369 87.8525 67.368 87.7941 68.0877 87.619C68.6324 87.4633 69.8386 87.3466 70.7529 87.3466C71.6672 87.3466 72.4454 87.2688 72.5037 87.152C72.5621 87.0353 73.2041 86.9574 73.9627 86.9574C74.7214 86.9574 75.3634 86.8796 75.4218 86.7629C75.4801 86.6461 75.9665 86.5683 76.4917 86.5683C77.0364 86.5683 77.7951 86.4321 78.2036 86.2764C78.5927 86.1013 79.332 85.9845 79.8572 85.9845C80.5381 85.9845 81.0828 85.8094 82.036 85.3035C82.7363 84.9338 83.4367 84.6225 83.5923 84.6225C83.7479 84.6225 84.0786 84.5057 84.3315 84.3695C84.565 84.2528 84.7984 84.0971 84.8568 84.0388C84.9151 83.9804 85.1875 83.7858 85.4988 83.5912C85.7906 83.4161 86.1407 83.2604 86.2769 83.2604C86.3936 83.2604 86.7049 83.0853 86.9578 82.8713C87.1912 82.6572 87.4247 82.4821 87.483 82.4821C87.5414 82.4821 87.5803 82.6572 87.5803 82.8713C87.5803 83.0853 87.4441 83.2604 87.2885 83.2604C87.1329 83.2604 86.8216 83.455 86.5687 83.6885C86.3158 83.9415 85.9073 84.2528 85.6349 84.389C85.3626 84.5252 84.9346 84.8171 84.6623 85.0311C84.2343 85.3814 84.2148 85.4592 84.4677 85.6927C84.7012 85.9262 84.8957 85.9456 85.4404 85.751C85.81 85.6343 86.3353 85.4397 86.5882 85.323C86.8411 85.2062 87.094 84.9727 87.1329 84.8171C87.1718 84.6614 87.3079 84.3695 87.4052 84.175C87.5025 83.9998 87.5803 83.708 87.5803 83.5523C87.5803 83.3966 87.6776 83.2604 87.7748 83.2604C87.8916 83.2604 88.1055 82.9686 88.2806 82.6183C88.5335 82.1124 88.5335 81.9762 88.3195 81.84C88.125 81.7038 88.125 81.6649 88.3195 81.5871C88.4363 81.5481 88.553 81.373 88.553 81.2174C88.553 81.0617 88.6308 80.7698 88.7281 80.5752C88.8253 80.4001 89.0393 79.9331 89.1949 79.5634C89.3506 79.1937 89.584 78.6684 89.7007 78.396C89.8175 78.1235 89.9342 77.0728 89.9925 76.061C90.0315 75.0492 90.1482 73.7261 90.2454 73.1423C90.3427 72.5586 90.4983 71.9359 90.5956 71.7803C90.6929 71.6246 90.868 71.0019 90.9652 70.4182C91.0625 69.8345 91.1403 65.0478 91.1403 59.8136C91.1598 54.5795 91.0625 47.6524 90.9652 44.4419C90.8485 41.2313 90.6929 38.4683 90.5762 38.3126C90.4789 38.157 90.3427 34.5378 90.2844 30.1403C90.2065 25.8012 90.0704 21.6956 89.9536 20.9951C89.8564 20.2946 89.6618 18.9131 89.5451 17.9207C89.4284 16.9478 89.2339 15.8971 89.1171 15.5858C89.0004 15.2939 88.8253 14.8853 88.7475 14.6713C88.6697 14.4572 88.3584 13.7762 88.0861 13.1536C87.8137 12.5504 87.5803 12.0055 87.5803 11.9472C87.5803 11.8888 87.3469 11.4802 87.055 11.0326C86.7438 10.5851 86.1991 9.90408 85.8295 9.51492C85.4599 9.14522 84.7012 8.48365 84.1759 8.05558C83.6312 7.6275 83.0281 7.10214 82.8142 6.86865C82.6002 6.65461 82.1527 6.07087 81.8415 5.60388C81.2773 4.80611 81.1606 4.72827 79.7988 4.41695C79.0012 4.24183 77.8535 3.98887 77.2699 3.87213C76.6084 3.71646 73.1457 3.5608 68.2239 3.46351C63.8469 3.38568 56.3572 3.30785 51.5911 3.28839C46.8249 3.26893 42.2339 3.17164 41.3779 3.07435C40.5219 2.97706 38.6349 2.86031 37.1954 2.80194C35.7558 2.76302 34.3551 2.78248 34.0828 2.8214C33.8104 2.86031 33.0323 2.97706 32.332 3.09381ZM9.0654 5.83738C8.65687 6.12924 7.74255 6.90756 7.06167 7.58859C6.38079 8.26962 5.73882 9.00902 5.66101 9.22305C5.56374 9.43709 5.27194 9.96246 5.01904 10.3905C4.74669 10.8186 4.31871 11.5969 4.06581 12.1417C3.81291 12.6671 3.50166 13.426 3.36548 13.7957C3.20985 14.1654 3.05422 14.7296 2.97641 15.041C2.91805 15.3328 2.80132 15.6247 2.72351 15.6636C2.62624 15.7025 2.56788 15.936 2.56788 16.1695C2.56788 16.4225 2.47061 16.9284 2.35389 17.2981C2.23717 17.6678 2.06209 18.2321 1.94536 18.5629C1.8481 18.8936 1.67301 19.8082 1.55629 20.6059C1.45902 21.4037 1.32285 24.4781 1.26449 27.4162C1.22558 30.3544 1.24503 33.3314 1.32285 34.0319C1.45902 35.2188 1.47848 35.1021 1.73137 31.9888C1.86755 30.1792 2.06209 27.6692 2.17881 26.4433C2.27608 25.2175 2.45116 23.33 2.54843 22.2599C2.6457 21.1897 2.80132 20.0027 2.89859 19.633C3.01531 19.2633 3.1904 18.7574 3.30712 18.5045C3.44329 18.271 3.54056 17.8624 3.54056 17.59C3.54056 17.3175 3.63783 17.0646 3.7351 17.0062C3.85182 16.9478 3.96854 16.5781 4.00745 16.1695C4.06581 15.7804 4.18253 15.0604 4.29925 14.574C4.39652 14.0875 4.62997 13.2119 4.7856 12.6282C4.96068 12.0445 5.31084 11.1105 5.5832 10.5851C5.85555 10.0403 6.75041 8.91173 7.58692 8.07504C8.40397 7.23835 9.31829 6.40166 9.59065 6.22653C9.88245 6.05141 10.291 5.68171 10.5244 5.37039C10.7384 5.07852 10.8551 4.84502 10.7773 4.84502C10.6995 4.84502 10.4661 4.96177 10.2326 5.09797C9.99917 5.21472 9.47392 5.56496 9.0654 5.83738ZM84.565 6.1487C84.7206 6.24599 85.4209 6.84919 86.1213 7.51076C86.8216 8.19178 87.4441 8.69769 87.5219 8.63932C87.6192 8.6004 86.9189 7.80263 85.9656 6.8881C85.0319 5.97358 84.1759 5.23418 84.0592 5.23418C83.923 5.23418 83.923 5.35093 84.0592 5.62334C84.1759 5.83738 84.4094 6.07087 84.565 6.1487ZM7.7231 9.7095C7.39238 10.0403 6.94495 10.7408 6.73096 11.2272C6.49752 11.7331 6.34189 12.1612 6.38079 12.1807C6.4197 12.2196 6.65315 12.0445 6.90604 11.7915C7.15894 11.558 7.60637 11.0132 7.91763 10.5851C8.22889 10.157 8.69578 9.5733 8.96813 9.30089C9.24048 9.02848 9.88245 8.34745 10.3882 7.80263C10.9135 7.23835 11.6722 6.55732 12.1002 6.24599C12.5476 5.95412 12.8978 5.70117 12.8783 5.66225C12.8783 5.6428 12.7032 5.62334 12.4892 5.62334C12.2558 5.62334 11.2637 6.36274 10.1937 7.35509C9.16267 8.30853 8.03435 9.35926 7.7231 9.7095ZM3.79346 80.5558C3.91018 80.9449 4.16308 81.3925 4.31871 81.5871C4.47434 81.7622 4.66887 81.9178 4.74669 81.8984C4.84396 81.8984 4.88286 81.7816 4.84396 81.6454C4.8245 81.4898 4.70778 81.2563 4.59106 81.1006C4.47434 80.9449 4.26035 80.4974 4.10472 80.0888C3.94909 79.6996 3.75455 79.3689 3.67674 79.3689C3.59892 79.3689 3.54056 79.4856 3.54056 79.6024C3.54056 79.7386 3.65728 80.1666 3.79346 80.5558ZM55.2873 88.7087C54.976 88.7087 54.4702 88.8059 54.1784 88.9032C53.8671 89.02 53.6726 89.1562 53.731 89.2146C53.7893 89.2729 55.19 89.3119 56.8435 89.3119C58.4971 89.2924 60.5592 89.234 61.4151 89.1756L62.9714 89.0394C61.7264 88.3973 61.1428 88.339 58.8473 88.3195C57.1937 88.3195 56.0459 88.3973 55.9681 88.5141C55.9098 88.6308 55.5985 88.7087 55.2873 88.7087ZM24.7839 23.836C24.9007 23.8943 24.9785 24.4197 24.9396 26.0542H26.2041C26.9044 26.0542 28.1494 25.9179 28.9859 25.7623C29.803 25.6066 30.9313 25.4704 31.4565 25.4704C32.0012 25.4704 32.7405 25.5677 33.1101 25.6845C33.4797 25.7817 34.4524 25.9569 35.25 26.0542C36.0476 26.1514 37.0203 26.2876 37.3899 26.346C37.7595 26.4239 38.2459 26.5406 38.4598 26.6379C38.6738 26.7352 39.238 26.8519 39.7243 26.9103C40.2107 26.9492 40.9888 27.0854 41.4752 27.2216C41.9615 27.3384 42.6618 27.7081 43.0315 28.0194C43.4011 28.3502 44.0236 28.8366 44.3932 29.1285C44.7628 29.4009 45.5604 30.1014 46.144 30.6657C46.7276 31.23 47.428 31.8137 47.7003 31.9499C47.9532 32.0667 48.2645 32.3585 48.3812 32.5726C48.4979 32.7866 48.8092 33.312 49.101 33.74C49.3733 34.1681 49.8402 34.7713 50.1126 35.1021C50.4044 35.4134 50.7546 35.9388 50.9102 36.2696C51.0853 36.5809 51.202 37.009 51.202 37.1841C51.202 37.3787 51.2603 37.5732 51.3576 37.6122C51.4354 37.6511 51.6494 38.3321 51.844 39.1104C52.1358 40.2974 52.1747 40.7254 51.9996 41.4648C51.8829 41.9902 51.7856 42.8074 51.7856 43.3133C51.7661 43.8387 51.6494 44.5976 51.4938 45.0256C51.3382 45.4537 51.202 45.9596 51.202 46.1347C51.202 46.3293 51.1242 46.6406 51.0269 46.8158C50.9296 47.0103 50.5989 47.6914 50.3071 48.314C49.9959 48.9561 49.5484 49.6566 49.3344 49.8706C49.101 50.1041 48.2061 50.649 47.3307 51.0965C46.4553 51.5635 45.5993 51.9332 45.4243 51.9332C45.2297 51.9332 44.4905 52.2251 43.7707 52.6142C43.0315 52.9839 42.3117 53.2952 42.156 53.2952C42.0004 53.2952 41.3973 53.5287 40.8526 53.8206C39.9383 54.2876 39.6271 54.3654 38.168 54.3265C36.8257 54.3071 36.4172 54.3654 35.9892 54.6768C35.678 54.8713 35.25 55.0465 35.0166 55.0465C34.7637 55.0465 34.4913 54.9492 34.3746 54.8519C34.2773 54.7351 34.0244 54.6573 33.8104 54.6962C33.4992 54.7546 33.4603 55.0075 33.4019 57.7706C33.363 59.4245 33.2657 62.5767 33.149 64.7754C33.0323 67.6163 33.0323 68.8421 33.1879 69.0172C33.3046 69.1534 33.5575 69.2702 33.7521 69.2507C33.9272 69.2507 34.0828 69.2897 34.0828 69.348C34.0828 69.4064 34.1217 69.5815 34.18 69.7372C34.2579 69.9512 34.005 70.0874 33.1685 70.2625C32.5459 70.3793 31.904 70.5933 31.7483 70.749C31.4954 70.963 31.4176 70.9436 31.1453 70.5739C30.834 70.1458 30.6395 70.1263 27.8382 69.9901C26.1846 69.9123 24.356 69.7956 23.7723 69.7177C23.1887 69.6399 22.5857 69.4842 22.4495 69.3675C22.3133 69.2507 22.1966 69.0367 22.2161 68.9005C22.2161 68.7837 22.43 68.6281 22.7024 68.5697C23.0331 68.5113 23.2276 68.2973 23.3055 67.9276C23.3638 67.6357 23.3249 67.1298 23.1887 66.8185C23.0526 66.4877 22.8775 66.0596 22.7997 65.8456C22.7024 65.6316 22.5857 64.3668 22.5079 63.0242C22.4495 61.6816 22.3522 60.3974 22.2939 60.1444C22.2355 59.7747 22.1382 59.7358 21.1461 59.9888L22.4884 57.6733L22.6051 52.9061C22.6635 50.2793 22.7608 48.0416 22.8386 47.9443C22.9164 47.8276 22.9748 45.3759 22.9942 42.4961C23.0137 39.5969 23.1109 36.9311 23.1887 36.5614C23.286 36.1917 23.4027 33.8179 23.4611 31.3078C23.5389 27.1243 23.5778 26.6768 23.9474 25.9958C24.1809 25.6066 24.3365 24.984 24.3171 24.6337C24.2976 24.264 24.356 23.9138 24.4338 23.8554C24.531 23.7776 24.6867 23.7776 24.7839 23.836ZM30.3477 28.4864C29.9781 28.7977 29.4528 29.2063 29.1805 29.362C28.9081 29.5177 28.1105 30.1987 27.3907 30.8603C26.6904 31.5413 26.1651 32.125 26.2624 32.1834C26.3402 32.2223 26.6126 32.0861 26.8849 31.8721C27.1573 31.658 27.5269 31.4829 27.7214 31.5024C27.8965 31.5024 28.0522 31.4051 28.0522 31.3078C28.0522 31.191 28.2856 30.9965 28.5969 30.8603C28.8887 30.7241 29.3361 30.4711 29.6084 30.3154C29.8808 30.1598 30.231 29.9457 30.3866 29.829C30.5422 29.7122 31.3398 29.4204 32.1374 29.1869C32.935 28.9339 33.8104 28.6226 34.0828 28.4864C34.3551 28.3307 34.5886 28.1167 34.6275 28.0194C34.6469 27.9027 34.4135 27.8054 34.0828 27.8054C33.7715 27.8054 33.4992 27.7081 33.4992 27.6108C33.4992 27.494 33.1685 27.4162 32.7794 27.4162C32.3709 27.4357 31.8067 27.533 31.5149 27.6692C31.2231 27.8054 30.6978 28.1556 30.3477 28.4864ZM36.5534 28.1945C36.3005 28.1945 35.7558 28.3891 35.3278 28.6421C34.9193 28.895 34.2384 29.2453 33.8493 29.4204C33.4408 29.5955 33.0712 29.829 33.0128 29.9457C32.9545 30.043 32.5848 30.3544 32.1958 30.6073C31.7873 30.8603 31.262 31.2494 31.0286 31.4829C30.7757 31.7164 30.5033 31.8915 30.3866 31.8915C30.2893 31.8915 29.7835 32.2807 29.2777 32.7671C28.7525 33.2536 28.305 33.6427 28.2467 33.6427C28.1883 33.6427 27.9549 33.7789 27.7214 33.9735C27.488 34.1681 27.2935 34.3821 27.274 34.46C27.274 34.5573 27.5464 34.4794 27.8576 34.3238C28.1883 34.1681 28.4412 33.9346 28.4412 33.8373C28.4412 33.7206 28.5774 33.6427 28.733 33.6427C28.8887 33.6427 29.7835 33.2536 30.7368 32.7671C31.6705 32.2807 32.4876 31.8915 32.5848 31.8915C32.6627 31.8915 33.1879 31.5607 33.7521 31.1716C34.2968 30.763 34.8026 30.3933 34.8609 30.3349C34.9193 30.2765 35.3278 29.9847 35.7947 29.6928C36.2421 29.4009 36.6507 29.1674 36.709 29.1674C36.7674 29.1674 37.0981 28.9534 37.4483 28.681C37.779 28.428 38.2459 28.1945 38.4598 28.1945L38.8489 28.1751C38.2459 27.9027 37.8762 27.8248 37.6428 27.8248C37.4094 27.8054 37.1759 27.8832 37.0981 27.9999C37.0397 28.0972 36.8063 28.1945 36.5534 28.1945ZM25.2897 29.0118C25.3286 29.4204 25.4259 29.5566 25.7177 29.5566C25.9317 29.5566 26.3402 29.3425 26.6515 29.0701C26.9433 28.7977 27.274 28.5642 27.3713 28.5837C27.488 28.5837 27.4296 28.4864 27.274 28.3891C27.1184 28.2918 26.6709 28.1945 26.2819 28.1945C25.8928 28.1945 25.5232 28.2529 25.4259 28.3307C25.3286 28.3891 25.2703 28.7004 25.2897 29.0118ZM37.8762 30.043C37.5455 30.3544 37.0203 30.977 36.709 31.3856C36.281 31.9499 36.2227 32.125 36.4756 32.0277C36.6507 31.9499 37.3704 31.5024 38.0708 31.0159C38.7711 30.5295 39.3742 30.1403 39.4325 30.1403C39.4909 30.1403 39.8605 29.9068 40.269 29.615C40.6581 29.3231 41.0277 29.0507 41.0861 29.0118C41.1445 28.9728 40.9694 28.7588 40.697 28.5642C40.4247 28.3502 39.9383 28.1751 39.5882 28.1945C39.0824 28.1945 38.9462 28.3113 38.7322 28.8172C38.5766 29.1674 38.207 29.7122 37.8762 30.043ZM26.7877 29.5371C26.6904 29.5371 26.2624 29.829 25.8539 30.1792C25.4454 30.5295 25.1147 30.977 25.1341 31.1521C25.1341 31.3467 25.1925 31.5024 25.2897 31.5024C25.3675 31.4829 25.8344 31.1132 26.3208 30.6657C26.8071 30.2181 27.5075 29.615 27.8771 29.3231C28.2661 29.0118 28.4218 28.7977 28.2467 28.7977C28.0911 28.7977 27.7409 28.9534 27.4685 29.1674C27.1962 29.3815 26.9044 29.5566 26.7877 29.5371ZM38.596 33.1952C38.3626 33.5455 38.168 33.8762 38.168 33.9346C38.168 33.993 38.3237 33.9541 38.5182 33.8568C38.6933 33.7595 39.1213 33.5649 39.4325 33.4287C39.7632 33.273 40.6581 32.7866 41.4363 32.3196C42.1949 31.8721 42.9731 31.5024 43.1287 31.5024C43.2844 31.5024 43.5178 31.3272 43.6151 31.1132C43.7707 30.7824 43.6929 30.6462 43.0898 30.1792C42.6813 29.8679 42.2533 29.576 42.1366 29.5177C42.0393 29.4787 41.2806 30.1403 40.483 30.9965C39.666 31.8721 38.8295 32.8644 38.596 33.1952ZM30.2893 30.5295C30.017 30.5295 29.803 30.6073 29.803 30.7241C29.803 30.8213 29.6863 30.9186 29.5306 30.9186C29.375 30.9186 29.0832 31.0938 28.8887 31.3078C28.6941 31.5413 28.4607 31.7164 28.344 31.697C28.2467 31.697 27.6436 32.0472 27.0406 32.4753C26.418 32.9033 25.7761 33.2536 25.6204 33.2536C25.4065 33.2536 25.3286 33.4676 25.3286 34.0319C25.3286 34.5183 25.4259 34.8102 25.5815 34.8102C25.6983 34.8102 26.0484 34.5573 26.3208 34.2265C26.5931 33.9152 26.9627 33.6427 27.1573 33.6427C27.3324 33.6427 27.8771 33.2536 28.344 32.7671C28.8303 32.2807 29.3361 31.8915 29.4723 31.8915C29.589 31.911 30.0364 31.5024 30.4449 31.0159C30.834 30.5295 31.1258 30.1403 31.0869 30.1403C31.0286 30.1403 30.9507 30.2181 30.8729 30.3349C30.8146 30.4322 30.5617 30.5295 30.2893 30.5295ZM33.791 32.0861C33.1685 32.5726 32.3903 33.1174 32.0596 33.312C31.7289 33.5065 31.3787 33.7789 31.262 33.9152C31.1647 34.0514 30.8924 34.2265 30.6784 34.2849C30.4644 34.3432 29.9975 34.7129 29.6668 35.1021C29.3166 35.4718 28.8498 35.822 28.6358 35.8804C28.4218 35.9388 28.2467 36.0555 28.2467 36.1723C28.2467 36.2696 28.3829 36.3669 28.5385 36.3669C28.6941 36.3669 28.8303 36.3085 28.8303 36.2112C28.8303 36.1334 29.1999 35.9582 29.6473 35.822C30.1142 35.7053 30.7562 35.3161 31.0675 34.9853C31.5149 34.5378 31.7678 34.4211 32.1374 34.5183C32.4292 34.5767 32.7988 34.4989 33.0712 34.3238C33.3046 34.1681 33.4992 33.9152 33.4992 33.7789C33.4992 33.6622 33.8493 33.1952 34.2968 32.7671C34.7248 32.3391 35.3473 31.658 35.6585 31.2494C35.9698 30.8603 36.2032 30.5295 36.1838 30.5295C36.1449 30.5489 35.8531 30.7046 35.5223 30.8797C35.1722 31.0548 34.394 31.5997 33.791 32.0861ZM42.8953 33.7206C42.3311 34.3238 41.8642 34.8491 41.8642 34.9075C41.8642 34.9659 41.981 35.0048 42.1171 35.0048C42.2339 34.9853 42.8953 34.5962 43.5762 34.1292C44.2376 33.6427 44.8796 33.2536 44.9768 33.2536C45.0935 33.2536 45.2103 33.1563 45.2686 33.059C45.327 32.9423 45.2297 32.6504 45.0741 32.378C44.9185 32.1056 44.7045 31.8915 44.5877 31.8915C44.4905 31.8915 44.2959 32.0666 44.1598 32.2612C44.0236 32.4558 43.44 33.1174 42.8953 33.7206ZM35.6391 33.6427C35.5418 33.6427 35.4445 33.7789 35.4445 33.9346C35.4445 34.1097 35.6196 34.2265 35.9309 34.2265C36.2032 34.2265 36.6118 34.0124 36.8647 33.7595C37.0981 33.4871 37.4483 33.0979 37.6233 32.8839C37.7984 32.6504 37.8762 32.4753 37.8179 32.4753C37.7401 32.4753 37.2732 32.7282 36.7479 33.059C36.2421 33.3703 35.7558 33.6427 35.6391 33.6427ZM39.9189 34.0903C39.6465 34.207 39.3158 34.4211 39.1991 34.5573C38.9851 34.7518 39.0046 34.888 39.2964 35.1994C39.4714 35.4329 39.7243 35.608 39.8216 35.5885C39.9383 35.5885 40.5608 35.0437 41.2223 34.3821C41.9031 33.7011 42.4478 33.0979 42.4478 33.0006C42.4478 32.9228 42.3311 32.8644 42.2144 32.8839C42.0782 32.8839 41.6113 33.0979 41.1834 33.3703C40.7554 33.6233 40.1912 33.9541 39.9189 34.0903ZM45.5799 34.6546C45.5021 34.6935 45.1714 35.1021 44.8601 35.5691C44.5488 36.0361 44.1403 36.6587 43.9652 36.97C43.7707 37.2814 43.654 37.5927 43.7123 37.6705C43.7707 37.7678 44.5683 37.437 45.4826 36.9506C46.4164 36.4641 47.214 35.9582 47.2529 35.822C47.2723 35.7053 47.1556 35.2577 46.9611 34.8491C46.7471 34.4211 46.4358 34.1097 46.1829 34.0708C45.93 34.0319 45.7744 34.1097 45.7744 34.3043C45.755 34.4794 45.6772 34.6351 45.5799 34.6546ZM26.5542 35.7831C26.0873 35.9972 25.6399 36.3474 25.5232 36.5614C25.4259 36.7755 25.3286 36.9895 25.3286 37.0479C25.3286 37.1063 25.5037 37.1452 25.7177 37.1452C25.9317 37.1452 26.4764 36.7949 26.9433 36.3474C27.3907 35.9193 27.9938 35.4329 28.305 35.2772C28.5969 35.1215 28.8303 34.9075 28.8303 34.8102C28.8303 34.6935 28.6747 34.6156 28.4996 34.6351C28.305 34.6351 27.9743 34.8102 27.7603 35.0243C27.5464 35.2383 27.0017 35.5885 26.5542 35.7831ZM41.767 36.2696C41.4557 36.4836 41.125 36.7366 41.0472 36.8533C40.9694 36.9506 41.0861 37.2814 41.3001 37.5732C41.4946 37.8846 41.7475 38.1181 41.8642 38.1181C41.981 38.1181 42.2922 37.7484 42.6035 37.3203C42.8953 36.8728 43.2844 36.2696 43.4789 35.9582C43.654 35.6469 43.7901 35.355 43.7512 35.3161C43.7123 35.2772 43.3816 35.3745 43.012 35.5691C42.6424 35.7442 42.0977 36.075 41.767 36.2696ZM32.4292 35.608C32.6821 41.2508 32.7794 43.5468 32.7794 44.3641C32.7988 45.2007 32.9156 45.9791 33.0712 46.1542C33.2852 46.4655 33.4019 46.4655 34.3357 46.1931C34.8804 46.0374 35.5807 45.9012 35.892 45.9012C36.1838 45.9012 36.4561 45.8039 36.5145 45.7067C36.5728 45.5899 36.8257 45.5121 37.0981 45.5121C37.3704 45.5121 37.5844 45.4537 37.5844 45.3564C37.5844 45.2786 37.8568 45.0645 38.207 44.87C38.5571 44.6754 39.024 44.4224 39.2574 44.2862C39.4714 44.15 39.8021 43.9165 39.9967 43.7609C40.2496 43.5274 40.3274 43.1577 40.3079 42.0486C40.3079 41.2897 40.2301 40.6087 40.1134 40.5503C39.9967 40.4919 39.9189 40.2584 39.9189 40.0055C39.9383 39.772 39.8022 39.4412 39.6271 39.2855C39.452 39.1299 39.3158 38.8575 39.3353 38.7018C39.3353 38.5461 39.0046 37.9819 38.596 37.4565C38.207 36.9506 37.6622 36.4058 37.3899 36.2696C37.1175 36.1334 36.6896 35.9388 36.4172 35.822C36.1449 35.7053 35.5418 35.5885 35.0555 35.5302C34.5691 35.4912 33.791 35.4912 33.3046 35.5302L32.4292 35.608ZM26.3597 40.4725C26.3208 40.5698 26.457 40.5892 26.6515 40.5114C26.8266 40.4336 27.06 40.2974 27.1767 40.2001C27.2935 40.1222 27.6825 39.8887 28.0522 39.6747C28.4218 39.4801 29.1026 39.1299 29.5695 38.9158C30.2893 38.5656 30.3866 38.4294 30.406 37.8457C30.4255 37.476 30.3282 37.1063 30.231 37.0479C30.1142 36.9895 29.1999 37.69 28.2078 38.624C27.2156 39.5385 26.3791 40.3752 26.3597 40.4725ZM26.9822 38.0986C26.6515 38.2348 26.1262 38.6045 25.815 38.9158C25.3092 39.4023 25.2703 39.5385 25.4454 39.9082C25.6399 40.3363 25.6983 40.3168 27.06 38.9937C28.1494 37.9429 28.3829 37.5927 28.1494 37.4954C27.9743 37.4176 27.7993 37.4565 27.702 37.5927C27.6242 37.7289 27.2935 37.9624 26.9822 38.0986ZM45.2297 39.6942C44.5488 40.3168 44.1014 40.8811 44.1987 40.9395C44.3154 40.9978 44.5488 40.9005 44.7434 40.7449C44.9185 40.5892 45.2103 40.453 45.3853 40.453C45.5604 40.453 45.755 40.3946 45.8328 40.2974C45.9106 40.2195 46.4358 40.0249 46.9805 39.8498L47.9921 39.5385C47.9921 38.0791 47.9143 37.6316 47.7976 37.6122C47.7003 37.5732 47.3502 37.7678 47.0195 38.0402C46.7082 38.3321 45.8911 39.0715 45.2297 39.6942ZM41.1445 40.453C41.2223 40.453 41.2806 41.1535 41.2806 42.0096C41.2806 42.9242 41.3584 43.5663 41.4752 43.5663C41.5919 43.5663 41.7281 43.0215 41.7864 42.3404C41.8642 41.4065 41.8059 40.8811 41.4946 40.0055C41.2612 39.4023 40.9499 38.7602 40.7943 38.6045C40.6387 38.4488 40.483 38.3126 40.4441 38.3126C40.4052 38.3126 40.5219 38.7991 40.6776 39.3828C40.8526 39.986 41.0472 40.453 41.1445 40.453ZM43.3622 39.0131C42.7786 39.305 42.6229 39.4801 42.6424 39.9082C42.6424 40.2195 42.7202 40.4919 42.8369 40.5503C42.9536 40.6087 43.5178 40.1806 44.1014 39.6163C44.7045 39.0715 45.1908 38.5461 45.1714 38.4488C45.1714 38.371 45.0546 38.3126 44.9379 38.3321C44.8017 38.3321 44.5488 38.4099 44.3932 38.4878C44.2376 38.5851 43.7707 38.8186 43.3622 39.0131ZM50.0153 40.6476C50.1904 41.3092 50.1904 41.2897 50.2099 40.2974C50.2293 39.7525 50.1904 39.2855 50.1515 39.2855C50.0931 39.2855 50.0153 39.4412 49.957 39.6163C49.8986 39.8109 49.9375 40.2779 50.0153 40.6476ZM27.6631 40.8616C27.6047 40.92 27.274 41.0951 26.9238 41.2508C26.5737 41.387 26.3013 41.5621 26.3013 41.6205C26.3013 41.6789 26.0873 41.8345 25.815 41.9513C25.4259 42.1459 25.3286 42.3599 25.3286 42.8853C25.3286 43.255 25.387 43.5663 25.4843 43.5663C25.5621 43.5663 26.418 42.8269 27.3713 41.9124C28.344 41.0173 29.0637 40.239 29.0054 40.1806C28.947 40.1222 28.6358 40.239 28.3245 40.4141C28.0132 40.5892 27.7214 40.7838 27.6631 40.8616ZM28.2467 42.1653C27.4491 42.8269 26.6709 43.4884 26.5542 43.6636C26.418 43.8192 26.3402 44.0138 26.3986 44.0916C26.457 44.1889 26.7682 44.1111 27.0795 43.9554C27.4102 43.7998 27.6825 43.6052 27.6631 43.5079C27.6631 43.4301 27.8576 43.2744 28.1105 43.1577C28.344 43.0409 28.8108 42.8074 29.1416 42.6323C29.4723 42.4572 29.8808 42.1653 30.0753 42.0096C30.2504 41.854 30.406 41.4843 30.3866 41.173C30.3866 40.8422 30.2893 40.6476 30.1142 40.6476C29.9586 40.6476 29.803 40.7254 29.7641 40.8033C29.7252 40.9005 29.0443 41.5037 28.2467 42.1653ZM45.3659 41.2702C45.3659 41.3675 45.2492 41.4259 45.1324 41.4259C44.9963 41.4259 44.5683 41.5621 44.1987 41.7178C43.8291 41.8929 43.3816 42.1069 43.226 42.1848C43.0704 42.2626 42.8564 42.5934 42.7591 42.9047C42.6618 43.216 42.4089 43.8192 42.1755 44.2473L41.767 45.0062C42.6035 44.7921 43.1287 44.4224 43.4789 44.0333C43.8096 43.6441 44.4127 43.1577 44.7823 42.9825C45.1519 42.788 45.7161 42.3404 46.0273 41.9902C46.3386 41.6205 46.7082 41.173 46.8638 40.9784C47.0973 40.7254 47.0973 40.6476 46.8833 40.6671C46.7471 40.6865 46.3386 40.8033 45.9884 40.92C45.6382 41.0368 45.3659 41.1924 45.3659 41.2702ZM45.6577 42.6907C45.3464 42.9242 45.327 43.0409 45.5021 43.216C45.6966 43.4106 45.6382 43.5468 45.1714 43.7998C44.8406 43.9944 44.4516 44.15 44.2959 44.15C44.1403 44.15 43.9652 44.2862 43.9069 44.4419C43.8485 44.5976 43.6734 44.7338 43.5178 44.7338C43.3622 44.7338 42.8758 45.0451 42.4478 45.4148C41.767 45.9985 41.6113 46.0569 41.3001 45.8429C40.9888 45.6483 40.8721 45.6677 40.5997 45.9012C40.4247 46.0569 40.2885 46.4266 40.3079 46.7185C40.3079 47.0298 40.2496 47.2633 40.1718 47.2633C40.0745 47.2633 39.666 47.7887 39.238 48.4308C38.81 49.0729 38.4015 49.5982 38.3237 49.5982C38.2264 49.5982 38.0319 49.8901 37.8568 50.2209C37.6817 50.5711 37.4677 50.9019 37.4094 50.9603C37.351 51.0187 36.9814 51.3884 36.6118 51.797C36.1449 52.2834 35.9892 52.5753 36.1254 52.731C36.2421 52.8477 36.6118 52.8866 36.9619 52.8283C37.4872 52.731 37.565 52.6531 37.4677 52.264C37.3704 51.9137 37.6622 51.544 39.1213 50.1236C40.094 49.1896 40.9888 48.4308 41.0861 48.4308C41.2028 48.4308 41.5724 48.1583 41.9226 47.8276C42.2533 47.4968 42.8564 47.0298 43.226 46.7963C43.5956 46.5433 44.043 46.1931 44.1987 46.018C44.3543 45.8429 44.5488 45.6872 44.6461 45.7067C44.7239 45.7067 45.1908 45.4148 45.6966 45.0645C46.2024 44.7338 46.7082 44.3446 46.8249 44.2473C46.9416 44.1306 47.3502 43.8581 47.7587 43.6052C48.2061 43.3522 48.4785 43.0215 48.4785 42.788C48.4785 42.5285 48.3488 42.3988 48.0894 42.3988C47.8754 42.3988 47.7003 42.3015 47.7003 42.2042C47.7003 42.0875 47.8754 41.9513 48.1089 41.854C48.3618 41.7762 48.4785 41.5816 48.4396 41.3481C48.4007 41.134 48.3034 40.9395 48.1867 40.92C48.0894 40.9005 47.5642 41.2119 47.0195 41.6399C46.4942 42.068 45.8717 42.535 45.6577 42.6907ZM28.9276 43.3717C28.8303 43.3717 28.4996 43.5274 28.2078 43.7609C27.8965 43.9749 27.5853 44.15 27.4685 44.15C27.3713 44.15 27.0989 44.3641 26.8849 44.6365C26.6709 44.9089 26.418 45.1229 26.3013 45.1229C26.2041 45.1229 25.8344 45.3564 25.5232 45.6483C25.0563 46.0764 24.9396 46.3488 24.9396 46.913C24.9396 47.3217 24.9785 47.6524 25.0368 47.6524C25.0952 47.6524 25.7761 47.1076 26.5542 46.4655C27.3129 45.8039 28.344 44.8894 28.8303 44.4224C29.3166 43.9554 29.8224 43.4495 29.9586 43.2744C30.0753 43.1187 30.1337 42.9436 30.0559 42.8853C29.9586 42.8269 29.8419 42.788 29.7835 42.788C29.7057 42.788 29.5306 42.9242 29.3945 43.0798C29.2388 43.255 29.0443 43.3912 28.9276 43.3717ZM26.3597 47.7497C26.4375 47.8081 26.9044 47.5357 27.4296 47.166C27.9354 46.7963 28.4996 46.5044 28.6941 46.485C28.8692 46.485 29.0248 46.3877 29.0248 46.2904C29.0248 46.1736 29.3555 45.9401 29.7641 45.7456C30.3477 45.4537 30.4839 45.2591 30.5228 44.7727C30.5422 44.3057 30.4644 44.15 30.231 44.15C30.0559 44.1695 29.0637 44.9478 28.0522 45.9012C27.0406 46.8741 26.2624 47.6914 26.3597 47.7497ZM46.3386 45.4342C46.0468 45.6288 45.4243 46.0569 44.9574 46.3682C44.4905 46.6795 44.0625 46.9909 44.0041 47.0492C43.9458 47.1076 43.6929 47.2827 43.4205 47.4384C43.1482 47.5941 42.584 47.9832 42.1755 48.314C41.7475 48.6448 40.7748 49.5204 39.9772 50.2793C39.1991 51.0187 38.5571 51.6997 38.5571 51.7775C38.5571 51.8748 38.6349 51.9332 38.7517 51.9332C38.8684 51.9332 39.4131 51.6413 39.9772 51.2911C40.5414 50.9603 41.1639 50.5517 41.3779 50.4155C41.5919 50.2987 41.9615 50.0847 42.2144 49.9874C42.4868 49.8512 42.6424 49.6177 42.6424 49.3064C42.6424 49.034 42.7202 48.8199 42.8369 48.8199C42.9536 48.8199 43.0315 48.8978 43.0315 49.0145C43.0315 49.1118 43.1482 49.2091 43.2844 49.2091C43.4011 49.2091 43.9847 48.995 44.5488 48.7226C45.0935 48.4502 45.6382 48.2751 45.755 48.3335C45.8717 48.3918 46.2997 48.0805 46.7276 47.6524C47.1556 47.2244 47.5058 46.7768 47.5058 46.6795C47.5058 46.5628 47.428 46.485 47.3113 46.485C47.1945 46.485 46.6498 46.7185 46.1051 46.9909C45.541 47.2827 44.7628 47.6719 44.3932 47.8665C44.0236 48.0416 43.6734 48.1583 43.6151 48.1194C43.5567 48.0805 43.7318 47.8081 44.0041 47.5357C44.2765 47.2633 44.7628 46.913 45.0741 46.7574C45.4048 46.6017 45.7744 46.485 45.9106 46.485C46.0273 46.485 46.144 46.4266 46.144 46.3293C46.144 46.2515 46.572 45.9985 47.1167 45.7456C47.8171 45.4342 48.0894 45.2007 48.0894 44.9283C48.0894 44.6689 47.9597 44.5392 47.7003 44.5392C47.5058 44.5392 47.2334 44.6559 47.0973 44.8116C46.9805 44.9478 46.6304 45.2397 46.3386 45.4342ZM48.3228 48.4891C48.1867 48.6253 48.0699 48.8005 48.0894 48.9172C48.0894 49.0145 48.4007 48.7615 48.7703 48.3335C49.1399 47.9054 49.4512 47.3995 49.4512 47.2049C49.4512 47.0298 49.529 46.8352 49.6457 46.7768C49.7624 46.7185 49.8402 46.5433 49.8402 46.3877C49.8402 46.232 49.7819 46.0958 49.6846 46.0958C49.6068 46.0958 49.315 46.5823 49.0621 47.1855C48.7897 47.7887 48.459 48.3724 48.3228 48.4891ZM28.1494 47.4773C27.6047 47.8276 26.6709 48.567 26.0484 49.1118L24.9396 50.0847C24.9396 51.8164 24.959 52.3223 24.9979 52.3223C25.0368 52.3223 25.7372 51.6413 26.5737 50.8046C27.4102 49.9874 28.6552 48.7421 29.3555 48.0416C30.0559 47.3411 30.5811 46.6795 30.5422 46.5433C30.4839 46.3682 30.2893 46.3877 29.7835 46.5628C29.4139 46.699 28.6747 47.1076 28.1494 47.4773ZM36.7868 46.8547C36.1838 46.8741 35.9114 47.0687 34.5497 48.4697C33.6937 49.3647 32.8767 50.2793 32.7599 50.5128C32.6238 50.7657 32.5654 50.9603 32.6238 50.9603C32.6821 50.9603 33.0517 50.7463 33.4603 50.4933C33.8493 50.2403 34.3551 49.8706 34.5691 49.6566C34.7831 49.462 35.6974 48.7421 36.6118 48.0611C37.5261 47.38 38.3042 46.7768 38.3626 46.7379C38.4209 46.7185 38.4015 46.6406 38.3431 46.6017C38.2848 46.5628 38.0708 46.6017 37.8568 46.699C37.6622 46.7768 37.1759 46.8547 36.7868 46.8547ZM28.8108 49.929C28.9276 49.9679 29.2972 49.8123 29.6084 49.5982C29.9392 49.3842 30.2504 49.2091 30.3477 49.2091C30.4255 49.2091 30.7757 48.9367 31.1258 48.5864C31.6511 48.0611 31.7094 47.9249 31.4565 47.7887C31.3009 47.7108 31.0675 47.6524 30.9313 47.6524C30.7951 47.6524 30.231 48.1584 29.6473 48.7615C29.0832 49.3842 28.7136 49.9096 28.8108 49.929ZM32.0207 48.8978C31.5733 49.2091 31.2036 49.5399 31.1842 49.6177C31.1842 49.715 30.9118 50.1625 30.6006 50.6101C30.3088 51.077 29.9197 51.5829 29.7641 51.7386C29.6279 51.8943 29.1221 52.5169 28.6552 53.1007C28.1883 53.6844 27.4685 54.5406 27.0211 54.9881C26.5931 55.4356 26.243 55.8442 26.2624 55.9026C26.2819 55.961 26.5348 55.8831 26.846 55.7469C27.1378 55.5913 27.6825 55.1827 28.0522 54.8713C28.4218 54.5405 28.7914 54.2681 28.8887 54.2681C28.9665 54.2681 29.3361 53.9957 29.7057 53.6844C30.0753 53.3536 30.3866 52.9255 30.3866 52.7115C30.3866 52.4975 30.4839 52.3223 30.5811 52.3223C30.6978 52.3223 30.7757 52.1472 30.7757 51.9332C30.7757 51.7191 30.8729 51.4857 30.9897 51.4273C31.1064 51.3689 31.5344 50.863 31.9429 50.3182C32.3709 49.7539 32.9739 48.9756 33.3046 48.567C33.6353 48.1778 33.8688 47.847 33.8493 47.8665C33.8104 47.8665 33.577 47.9832 33.3046 48.1C33.0323 48.2362 32.4681 48.5864 32.0207 48.8978ZM36.9036 48.6643C36.6896 48.8588 36.1254 49.3064 35.6391 49.6955C35.1527 50.0652 34.5108 50.5128 34.18 50.6684C33.8688 50.8435 33.4797 51.1549 33.363 51.3494C33.149 51.6802 33.1685 51.7581 33.5186 51.8748C33.8493 52.011 33.9077 52.1472 33.8104 52.6531C33.7132 53.1785 33.7521 53.2952 34.0439 53.2952C34.219 53.2952 34.6858 52.9255 35.0555 52.478C35.4445 52.011 35.9698 51.33 36.2227 50.9603C36.495 50.5906 36.8841 50.1041 37.0981 49.8706C37.3121 49.6372 37.6233 49.2091 37.779 48.8978C37.9346 48.5864 38.1486 48.2751 38.2653 48.1973C38.3626 48.1194 38.4015 48.0221 38.3431 47.9832C38.2848 47.9249 38.0319 48.0027 37.779 48.1194C37.5261 48.2362 37.137 48.4891 36.9036 48.6643ZM27.3713 51.7191C27.06 51.9526 26.3597 52.5364 25.8344 53.0034C25.0563 53.7039 24.8812 53.9568 24.9201 54.4433C24.9201 54.774 24.9979 55.0465 25.0952 55.0465C25.173 55.0465 25.5037 54.7935 25.815 54.5016C26.1457 54.2098 26.9433 53.3731 27.6242 52.6531C28.2856 51.9332 28.8303 51.2522 28.8303 51.1549C28.8303 51.0381 28.6552 50.9603 28.4607 50.9603C28.2467 50.9603 28.0522 51.0187 28.0132 51.116C27.9743 51.1938 27.702 51.4662 27.3713 51.7191ZM28.2856 55.961C28.1494 56.0972 27.9354 56.2139 27.8382 56.2139C27.7409 56.2139 27.274 56.5447 26.8071 56.9339C26.3208 57.3425 25.7177 57.8289 25.4648 58.0235C25.0757 58.3154 24.9785 58.5489 24.959 59.4245C24.959 60.0082 24.9785 60.4947 25.0563 60.4947C25.1147 60.4947 26.3986 59.2494 27.916 57.7122C29.4334 56.175 30.8924 54.6962 31.1453 54.4043C31.4565 54.0541 31.5149 53.879 31.3398 53.879C31.1842 53.879 30.5033 54.2876 29.803 54.7935C29.1026 55.2994 28.4218 55.8248 28.2856 55.961ZM29.5501 57.9068C29.3166 58.1208 29.0248 58.3348 28.8887 58.3738C28.7525 58.4127 27.8965 59.1715 26.9822 60.0471C26.0679 60.9422 25.3092 61.8567 25.2897 62.0708C25.2508 62.3043 25.3481 62.5183 25.4843 62.5572C25.601 62.5961 26.7488 61.6038 28.0132 60.339C29.2583 59.0742 30.5033 57.8095 30.7562 57.5176C31.0091 57.2257 31.1453 56.9922 31.048 57.0117C30.9507 57.0312 30.6589 57.1479 30.4255 57.2841C30.1726 57.4203 29.7835 57.6927 29.5501 57.9068ZM26.8849 62.5183L26.3986 63.0631C27.6047 62.421 28.4023 61.8762 28.9276 61.4481C29.4723 61.02 30.1921 60.5141 30.5422 60.339C31.0869 60.0471 31.1647 59.9109 31.1647 59.2688C31.1647 58.8797 31.0869 58.5489 31.0091 58.5489C30.9118 58.5489 30.0559 59.3272 29.1026 60.2612C28.1494 61.1952 27.1573 62.207 26.8849 62.5183ZM27.8576 63.1799C27.488 63.5301 27.06 63.8025 26.9433 63.8025C26.8071 63.8025 26.6904 63.8803 26.6904 63.9971C26.6904 64.0944 26.3791 64.1917 26.0095 64.1917C25.6399 64.1917 25.2897 64.3084 25.2508 64.4252C25.2119 64.5614 25.2119 64.9895 25.2508 65.3592C25.3092 65.7289 25.387 66.1569 25.4259 66.2737C25.4843 66.4099 25.5815 66.5266 25.6788 66.5266C25.7566 66.5266 26.9822 65.4175 28.4218 64.0555C29.8613 62.674 30.9896 61.4481 30.9507 61.3119C30.8924 61.1368 30.5033 61.2924 29.7057 61.8178C29.0637 62.2264 28.2272 62.8491 27.8576 63.1799ZM28.9081 65.5537C28.7914 65.5537 28.4023 65.8651 28.0327 66.2348C27.6631 66.6239 27.0795 67.052 26.7488 67.2077C26.3986 67.3633 26.1457 67.5774 26.2041 67.6941C26.2624 67.7914 26.846 67.8887 27.5269 67.8887C28.733 67.9081 28.733 67.8887 29.7252 66.8769C30.2893 66.3126 30.7951 65.6121 30.8535 65.3008C30.9507 64.8532 30.9118 64.7754 30.5422 64.7754C30.2893 64.7754 29.8808 64.9505 29.6084 65.1646C29.3361 65.3786 29.0248 65.5537 28.9081 65.5537ZM67.0567 36.6782C67.2707 36.7171 68.185 36.8144 69.0799 36.8922C69.9748 36.9895 70.7334 37.1063 70.7724 37.1841C70.8113 37.2814 70.9863 37.3397 71.142 37.3397C71.2976 37.3397 71.7839 37.6705 72.2119 38.0597C72.6399 38.4683 72.9901 38.9548 72.9901 39.1299C72.9901 39.3245 73.0873 39.519 73.1846 39.5774C73.3013 39.6358 73.418 39.5774 73.4764 39.4801C73.5348 39.3634 73.7488 39.2855 73.9627 39.2855C74.2351 39.2855 74.3907 39.4607 74.4685 39.8109C74.5269 40.1222 74.6436 40.9589 74.7409 41.7178C74.8576 42.6712 74.8187 43.7998 74.6242 45.5121C74.4685 46.8547 74.2935 48.0027 74.2351 48.0805C74.1962 48.1778 74.0406 48.2362 73.9238 48.2362C73.7877 48.2362 73.5153 48.0805 73.3013 47.8859C73.1068 47.7108 72.7566 47.4579 72.5232 47.3217C72.3092 47.2049 71.8423 46.9714 71.531 46.8158C71.2198 46.6601 70.6362 46.4461 70.2666 46.3293C69.8969 46.2126 68.6325 46.0764 67.4458 46.0569C65.5004 45.9985 65.2475 46.0374 64.6834 46.4266C64.1776 46.7768 64.0219 47.0687 63.9247 47.6914C63.8469 48.1584 63.8469 48.6448 63.9247 48.7615C63.983 48.8978 64.3332 49.1507 64.6834 49.3064C65.0141 49.4815 65.481 49.5982 65.695 49.5982C65.9089 49.5982 66.1813 49.6566 66.2786 49.7539C66.3953 49.8317 66.9983 50.0652 67.6403 50.2793C68.2823 50.4738 68.9048 50.7073 69.0021 50.8046C69.1188 50.9019 69.3911 50.9603 69.644 50.9603C69.8775 50.9603 70.3638 51.116 70.714 51.3105C71.0447 51.5246 71.8228 51.9526 72.4065 52.2834C72.9901 52.6142 73.8849 53.2952 74.3713 53.8206C74.8576 54.3265 75.6747 55.4162 76.1999 56.2139C76.7252 57.0117 77.2699 57.8873 77.406 58.1597C77.5617 58.4321 77.6589 58.8408 77.6589 59.0742C77.6589 59.3272 77.7562 59.5607 77.8535 59.6191C77.9702 59.6774 78.048 60.2806 78.048 60.9811C78.048 61.6816 77.9702 62.2848 77.8535 62.3432C77.7562 62.4015 77.6589 62.674 77.6589 62.9658C77.6589 63.2772 77.5228 63.8804 77.3671 64.3279C77.2115 64.7949 76.7641 65.7483 76.375 66.4683C75.9859 67.2077 75.2661 68.2 74.7798 68.6865C74.274 69.1729 73.3791 69.815 72.7955 70.1263C72.2119 70.4182 71.5699 70.749 71.3949 70.8463C71.2003 70.9241 70.8502 71.0019 70.5973 71.0019C70.3444 71.0019 70.072 71.0798 69.9748 71.1576C69.858 71.2354 69.2939 71.4495 68.7103 71.6246C68.1267 71.7997 67.2901 72.0332 66.8622 72.1694C66.3758 72.3056 65.053 72.364 63.2632 72.3056C61.707 72.2667 60.1701 72.1694 59.8589 72.0916C59.5476 72.0138 58.8862 71.7413 58.3998 71.4689C57.9135 71.216 57.4661 71.0019 57.3882 71.0019C57.291 71.0019 57.2326 71.1771 57.2326 71.3911C57.2326 71.6051 57.1159 71.7803 56.9992 71.7803C56.863 71.7803 56.6296 71.5662 56.5128 71.2938C56.3767 71.0214 56.1821 70.6128 56.0654 70.3598C55.9681 70.1263 55.7347 69.0951 55.5596 68.0833C55.2289 66.332 55.2289 66.118 55.5401 64.1917C55.7347 63.0631 55.8709 61.9151 55.8709 61.6038C55.8709 61.2146 55.9487 61.0979 56.1627 61.1757C56.3767 61.2341 56.4739 61.0979 56.5517 60.6893C56.6101 60.3585 56.7657 60.0861 56.9019 60.0861C57.0186 60.0666 57.2715 60.0666 57.4272 60.1055C57.5828 60.125 58.108 60.5141 58.5944 60.9811C59.0807 61.4481 59.9367 62.0513 60.5008 62.3237C61.1817 62.674 61.8237 62.8296 62.4851 62.8296C63.0298 62.8296 63.4967 62.9075 63.5551 63.0242C63.6134 63.1215 63.9247 63.2188 64.2359 63.2188C64.5472 63.2188 65.053 63.1215 65.3642 63.0047C65.656 62.8685 66.1813 62.635 66.5315 62.4599C67.0567 62.207 67.154 62.0318 67.154 61.4676C67.154 60.9811 67.0178 60.6503 66.6287 60.2806C66.3175 60.0082 65.8117 59.6385 65.5004 59.4634C65.1892 59.3077 64.2359 58.8602 63.4189 58.471C62.5824 58.0819 61.7653 57.7706 61.6097 57.7706C61.4541 57.7706 61.279 57.6733 61.2206 57.576C61.1623 57.4592 60.9677 57.3814 60.7926 57.3814C60.5981 57.3814 60.0145 57.1674 59.4698 56.9144C58.9445 56.6615 58.0108 56.2139 57.4272 55.9221C56.7463 55.5913 56.1627 55.1243 55.832 54.6378C55.5207 54.2292 55.2873 53.7428 55.2873 53.5871C55.2873 53.4314 55.2094 53.2563 55.0927 53.198C54.9954 53.1396 54.8982 52.8866 54.8982 52.6142C54.8982 52.3418 54.8204 52.0889 54.7036 52.0305C54.5869 51.9721 54.5091 50.6684 54.5091 48.7226C54.5091 46.7768 54.5869 45.4732 54.7036 45.4148C54.8204 45.3564 54.8982 45.1035 54.8982 44.831C54.8982 44.5586 54.9954 44.3057 55.0927 44.2473C55.2094 44.1889 55.2873 43.9944 55.2873 43.7998C55.2873 43.6247 55.5012 43.0604 55.7736 42.535C56.0459 42.0291 56.2599 41.5232 56.2599 41.4259C56.2599 41.3092 56.4545 40.9589 56.7074 40.6281C56.9408 40.2973 57.8357 39.519 58.6916 38.9158C59.5476 38.3126 60.5981 37.6511 61.0261 37.437C61.5319 37.1841 62.6213 36.9895 64.2359 36.8338C65.5782 36.7171 66.8427 36.6393 67.0567 36.6782ZM59.2947 40.0055C58.5555 40.5114 57.7773 41.2508 57.5633 41.6205L57.1743 42.3015C57.9329 41.6983 58.7889 40.9978 59.5865 40.3557C60.3647 39.7136 61.1428 39.0715 61.3179 38.9548C61.4735 38.8185 61.5708 38.7213 61.5124 38.7213C61.4541 38.7213 61.2401 38.7991 61.0261 38.8964C60.8121 38.9937 60.0339 39.4801 59.2947 40.0055ZM62.4462 40.9395C62.31 41.1924 62.3684 41.1924 62.8353 41.0173C63.1271 40.9005 63.594 40.6476 63.9052 40.4336C64.197 40.239 64.4888 40.0639 64.5861 40.0639C64.6639 40.0639 64.8779 39.9277 65.053 39.7331C65.2475 39.5385 65.4031 39.3245 65.4031 39.2272C65.4031 39.1493 65.2864 39.091 65.1697 39.1104C65.0335 39.1104 64.3916 39.4607 63.7496 39.8693C63.1076 40.2974 62.524 40.7643 62.4462 40.9395ZM65.8311 41.387C65.87 41.4065 66.5509 41.134 67.3485 40.7643C68.1461 40.3946 68.9632 40.0444 69.1577 39.986C69.43 39.8887 69.4495 39.8109 69.255 39.5774C69.1188 39.4023 68.7297 39.2661 68.3796 39.2855C67.8932 39.2855 67.543 39.4996 66.7649 40.2974C66.2397 40.8616 65.8117 41.3481 65.8311 41.387ZM63.2632 41.8151C63.2632 41.9124 63.1271 42.0096 62.9714 42.0096C62.8158 42.0096 62.6796 42.0875 62.6796 42.2042C62.6796 42.321 62.8936 42.3015 63.2243 42.1653C63.5161 42.0291 64.2554 41.5427 64.8779 41.0951C65.481 40.6281 65.9868 40.1611 65.9868 40.0639C65.9868 39.9471 65.9284 39.8693 65.8506 39.8887C65.7533 39.8887 65.1502 40.2974 64.4888 40.7643C63.8079 41.2313 63.2632 41.6983 63.2632 41.8151ZM68.3212 41.2702C68.0488 41.387 67.4069 41.6983 66.8622 41.9707C66.3369 42.2431 65.6755 42.6323 65.4031 42.8269L64.9168 43.1966C66.9011 43.1966 67.1929 43.0993 67.9905 42.4961C68.4963 42.1264 68.9437 41.8151 69.0021 41.8151C69.0604 41.8151 69.6635 41.4843 70.3638 41.0757C71.0642 40.6865 71.5699 40.2779 71.4921 40.2001C71.3949 40.1222 71.2587 40.0639 71.142 40.0639C71.0447 40.0639 70.4611 40.2974 69.8775 40.5698C69.2939 40.8422 68.5935 41.1535 68.3212 41.2702ZM59.5476 41.9318C58.9445 42.3015 58.1275 42.9436 57.7384 43.3717C57.3493 43.7998 57.077 44.2279 57.1353 44.3446C57.1937 44.4419 57.3688 44.5392 57.5439 44.5392C57.7384 44.5392 58.7305 43.683 59.781 42.6323C60.8315 41.601 61.6291 40.6671 61.5513 40.5892C61.4735 40.5114 61.3568 40.453 61.279 40.453C61.1817 40.453 61.0066 40.6281 60.8899 40.8616C60.7537 41.0757 60.1507 41.5621 59.5476 41.9318ZM71.3949 41.4259C71.2976 41.4259 70.7723 41.7178 70.2276 42.068C69.6635 42.4183 69.041 42.7685 68.8659 42.8463C68.6714 42.9242 68.5157 43.0604 68.5157 43.1771C68.5157 43.2744 68.6714 43.4301 68.8659 43.4885C69.041 43.5663 69.3522 43.5274 69.5468 43.3912C69.7219 43.2744 70.072 43.2355 70.3249 43.2939C70.5584 43.3717 71.0447 43.2744 71.4338 43.0993C71.8034 42.9242 72.2314 42.788 72.3675 42.788C72.5232 42.788 72.5815 42.4961 72.5621 41.8734C72.5232 41.387 72.4065 40.9395 72.2897 40.9005C72.173 40.8616 71.959 40.9589 71.8034 41.134C71.6478 41.3092 71.4727 41.4454 71.3949 41.4259ZM64.4888 42.2431C64.4499 42.3404 64.3137 42.3988 64.197 42.3988C64.0608 42.3988 63.4578 42.8074 62.8547 43.3133C62.2517 43.8192 61.5708 44.403 61.3373 44.5781C61.1233 44.7727 60.9288 45.1424 60.9288 45.4148C60.9288 45.6872 60.851 45.9401 60.7343 45.9985C60.637 46.0569 60.5397 46.1736 60.5397 46.2904C60.5397 46.3877 60.637 46.485 60.7343 46.485C60.851 46.485 61.2012 46.2515 61.5124 45.9401C61.8431 45.6483 62.096 45.3175 62.096 45.2202C62.096 45.1035 61.9988 45.1424 61.8626 45.2591C61.7264 45.3953 61.5513 45.5121 61.4735 45.5121C61.3957 45.5121 61.3179 45.3953 61.3179 45.2591C61.3179 45.1424 61.6875 44.7143 62.1349 44.3251C62.6018 43.936 63.4967 43.3133 64.1387 42.9436C64.7806 42.5545 65.3448 42.1069 65.4031 41.9124C65.4615 41.7178 65.5004 41.5427 65.481 41.5232C65.481 41.4843 65.267 41.6205 64.9946 41.7956C64.7417 41.9707 64.5083 42.1653 64.4888 42.2431ZM60.5397 43.7219C60.2674 43.9749 59.392 44.6948 58.5944 45.337C57.7968 45.9791 57.0575 46.5044 56.9797 46.485C56.8825 46.485 56.6879 46.6212 56.5323 46.7768C56.3767 46.9325 56.2599 47.3217 56.2599 47.6524C56.2599 47.9638 56.3572 48.2751 56.4545 48.3335C56.5712 48.3918 56.6685 48.3529 56.7074 48.2556C56.7268 48.1584 57.4466 47.2827 58.322 46.3098C59.178 45.337 60.0339 44.5392 60.209 44.5392C60.4036 44.5392 60.8899 44.2084 61.3179 43.7998C61.7459 43.4106 62.096 43.0215 62.096 42.9242C62.096 42.8463 62.0377 42.788 61.9598 42.788C61.8626 42.8074 61.6291 42.9047 61.4151 43.0409C61.1817 43.1771 60.7926 43.469 60.5397 43.7219ZM57.7579 48.2362C57.4661 48.6059 57.2715 48.9561 57.3299 49.0145C57.3688 49.0729 57.5828 48.9367 57.7579 48.7032C57.9524 48.4891 58.4971 48.0221 58.9834 47.6719L59.8589 47.0492C58.964 47.0687 58.5944 47.1855 58.4971 47.3217C58.3804 47.4579 58.0497 47.8665 57.7579 48.2362ZM59.5281 50.0847L59.2363 50.6684C60.3257 50.1236 60.7926 49.8123 60.9872 49.6372C61.1817 49.462 61.3373 49.1118 61.3373 48.8783C61.3568 48.6448 61.279 48.4113 61.1623 48.3529C61.065 48.2946 60.7148 48.528 60.3841 48.8783C60.0729 49.2285 59.6838 49.7539 59.5281 50.0847ZM57.2715 50.2598C56.7074 50.8046 56.2599 51.3689 56.2599 51.4857C56.2599 51.6219 56.3961 51.8943 56.5712 52.0694C56.8825 52.4002 56.9214 52.3807 57.4077 51.797C57.68 51.4467 58.1858 50.8435 58.4971 50.4544C58.8084 50.0652 59.2363 49.4426 59.4309 49.0923C59.606 48.7226 59.6838 48.4308 59.606 48.4308C59.5087 48.4308 59.178 48.6253 58.8667 48.8588C58.5555 49.0729 57.8357 49.715 57.2715 50.2598ZM58.9834 52.0499C57.6801 53.3342 57.5633 53.5093 57.8162 53.7817C57.9719 53.9568 58.1858 54.093 58.2637 54.0736C58.3609 54.0736 58.536 53.9568 58.6527 53.8206C58.7889 53.7039 58.9834 53.3925 59.0807 53.159C59.1974 52.9255 59.6643 52.3223 60.1507 51.797C60.637 51.2911 61.1428 50.7073 61.279 50.5128C61.4151 50.3376 61.5124 50.182 61.4735 50.2014C61.4346 50.2014 61.2012 50.2987 60.9288 50.4155C60.6565 50.5322 59.781 51.2522 58.9834 52.0499ZM60.2479 53.0034C60.3063 53.0617 60.5397 53.0034 60.7926 52.8672C61.0261 52.7504 61.3373 52.5364 61.4735 52.3807C61.6097 52.2445 61.8431 52.1278 61.9598 52.1278C62.096 52.1472 62.31 52.011 62.4462 51.8359C62.6407 51.6024 62.6407 51.4857 62.4462 51.2522C62.31 51.077 62.1349 50.9408 62.0766 50.9603C61.9988 50.9603 61.5513 51.3884 61.0455 51.9332C60.5592 52.4586 60.1896 52.945 60.2479 53.0034ZM61.707 53.0617C61.1233 53.4314 60.4036 53.9763 60.0923 54.2487C59.8005 54.5211 59.5671 54.813 59.5671 54.8908C59.5671 54.9881 59.7227 55.0465 59.9172 55.0465C60.0923 55.0465 60.423 54.8713 60.637 54.6573C60.851 54.4433 61.0844 54.2487 61.1817 54.2681C61.2595 54.2681 61.8431 53.879 62.4851 53.3925C63.1271 52.9061 63.7885 52.478 63.9441 52.4196C64.0998 52.3613 64.197 52.2251 64.1387 52.1278C64.0803 52.011 63.983 51.9332 63.9052 51.9526C63.8079 51.9526 63.5356 52.0499 63.2632 52.1472C62.9909 52.264 62.2906 52.6726 61.707 53.0617ZM65.2086 53.3536C64.839 53.5287 64.411 53.6844 64.2943 53.6844C64.1581 53.6844 64.0025 53.8206 63.9441 53.9763C63.8858 54.1319 63.6718 54.2681 63.4578 54.2681C63.2438 54.2681 63.0687 54.346 63.0687 54.4627C63.0687 54.56 62.952 54.6573 62.8353 54.6573C62.6991 54.6573 62.3295 54.8519 62.0182 55.1048C61.6875 55.3578 61.5124 55.6302 61.5708 55.7664C61.6486 55.9026 61.882 56.0194 62.096 56.0194C62.31 56.0194 62.5629 56.175 62.6602 56.3501C62.8158 56.6809 62.8547 56.6809 63.2827 56.3501C63.5356 56.1556 64.0608 55.7664 64.4499 55.4745C64.8195 55.1827 65.5004 54.6768 65.9284 54.3654C66.3564 54.0346 66.9011 53.6455 67.1345 53.4898C67.368 53.3342 67.543 53.1007 67.543 52.9839C67.5236 52.8477 67.4069 52.7115 67.2902 52.6726C67.154 52.6337 66.7844 52.692 66.4731 52.8088C66.1424 52.9061 65.5782 53.159 65.2086 53.3536ZM66.1813 55.0659C66.0257 55.1437 65.9478 55.2605 66.0451 55.3578C66.1229 55.4551 66.3758 55.4356 66.6287 55.3189C66.8622 55.2021 67.5041 54.8908 68.0294 54.6573C68.5741 54.4238 69.1382 54.1514 69.2939 54.0736C69.4495 53.9957 69.5857 53.8206 69.5857 53.6649C69.5857 53.5093 69.3522 53.3731 69.0021 53.3342C68.5352 53.2952 68.2045 53.4704 67.4458 54.1125C66.9011 54.5795 66.3369 55.0075 66.1813 55.0659ZM69.3522 54.813C69.0993 54.9492 68.7686 55.0465 68.6325 55.0465C68.4768 55.0465 68.2239 55.1827 68.0877 55.3383C67.9516 55.5134 67.6792 55.6496 67.5041 55.6302C67.3096 55.6302 67.154 55.708 67.154 55.8248C67.154 55.9221 66.9983 56.0194 66.8233 56.0388C66.6287 56.0388 66.2007 56.2139 65.8895 56.428C65.5782 56.6225 65.1502 56.8366 64.9752 56.895C64.7806 56.9533 64.625 57.0701 64.625 57.1868C64.625 57.2841 64.7806 57.4592 64.9752 57.5565C65.1502 57.6344 65.6366 57.7706 66.0451 57.8484C66.5315 57.9262 66.8427 57.8873 67.0178 57.7122C67.1345 57.5565 67.5236 57.3036 67.8349 57.1479C68.1461 56.9728 68.5935 56.642 68.8075 56.428C69.0215 56.1945 69.2939 56.0194 69.3911 56.0194C69.5079 56.0194 69.9748 55.6302 70.4416 55.1437C71.2587 54.3265 71.2781 54.2681 70.8307 54.2876C70.5778 54.2876 70.2276 54.3654 70.072 54.4433C69.9164 54.5211 69.5857 54.6962 69.3522 54.813ZM70.3444 56.1166C70.0331 56.3112 69.5662 56.6809 69.3133 56.9339C69.0604 57.1868 68.6908 57.3814 68.4963 57.3814C68.2823 57.3814 68.1267 57.4592 68.1267 57.576C68.1267 57.6733 68.1656 57.7706 68.2239 57.7706C68.2823 57.7706 68.9632 57.4592 69.7413 57.0895C70.5 56.7198 71.2587 56.4085 71.3949 56.4085C71.5116 56.4085 71.7839 56.3307 71.9785 56.2334C72.1536 56.1361 72.4843 55.9999 72.6983 55.9415L73.0873 55.8248C72.4843 55.2021 72.2314 55.027 72.1147 55.0465C72.0174 55.0465 71.6867 55.2021 71.4143 55.3967C71.1225 55.5718 70.6556 55.9026 70.3444 56.1166ZM72.0757 56.9922C71.8423 56.9922 71.4921 57.0701 71.2976 57.1674C71.1031 57.2647 70.6167 57.4787 70.2276 57.6538C69.8191 57.8289 69.4495 58.043 69.3911 58.1597C69.3328 58.257 69.1577 58.3543 68.9826 58.3543C68.827 58.3543 68.5546 58.4905 68.399 58.6462C68.185 58.8797 68.1656 59.0159 68.3796 59.3272C68.4963 59.5218 68.7686 59.7553 68.9632 59.8136C69.1577 59.872 69.5273 59.7164 69.8386 59.4439C70.1304 59.191 70.5584 58.938 70.8113 58.8602C71.0447 58.8018 71.2392 58.6462 71.2392 58.5489C71.2392 58.4321 71.3949 58.3543 71.5894 58.3543C71.7839 58.3543 72.0174 58.2765 72.1147 58.1597C72.2314 58.0624 72.6204 57.8095 72.9901 57.6149C73.3597 57.4009 73.6709 57.0895 73.6709 56.9144C73.6709 56.7393 73.5348 56.6031 73.3791 56.6031C73.2235 56.6031 72.9512 56.7004 72.7955 56.7977C72.6399 56.895 72.3092 56.9922 72.0757 56.9922ZM73.0484 58.3543C72.9122 58.3543 72.4843 58.5294 72.1147 58.7435C71.745 58.9575 71.3171 59.1326 71.2003 59.1326C71.0642 59.1521 70.8502 59.2883 70.714 59.4829C70.5778 59.658 70.4611 59.872 70.4611 59.9499C70.4611 60.0471 70.6362 60.1055 70.8502 60.1055C71.0642 60.1055 71.3949 60.0277 71.5894 59.9304C71.7645 59.8331 72.2703 59.5996 72.6983 59.4245C73.1262 59.2299 73.632 58.9964 73.8266 58.9186C74.0017 58.8213 74.2935 58.7435 74.4491 58.7435C74.6047 58.7435 74.7798 58.6267 74.8187 58.4905C74.8771 58.3738 74.7993 58.1403 74.6825 58.0041C74.5464 57.8679 74.3129 57.7706 74.1378 57.7706C73.9627 57.7706 73.6904 57.9068 73.5542 58.0624C73.3986 58.2376 73.1651 58.3738 73.0484 58.3543ZM72.5621 60.3196C72.3675 60.4168 72.0563 60.4947 71.8812 60.4947C71.6867 60.4947 71.356 60.6309 71.142 60.7865C70.928 60.9617 70.5584 61.0784 70.3249 61.0784C70.072 61.0784 69.8775 61.1562 69.8775 61.273C69.8775 61.3703 69.7024 61.4676 69.4884 61.4676C69.1966 61.4676 69.0604 61.6427 68.9632 62.1681C68.8659 62.5572 68.7492 62.9075 68.6714 62.9658C68.613 63.0047 68.5352 63.1799 68.5352 63.3355C68.5157 63.4717 67.8154 64.3279 66.94 65.184C66.084 66.0596 65.0724 66.9547 64.7028 67.1882C64.3332 67.4022 64.0414 67.6552 64.0414 67.733C64.0414 67.8303 64.0803 67.8887 64.1387 67.8887C64.197 67.8887 64.6445 67.5774 65.1697 67.2077C65.6755 66.8185 66.1424 66.5072 66.2397 66.5266C66.3175 66.5266 66.7649 66.2348 67.2512 65.8845C67.7959 65.4954 68.1461 65.0673 68.2239 64.717C68.2823 64.4057 68.6519 63.9193 69.1577 63.5301C69.6051 63.1799 70.4416 62.5572 71.0058 62.1681C71.5505 61.7789 72.0757 61.4676 72.173 61.4676C72.2508 61.4481 72.7566 61.1368 73.2819 60.7476C73.8266 60.3585 74.3324 59.9693 74.4491 59.872C74.5464 59.7747 74.5075 59.7164 74.3518 59.7358C74.1962 59.7553 73.7877 59.8526 73.4764 59.9499C73.1651 60.0666 72.7372 60.2223 72.5621 60.3196ZM73.9627 61.273C73.9044 61.3314 73.4764 61.5843 72.9901 61.8373C72.5037 62.0902 71.959 62.4599 71.7839 62.674C71.5894 62.8685 71.2198 63.0631 70.9474 63.1215C70.6751 63.1799 70.4611 63.355 70.4611 63.5106C70.4611 63.6663 70.5973 63.8025 70.7529 63.8025C70.9085 63.8025 71.0836 63.6663 71.142 63.5106C71.2003 63.355 71.3754 63.2188 71.531 63.2188C71.6867 63.2188 71.9785 63.141 72.173 63.0437C72.3481 62.9464 72.7177 62.7907 72.9901 62.674C73.2624 62.5572 73.6515 62.421 73.8655 62.3432C74.0795 62.2848 74.4102 62.3432 74.6047 62.4794C74.9354 62.7129 74.8576 62.8296 73.7488 63.8025C73.0873 64.3863 72.3092 65.0089 72.0368 65.184C71.7645 65.3592 71.3949 65.651 71.2392 65.8456C71.0836 66.0207 70.714 66.3126 70.4222 66.4488C70.1109 66.6045 69.8969 66.7601 69.9358 66.8185C69.9553 66.8769 70.4611 66.7212 71.0447 66.4683C71.6283 66.2153 72.3481 65.904 72.6594 65.7678C72.9512 65.651 73.3986 65.5537 73.6709 65.5537C74.0211 65.5537 74.2156 65.3981 74.3713 65.0089C74.488 64.717 74.7603 64.036 74.9549 63.5106C75.1689 62.9658 75.3245 62.1291 75.3245 61.6038C75.3245 61.0979 75.2661 60.6893 75.1883 60.7087C75.0911 60.7087 74.8187 60.8255 74.5464 60.9422C74.274 61.0589 74.0211 61.2146 73.9627 61.273ZM58.3609 63.1604C58.5944 63.1993 58.7889 63.1604 58.7889 63.0631C58.7695 62.9853 58.6333 62.8102 58.4387 62.6934C58.2637 62.5572 58.0302 62.4405 57.9524 62.4405C57.8551 62.4405 57.8162 62.5961 57.8551 62.7713C57.894 62.9658 58.108 63.141 58.3609 63.1604ZM64.4305 65.2619C64.0608 65.4759 63.3411 65.9429 62.8353 66.2737C62.31 66.6239 61.8431 66.9158 61.7653 66.9158C61.668 66.8963 61.2401 67.2271 60.7926 67.6357C60.3647 68.0443 59.8005 68.5308 59.5865 68.7059C59.3531 68.9005 59.1974 69.1729 59.2363 69.2897C59.2752 69.4453 59.6838 69.5621 60.1701 69.601C61.0066 69.6399 61.0844 69.601 62.5435 68.1806C63.38 67.3828 64.1387 66.7212 64.2359 66.7212C64.3137 66.7212 64.7417 66.3515 65.1892 65.8845C65.6171 65.437 66.1035 64.9116 66.2786 64.717C66.4342 64.5419 66.5509 64.3473 66.512 64.3084C66.4731 64.2695 66.1424 64.3668 65.7728 64.5614C65.4031 64.7365 64.8001 65.0673 64.4305 65.2619ZM58.4387 65.1646C58.2053 65.2813 57.9524 65.5148 57.894 65.6899C57.8162 65.8845 57.8162 66.4099 57.894 66.8574C57.9524 67.3244 58.0886 67.6941 58.1664 67.6941C58.2637 67.6941 58.964 67.052 59.7421 66.2737C60.5008 65.5148 61.1039 64.8532 61.0844 64.8532C61.0455 64.8338 60.6175 64.7754 60.1312 64.6976C59.5476 64.6003 59.1585 64.6392 59.0613 64.7754C58.964 64.8922 58.6916 65.0673 58.4387 65.1646ZM61.065 65.9234C60.4619 66.5266 59.9561 67.0715 59.9561 67.1493C59.9561 67.2466 60.1896 67.1298 60.5008 66.9158C60.7926 66.6823 61.1233 66.5266 61.2206 66.5266C61.3373 66.5461 61.5513 66.3904 61.707 66.2153C61.8626 66.0402 62.3295 65.6705 62.738 65.4175C63.1271 65.184 63.4189 64.8727 63.3605 64.7754C63.3022 64.6587 63.1465 64.5808 63.0298 64.6003C62.8936 64.6003 62.6407 64.6587 62.4851 64.717C62.3295 64.7754 61.6875 65.3202 61.065 65.9234ZM67.8932 66.4488C67.4847 66.7017 67.1345 66.9158 67.0956 66.9158C67.0762 66.9158 66.9205 67.0131 66.7649 67.1104C66.6093 67.2271 66.1424 67.519 65.7533 67.7914C65.3448 68.0638 64.9363 68.2778 64.8195 68.2778C64.7223 68.2778 64.3526 68.5892 64.0025 68.9589L63.3605 69.6399C65.4421 69.6399 65.6755 69.5621 66.2397 69.0562C66.5704 68.7448 67.2318 68.1805 67.6792 67.8498C68.1267 67.4995 69.1382 66.6628 69.8969 65.9818C70.6751 65.3202 71.1809 64.7949 71.0252 64.7949C70.8696 64.8143 70.2666 65.0867 69.6829 65.3981C69.0993 65.7094 68.2823 66.1764 67.8932 66.4488ZM71.9785 66.9352C71.7256 66.9352 71.2587 67.1104 70.9474 67.3049C70.6362 67.519 70.0526 67.8498 69.6829 68.0833C69.3133 68.2973 68.7297 68.6865 68.4185 68.9589C67.971 69.3286 67.9127 69.4453 68.185 69.4453C68.3601 69.4453 68.9243 69.2702 69.4495 69.0562C69.9553 68.8227 70.8891 68.3751 71.531 68.0443C72.173 67.7136 72.8539 67.3049 73.0484 67.1298C73.243 66.9547 73.3986 66.7601 73.3791 66.6628C73.3791 66.585 73.2041 66.5266 72.9901 66.5266C72.7955 66.5266 72.5815 66.6045 72.5037 66.7212C72.4454 66.8185 72.2119 66.9158 71.9785 66.9352Z" fill="#35211A"/>
</svg>
