<svg width="68" height="93" viewBox="0 0 68 93" fill="none" xmlns="http://www.w3.org/2000/svg">
<path fill-rule="evenodd" clip-rule="evenodd" d="M25.1244 0.137545C29.246 0.176843 33.4466 0.294739 34.4523 0.392985C35.4384 0.510881 36.6611 0.589478 37.1541 0.589478C37.7654 0.589478 38.081 0.491232 38.1401 0.294739C38.1993 0.137545 38.4162 0 38.6331 0C38.8501 0 39.3037 0.314388 39.6192 0.687725C40.1714 1.3165 40.3094 1.37545 41.2955 1.37545C41.8871 1.37545 42.4195 1.4344 42.459 1.53264C42.4984 1.61124 42.9323 1.90598 43.445 2.22037C44.0169 2.55441 44.3522 2.65265 44.3522 2.51511C44.3522 2.37756 44.5888 2.53476 44.8649 2.84914C45.141 3.16353 45.9693 4.04775 46.699 4.81407C47.4286 5.58039 48.1583 6.40566 48.3161 6.68075C48.4936 6.95584 49.0458 7.66322 49.5782 8.25269C50.091 8.84217 51.7475 10.6106 53.2463 12.1825C54.7254 13.7545 57.3482 16.4464 59.0442 18.1756C60.7402 19.9047 62.7715 22.1447 63.5603 23.1468C64.3294 24.149 65.0196 24.9742 65.1182 24.9546C65.1971 24.9546 65.4338 25.3083 65.6507 25.7405C65.8676 26.1728 66.0451 26.6641 66.0451 26.8213C66.0451 26.9785 66.3409 27.3518 66.6959 27.6269C67.0706 27.9413 67.2284 28.1574 67.0903 28.2164C66.9523 28.2557 66.834 28.6093 66.834 28.9827C66.834 29.356 66.9917 30.3188 67.1692 31.1048C67.4256 32.2248 67.5045 33.6789 67.5242 38.3161C67.5439 41.4993 67.6622 45.1344 67.7806 46.3723C67.9186 47.6888 68.0172 52.0116 67.9975 56.6881C67.9975 61.4236 67.9186 65.1177 67.8003 65.6286C67.682 66.1198 67.5242 69.4798 67.4256 73.0953C67.2875 78.4988 67.1692 80.2869 66.7748 83.0182C66.4987 84.8652 66.2226 86.8891 66.1634 87.5375C66.0451 88.6182 65.9465 88.8147 64.9999 89.8954C64.428 90.5438 63.9153 91.1923 63.8758 91.3495C63.8167 91.5263 63.3039 91.6835 62.3968 91.7817C61.6277 91.88 60.5036 91.88 59.8528 91.8014C59.2217 91.7228 58.6104 91.546 58.4723 91.4084C58.3146 91.2316 57.6046 91.153 56.0467 91.1726C54.824 91.1726 53.4041 91.2512 52.8913 91.3691C52.3589 91.4674 49.0063 91.6639 45.4368 91.7817C41.8674 91.8996 37.0752 92.0765 34.7876 92.1551C32.5 92.2533 29.5024 92.4695 28.0825 92.666C26.0907 92.9411 24.1383 93 19.4053 93C14.8892 93 12.7988 92.9214 11.4184 92.7053C10.3929 92.5284 8.99271 92.2533 8.3222 92.0765C7.63197 91.8996 6.56704 91.5067 5.9557 91.1923C5.32463 90.8975 4.31887 90.1902 3.72724 89.6596C2.91869 88.9326 2.44539 88.2645 1.91292 87.1249C1.30158 85.8477 1.14381 85.2189 0.966322 83.6077C0.867718 82.5269 0.670509 80.6799 0.552184 79.4813C0.433859 78.2827 0.256371 75.9837 0.177488 74.3725C0.0788837 72.7416 0 68.91 0 65.8251C0 62.7401 0.0788834 59.0657 0.197208 57.6706C0.295813 56.2755 0.4733 51.4418 0.591625 46.9618C0.69023 42.4817 0.828276 37.5301 0.887438 35.9582C0.966322 34.0718 0.887439 31.5764 0.670509 28.5897C0.394417 24.9546 0.354976 22.5181 0.43386 16.1124C0.493022 10.1194 0.591626 7.76146 0.828277 6.58251C0.986043 5.71794 1.24241 4.73547 1.36074 4.42109C1.47906 4.08705 1.7946 3.53687 2.07069 3.18318C2.32706 2.84914 2.54399 2.43651 2.54399 2.29896C2.54399 2.18107 2.8398 1.90598 3.23422 1.70949C3.60892 1.53264 4.23998 1.37545 4.61468 1.37545C4.98938 1.37545 5.71905 1.2772 6.25151 1.15931C6.76425 1.04141 7.49392 0.80562 7.86862 0.648426C8.32877 0.451933 8.75606 0.399535 9.15047 0.491232C9.48573 0.569829 10.314 0.628777 11.024 0.628777C11.7339 0.609128 13.5088 0.491232 14.9681 0.334038C16.8022 0.157194 19.9772 0.0982463 25.1244 0.137545ZM12.2072 2.53476C11.3987 2.6723 10.2943 2.88844 9.7421 3.04564C9.20964 3.20283 8.26304 3.47792 7.67141 3.63512C7.07979 3.81196 6.19235 4.146 5.69933 4.38179C4.85133 4.79442 4.81189 4.85337 4.55552 6.09127C4.41747 6.79865 4.18082 7.93831 4.02305 8.64568C3.86529 9.35305 3.62864 12.0057 3.49059 14.5405C3.35255 17.0752 3.23422 22.8718 3.25394 27.4107C3.25394 32.7357 3.33282 36.3512 3.49059 37.6284C3.6878 39.0628 3.72724 43.248 3.6878 53.2495C3.64836 60.7555 3.62864 70.089 3.62864 73.9795C3.64836 79.9136 3.6878 81.2301 3.96389 82.134C4.14138 82.7234 4.33859 83.7059 4.39775 84.2954C4.47663 84.8849 4.61468 85.6905 4.71328 86.0638C4.87105 86.6729 5.06826 86.8301 6.5276 87.5572C7.43476 88.0091 8.69689 88.461 9.34768 88.5789C9.99847 88.6968 11.4578 88.8933 12.6016 89.0112C13.7454 89.1094 15.9147 89.3059 17.4332 89.4042C18.9517 89.5221 21.0027 89.6989 21.969 89.8168C22.9353 89.9151 24.9863 90.0526 26.5048 90.1312C28.1219 90.1902 29.8376 90.1509 30.6462 90.0133C31.3956 89.9151 32.8747 89.7186 33.9001 89.6203C34.9256 89.5024 37.726 89.3256 40.1122 89.2077C42.4984 89.0898 47.9611 88.913 52.2405 88.8344C58.4723 88.6968 60.1683 88.6182 60.7205 88.3824C61.0952 88.2252 61.7065 87.7929 62.0418 87.4196C62.3968 87.0463 62.9095 86.4764 63.1856 86.1621C63.4617 85.8477 63.6786 85.3957 63.6983 85.1796C63.6983 84.9635 63.6983 80.8568 63.6983 76.0427C63.6786 71.2286 63.7575 65.6679 63.8758 63.6636C63.9744 61.6594 64.1519 58.6138 64.2505 56.8846C64.3689 55.1555 64.5463 51.1274 64.6844 47.9442C64.8816 43.2284 64.8816 41.2438 64.6647 37.2354C64.5266 34.5238 64.3491 31.4388 64.29 30.3581L64.1716 28.3932C62.6531 28.2164 62.0023 28.0592 61.7657 27.9413C61.4502 27.7644 59.3992 27.7251 54.7451 27.7448C50.0318 27.7841 48.0203 27.7448 47.685 27.5679C47.4286 27.45 46.5412 27.0963 45.7326 26.8016C44.9241 26.5265 44.1747 26.1925 44.0564 26.0942C43.9381 26.0156 43.7408 25.937 43.6028 25.937C43.4845 25.937 43.1295 25.7602 42.814 25.5441C42.3407 25.1904 42.2421 25.1707 41.9857 25.4458C41.8279 25.603 41.6307 25.7405 41.5321 25.7405C41.4532 25.7405 41.256 25.5048 41.0785 25.1904C40.8813 24.8956 40.6447 24.2079 40.5066 23.6774C40.3686 23.1272 40.1319 21.9482 39.9544 21.0247C39.777 20.1012 39.5403 18.3328 39.4417 17.0949C39.3234 15.857 39.2248 14.1475 39.2248 13.3026C39.2248 12.4773 39.0867 11.1411 38.9092 10.3552C38.6923 9.31375 38.6331 8.0955 38.6726 5.73759C38.7317 2.69195 38.712 2.51511 38.3373 2.29896C38.081 2.16142 36.2075 2.06317 32.7169 2.04352C29.8376 2.02387 24.375 2.08282 20.5886 2.16142C16.7824 2.24002 13.0158 2.39721 12.2072 2.53476ZM39.9544 5.40355C39.9939 4.97127 39.9939 4.16565 39.9544 3.63512C39.915 3.08494 39.8953 3.43862 39.8953 4.42109C39.8953 5.40355 39.915 5.83583 39.9544 5.40355ZM42.0843 6.87725C42.1435 6.93619 42.4393 6.79865 42.7351 6.56286C43.0309 6.32707 43.2873 5.99303 43.307 5.79654C43.307 5.60004 43.2281 5.3839 43.1098 5.28565C42.9717 5.18741 42.814 5.10881 42.7351 5.10881C42.6759 5.10881 42.459 5.48215 42.3012 5.93408C42.1237 6.40566 42.0251 6.8183 42.0843 6.87725ZM2.24818 9.3334C2.20874 10.8464 2.20874 11.9468 2.24818 11.7896C2.30734 11.6324 2.48483 10.6106 2.66231 9.5299C2.82008 8.44919 2.99757 7.27023 3.05673 6.91654C3.09617 6.54321 3.01729 6.16987 2.85952 5.99303C2.62287 5.75724 2.58343 5.77689 2.46511 6.15022C2.38622 6.38601 2.28762 7.82041 2.24818 9.3334ZM42.0843 8.86182C42.2618 9.25481 42.3407 9.19586 43.0309 8.1741C43.4647 7.50602 43.662 7.07374 43.5042 7.07374C43.3661 7.07374 42.9323 7.38813 42.5576 7.76146C42.0054 8.33129 41.9265 8.50813 42.0843 8.86182ZM43.445 9.13691L43.0703 9.72639C44.1944 8.82252 44.7466 8.39024 45.0227 8.2134C45.2988 8.0169 45.5354 7.72216 45.5354 7.56497C45.5354 7.38813 45.358 7.27023 45.0621 7.27023C44.7269 7.27023 44.4705 7.46672 44.2141 7.91866C43.9972 8.25269 43.662 8.82252 43.445 9.13691ZM43.3661 10.8071C42.814 11.4359 42.5773 11.8682 42.5773 12.2808C42.5773 12.8506 42.6562 12.7917 44.5494 10.9053C45.634 9.82464 46.5215 8.82252 46.5215 8.68498C46.5215 8.56708 46.4032 8.44919 46.2848 8.46884C46.1468 8.46884 45.6143 8.80287 45.1016 9.19586C44.5888 9.58884 43.8197 10.3159 43.3661 10.8071ZM40.6249 11.2983C40.7433 11.4162 40.8024 11.259 40.8024 10.9053C40.8024 10.5713 40.763 10.0211 40.7236 9.68709C40.6644 9.3334 40.5461 9.03866 40.408 9.03866C40.27 9.03866 40.2305 9.3727 40.3291 10.0801C40.3883 10.6303 40.5461 11.2001 40.6249 11.2983ZM44.9438 11.6324C44.6677 11.9861 44.3325 12.4969 44.1747 12.772C43.9381 13.2043 44.0169 13.165 44.7663 12.5362C45.2396 12.1236 45.6932 11.8485 45.7918 11.8878C45.8707 11.9468 46.0876 11.8092 46.2848 11.5931C46.4623 11.3769 46.9948 11.0232 47.4681 10.8071C47.9217 10.591 48.2964 10.2962 48.2964 10.1783C48.3161 10.0408 48.1583 9.76569 47.9611 9.58884C47.7639 9.39235 47.4878 9.23516 47.3498 9.23516C47.2117 9.23516 46.7187 9.62814 46.2651 10.1194C45.8115 10.591 45.2199 11.2787 44.9438 11.6324ZM45.8115 12.5952C45.3974 12.8899 44.5691 13.5973 43.9972 14.1671C42.952 15.2085 42.9323 15.2478 43.0506 16.1124C43.1098 16.6036 43.2675 17.0949 43.3859 17.1931C43.5239 17.3307 43.8789 17.0556 44.51 16.3089C45.0227 15.7194 46.1862 14.4422 47.1131 13.4598C48.04 12.4773 48.9077 11.5341 49.0457 11.3376C49.2824 11.0232 49.243 11.0036 48.6908 11.0429C48.3358 11.0822 47.7245 11.318 47.33 11.5931C46.9159 11.8682 46.2257 12.3201 45.8115 12.5952ZM48.1189 13.7545C47.9414 14.0099 47.4681 14.5994 47.0737 15.0317C46.6792 15.464 46.4032 15.857 46.4623 15.9159C46.5215 15.9749 46.6004 15.8963 46.6398 15.7784C46.6793 15.6408 46.8567 15.5229 47.0145 15.5229C47.1723 15.5229 47.6061 15.2675 47.9611 14.9727C48.2964 14.678 48.9471 14.1868 49.381 13.9117C49.8149 13.6169 50.4065 13.2633 50.7023 13.1257L51.2348 12.8703C50.5643 12.045 50.229 11.8092 50.0318 11.8092C49.8543 11.7896 49.4204 12.1236 49.0655 12.5362C48.7105 12.9292 48.2964 13.4794 48.1189 13.7545ZM50.722 15.6212C50.367 16.0535 50.0712 16.525 50.0712 16.6626C50.0712 16.7805 49.9924 16.8984 49.874 16.8984C49.7557 16.8984 49.6768 17.0163 49.6768 17.1538C49.6768 17.2914 49.8346 17.2324 50.1107 16.9966C50.3671 16.7608 51.0376 16.2892 51.5897 15.9159C52.1616 15.5426 52.6744 15.0906 52.7336 14.9334C52.7927 14.7763 52.6744 14.4815 52.4969 14.285C52.2997 14.0885 52.0828 13.9313 52.0039 13.951C51.925 13.951 51.7475 14.1475 51.6292 14.4029C51.4911 14.6387 51.0967 15.1889 50.722 15.6212ZM48.0992 15.7784C47.3892 16.3285 46.1665 17.3896 45.3777 18.1559C44.0761 19.4331 43.9578 19.61 43.9578 20.337C43.9578 20.7693 44.0564 21.2605 44.155 21.4177C44.3325 21.6731 44.4508 21.5945 44.9833 21.0247C45.3185 20.6514 45.8313 20.0816 46.1073 19.7475C46.3834 19.4135 47.0539 18.6275 47.6061 17.9791C48.1386 17.3307 49.0063 16.3285 49.5191 15.7784C50.0318 15.2085 50.4657 14.6387 50.4657 14.5405C50.4657 14.4422 50.4065 14.344 50.3276 14.344C50.229 14.344 49.9924 14.4619 49.7754 14.5798C49.5585 14.6977 48.8091 15.2478 48.0992 15.7784ZM52.2208 16.7019C51.925 16.8591 51.215 17.3503 50.6431 17.8022C50.0515 18.2345 48.8683 19.2956 48.0005 20.1602C47.1328 21.0247 46.0482 22.1447 45.5946 22.6556C44.9044 23.4023 44.7466 23.697 44.8058 24.2276C44.8255 24.6795 44.9438 24.876 45.2396 24.9153C45.5157 24.9742 45.851 24.7188 46.3046 24.1293C46.6792 23.6774 47.7047 22.4984 48.5922 21.516C49.4599 20.5531 50.4459 19.4331 50.7615 19.0401C51.0967 18.6472 51.4911 18.1559 51.6489 17.9594C51.8264 17.7629 52.2405 17.2521 52.5955 16.8591C52.9505 16.4464 53.1477 16.1124 53.0491 16.1124C52.9505 16.1124 52.8322 16.1714 52.7927 16.2696C52.7533 16.3482 52.4969 16.5447 52.2208 16.7019ZM52.3391 18.9222L51.9447 19.5314C53.4829 18.6275 54.1929 18.1756 54.5281 17.9398C54.9817 17.6057 55.0606 17.4486 54.9028 17.1735C54.8042 16.9966 54.607 16.8001 54.4887 16.7608C54.3507 16.7215 53.9168 17.0556 53.5027 17.4879C53.0688 17.9398 52.5561 18.5882 52.3391 18.9222ZM53.1871 19.9637C52.911 20.1602 52.5955 20.3763 52.4969 20.4352C52.418 20.5138 51.8461 20.9265 51.2545 21.3784C50.6629 21.8303 49.4993 22.8128 48.6908 23.5595C47.8822 24.3061 47.2512 24.9742 47.3103 25.0332C47.3695 25.0921 47.9414 25.1904 48.5922 25.269C49.6965 25.4065 49.7951 25.3869 50.0515 24.9349C50.1896 24.6795 51.3925 23.363 52.7138 22.0072C54.0351 20.6514 55.317 19.3152 55.5734 19.0205C55.8692 18.6472 55.948 18.4703 55.7706 18.49C55.6128 18.49 55.1001 18.7651 54.607 19.0598C54.114 19.3742 53.4829 19.7868 53.1871 19.9637ZM55.9875 20.0816C55.5142 20.6514 54.7648 21.516 54.3309 21.9679C53.5224 22.8128 53.5421 22.8128 55.4945 21.516C56.5791 20.7889 57.5257 20.1405 57.6243 20.0619C57.7032 20.003 57.5652 19.7475 57.3088 19.4921L56.8552 19.0401L55.9875 20.0816ZM55.8692 22.3805C55.3367 22.7539 54.8831 23.1075 54.8634 23.1665C54.8437 23.2451 54.3901 23.5595 53.8774 23.8935C53.3449 24.2472 52.8519 24.6598 52.773 24.8367C52.6744 25.0725 52.773 25.21 53.128 25.3476C53.3843 25.4655 53.7196 25.5441 53.8576 25.5441C53.9957 25.5441 54.2323 25.4262 54.4098 25.2886C54.5676 25.1511 55.2775 24.3847 55.9875 23.5791C56.6974 22.7735 57.3877 21.9482 57.5257 21.7714C57.6638 21.5749 57.7032 21.4177 57.6046 21.4374C57.5257 21.4374 57.3285 21.4963 57.151 21.5749C56.9933 21.6535 56.4213 22.0268 55.8692 22.3805ZM58.1962 22.9896C58.2357 22.9896 58.5906 22.8718 58.9851 22.6949C59.3992 22.5377 59.695 22.2823 59.6556 22.1644C59.6161 22.0268 59.4584 21.8893 59.3006 21.85C59.1428 21.8303 58.8273 22.0661 58.5906 22.4002C58.354 22.7146 58.1765 22.9896 58.1962 22.9896ZM57.0919 25.0528C56.5594 25.4851 56.4214 25.6816 56.6186 25.7798C56.7566 25.8584 57.2693 25.937 57.7624 25.937C58.4723 25.937 58.7287 25.8388 59.1428 25.4065C59.4386 25.0921 59.8528 24.5223 60.0894 24.1293C60.3261 23.7167 60.5233 23.3433 60.5233 23.2844C60.5233 23.2254 60.4444 23.1861 60.3655 23.2058C60.2866 23.2254 59.6753 23.5005 59.0245 23.8346C58.354 24.1883 57.4863 24.7384 57.0919 25.0528ZM60.8585 25.21C61.0558 25.1511 61.3121 24.9939 61.4699 24.876C61.6079 24.7581 61.7065 24.5419 61.7065 24.424C61.7065 24.2865 61.6079 24.1686 61.5093 24.1686C61.4107 24.1686 61.1544 24.424 60.9374 24.7581C60.5824 25.269 60.5825 25.3279 60.8585 25.21ZM65.276 31.3406C65.2563 32.1069 65.3746 33.168 65.5324 33.6985L65.8085 34.681C65.8085 33.168 65.6901 32.1069 65.5521 31.3406L65.2957 29.9651L65.276 31.3406ZM2.3665 49.8109C2.46511 49.9288 2.54399 48.7105 2.54399 46.9225C2.52427 45.213 2.50455 43.8179 2.46511 43.8179C2.42566 43.8179 2.34678 45.1147 2.28762 46.726C2.22846 48.3176 2.2679 49.7127 2.3665 49.8109ZM65.4535 56.6881C65.1182 58.9085 65.0591 60.7948 64.9605 70.7374C64.921 77.0644 64.9013 82.0554 64.9605 81.8392C65.0196 81.6231 65.2168 81.0925 65.3746 80.6603C65.631 80.0315 65.7296 78.4399 65.8676 73.0953C65.9662 69.3619 66.1043 62.7008 66.1634 58.2601C66.2029 53.6425 66.1832 49.752 66.0648 49.1232C65.9071 48.1997 65.8874 48.4944 65.8676 51.0881C65.8479 52.9548 65.6901 55.1359 65.4535 56.6881ZM2.09041 66.1198C2.12985 65.4714 2.12985 64.5086 2.09041 63.9584C2.05097 63.4278 2.01153 63.9584 2.01153 65.1373C2.01153 66.3359 2.05097 66.7682 2.09041 66.1198ZM61.5882 89.6793C61.0163 89.9937 61.0163 89.9937 61.4896 89.9937C61.7657 89.974 62.3179 89.7775 62.732 89.5417C63.1856 89.2863 63.5406 88.8933 63.6195 88.5789C63.6983 88.2645 63.6983 88.0287 63.5997 88.0287C63.5011 88.0287 63.1462 88.3235 62.8109 88.6968C62.4559 89.0505 61.9235 89.5024 61.5882 89.6793ZM7.25727 89.6007C7.65169 89.6989 7.96722 89.7579 8.00666 89.7382C8.02639 89.7186 7.49392 89.4042 6.82341 89.0505C5.64016 88.4021 5.60072 88.4021 6.07402 88.913C6.35011 89.188 6.88258 89.5024 7.25727 89.6007ZM9.56461 90.5831C9.7421 90.8189 10.3337 90.8779 12.4241 90.9172L15.047 90.9565C12.3058 90.5242 10.9648 90.3277 10.314 90.2098C9.66322 90.0919 8.95327 89.9544 8.73634 89.8954C8.49969 89.8365 8.53913 89.8758 8.83494 90.033C9.11103 90.1705 9.44629 90.4063 9.56461 90.5831ZM43.0309 39.947C43.1492 39.9863 43.2873 40.281 43.3267 40.5954C43.3661 40.9884 43.0506 41.794 42.3604 43.1302C41.8082 44.2109 41.1969 45.3702 40.9799 45.6846C40.7827 46.0186 40.6249 46.4312 40.6052 46.6277C40.6052 46.8046 40.5066 46.9814 40.4277 47.0207C40.3291 47.0404 39.9347 47.6888 39.56 48.4355C39.1853 49.2018 38.1993 51.1667 37.371 52.8172C36.5427 54.4481 35.8525 55.8629 35.8722 55.9611C35.8722 56.0397 35.6947 56.4524 35.4975 56.8846C35.2806 57.3169 34.9848 57.985 34.827 58.3583C34.6693 58.7317 34.0185 60.2054 33.3874 61.6005C32.7563 63.0152 31.8097 65.0784 31.2773 66.218C30.7448 67.3577 29.8574 69.1654 29.3052 70.2461C28.7727 71.3269 28.2008 72.3486 28.0628 72.5058C27.905 72.663 27.7867 72.8988 27.7867 72.997C27.7867 73.1149 27.4711 73.5079 27.0964 73.8813C26.702 74.2546 26.3668 74.5297 26.3076 74.4707C26.2484 74.4118 26.4851 73.842 26.8006 73.1935C27.1162 72.5451 27.3923 71.7984 27.3923 71.5233C27.3923 71.2483 27.4909 70.7177 27.6092 70.3444C27.7275 69.9711 27.905 69.4995 28.0036 69.3226C28.0825 69.1261 28.2994 68.5563 28.4769 68.0454C28.6544 67.5149 28.9108 66.8468 29.0488 66.5128C29.1869 66.1984 29.4827 65.5303 29.6996 65.0391C29.9165 64.5479 30.1532 64.0173 30.2123 63.8601C30.2912 63.7029 30.4096 63.4278 30.5082 63.2707C30.6265 63.1135 30.9223 62.4847 31.2181 61.8952C31.4942 61.3057 31.8097 60.677 31.9083 60.5198C31.9872 60.3626 32.2436 59.8713 32.4605 59.439C32.6972 59.0068 33.3085 57.7689 33.8607 56.6881C34.3932 55.6074 34.8862 54.5857 34.9453 54.4285C35.0242 54.2713 35.1623 53.9962 35.2609 53.839C35.3595 53.6818 35.5961 53.1513 35.7933 52.66C35.9906 52.1688 36.7202 50.6755 37.4104 49.3197C38.1007 47.9639 38.8895 46.4705 39.1656 45.9793C39.4417 45.4881 40.0136 44.486 40.4277 43.7196C40.8616 42.973 41.3152 42.1673 41.4335 41.9512C41.5716 41.7351 41.9265 41.1849 42.2421 40.7133C42.5576 40.2417 42.9126 39.9077 43.0309 39.947ZM47.2906 47.5709C47.685 47.5709 48.2175 47.7084 48.5133 47.9049C48.7894 48.0818 49.4993 48.6123 50.091 49.0642C50.6629 49.4965 52.1222 50.3611 53.3055 50.9506C54.5084 51.54 56.2636 52.385 57.2102 52.8369C58.709 53.5443 58.9456 53.7211 59.0837 54.2516C59.1625 54.5857 59.3006 54.9001 59.3795 54.9394C59.4584 54.9787 59.5372 55.1752 59.5372 55.3716C59.5372 55.5485 59.2809 55.9218 58.9851 56.1969C58.6892 56.472 57.9399 57.0418 57.3482 57.4938C56.7566 57.9261 55.2973 59.105 54.0943 60.1071C52.911 61.1092 51.6686 62.1506 51.3334 62.4454C51.0178 62.7401 50.229 63.3493 49.5585 63.8012C48.9077 64.2728 48.2766 64.6461 48.1386 64.6461C48.0005 64.6461 47.8822 64.5086 47.8822 64.3514C47.8822 64.1942 48.1189 63.8012 48.3752 63.4671C48.6513 63.1528 48.8683 62.7991 48.8683 62.6812C48.8683 62.5829 48.7894 62.524 48.6711 62.5829C48.5724 62.6419 48.2964 62.6419 48.0794 62.5829C47.7836 62.5043 47.685 62.3078 47.685 61.7577C47.685 61.1485 47.8033 60.8931 48.4344 60.3233C48.8485 59.9499 49.4402 59.439 49.7754 59.1836C50.091 58.9478 51.0573 58.2208 51.925 57.592C52.7927 56.9632 53.7788 56.3148 54.0943 56.138C54.4295 55.9611 55.0014 55.5485 55.3761 55.2341C55.7706 54.9001 55.9678 54.625 55.8297 54.625C55.6917 54.625 54.9423 54.2516 54.1535 53.8194C53.3646 53.3674 52.0039 52.5422 51.1362 51.9527C50.2684 51.3828 49.026 50.4397 48.3752 49.8502C47.7245 49.2607 46.9159 48.6516 46.5609 48.4748C46.206 48.2783 45.8904 48.0621 45.8707 47.9639C45.851 47.8656 46.0087 47.7281 46.2059 47.6888C46.4229 47.6298 46.9159 47.5905 47.2906 47.5709ZM22.0874 48.5337C22.1662 48.5337 22.2451 48.7105 22.2451 48.9267C22.2451 49.2214 22.3832 49.3197 22.7381 49.3197C23.0142 49.3197 23.4678 49.2411 23.7242 49.1232C24.0003 49.0249 24.3552 48.966 24.513 49.0249C24.7102 49.0839 24.7694 49.2411 24.6708 49.4376C24.5919 49.6144 23.9806 50.086 23.3298 50.4593C22.679 50.8523 21.3577 51.5007 20.3716 51.933C19.4053 52.3457 17.236 53.3478 15.54 54.173C12.7988 55.4895 12.5227 55.6664 12.8777 55.8825C13.0946 56.0201 13.5877 56.2952 13.9624 56.472C14.3568 56.6685 15.2837 57.0222 16.033 57.2776C16.8022 57.5134 18.0446 58.0243 18.794 58.3976C19.5631 58.7513 20.5886 59.3408 21.0619 59.6552C21.5549 59.9892 22.3437 60.6966 22.7973 61.2271C23.4086 61.9149 23.6453 62.3471 23.6256 62.7794C23.6256 63.1135 23.4678 63.5261 23.2903 63.7226C23.0931 63.9191 22.7973 64.0763 22.6001 64.0566C22.4029 64.0566 22.0479 63.9584 21.8113 63.8405C21.5746 63.7029 20.3914 62.8777 19.1884 61.9935C18.0051 61.1092 16.1908 59.832 15.1456 59.1247C14.1201 58.4369 12.7791 57.5724 12.148 57.2187C11.517 56.8846 10.7873 56.5899 10.5112 56.5899C10.2154 56.5899 9.93931 56.4327 9.82098 56.1969C9.72238 55.9808 9.70266 55.686 9.78154 55.5288C9.86042 55.3716 10.2746 54.9787 10.7084 54.6446C11.1423 54.3106 11.5959 53.9765 11.7142 53.8979C11.8325 53.7997 12.1283 53.6229 12.4044 53.4657C12.6608 53.3085 14.6131 52.326 16.7233 51.2846C18.8531 50.2235 20.7463 49.3197 20.9633 49.2607C21.1802 49.2018 21.4957 49.0053 21.6338 48.8481C21.7915 48.6712 21.9887 48.5337 22.0874 48.5337Z" fill="#35211A"/>
</svg>
