<svg width="69" height="92" viewBox="0 0 69 92" fill="none" xmlns="http://www.w3.org/2000/svg">
<path fill-rule="evenodd" clip-rule="evenodd" d="M15.6187 0.026958C16.5439 0.0856348 20.6183 0.202988 24.6731 0.300783C28.905 0.398578 32.389 0.55505 32.8417 0.672403C33.2944 0.809316 35.2824 0.907111 37.4279 0.907111C39.7505 0.907111 41.2465 0.985347 41.3055 1.1027C41.3646 1.22005 41.5417 1.29829 41.6992 1.29829C41.8567 1.29829 42.1716 1.51344 42.3881 1.78726C42.7227 2.198 42.9392 2.27624 43.8644 2.27624C44.6517 2.27624 45.2422 2.43271 46.0492 2.82389C46.6791 3.11727 47.4074 3.68448 47.7617 4.13434C48.0963 4.56463 48.4899 4.97537 48.6277 5.07317C48.7655 5.1514 48.8836 5.30788 48.8836 5.40567C48.8836 5.50346 49.4544 6.42274 50.1433 7.42024C50.8126 8.39819 51.5212 9.35658 51.6786 9.51305C51.8361 9.66952 52.1314 10.0607 52.3479 10.3541C52.6825 10.8431 52.8006 10.9017 53.4698 10.8039C53.8832 10.7453 54.2375 10.7648 54.2965 10.8822C54.3556 10.98 54.2572 11.2342 54.08 11.4298C53.9029 11.6254 53.8044 11.9579 53.8832 12.2513C53.9422 12.5642 55.7728 14.5006 58.745 17.4344C61.3825 20.0162 63.8626 22.4611 64.276 22.8718C64.6893 23.263 65.024 23.7129 65.024 23.8498C65.024 23.9671 65.2995 24.3974 65.6341 24.769C65.9688 25.1407 66.5789 25.9426 66.9726 26.5293C67.3663 27.1161 67.8387 27.918 68.0158 28.2896C68.193 28.6613 68.4095 29.5023 68.4882 30.1477C68.567 30.7932 68.6457 34.6267 68.6457 38.6559C68.6654 42.685 68.6457 47.0467 68.6063 48.3376C68.567 49.6285 68.6457 56.0438 68.7638 62.6156C68.8819 69.1874 68.9803 76.0917 69 77.9694C69 79.847 68.9409 82.2332 68.8819 83.2503C68.8032 84.2674 68.6457 85.3235 68.5276 85.5974C68.4292 85.8712 68.2127 86.3602 68.0749 86.6731C67.9371 86.9861 67.6222 87.6902 67.3663 88.2183C67.1104 88.7464 66.6183 89.3723 66.3034 89.607C65.9884 89.8612 65.3192 90.0959 64.8271 90.1546C64.335 90.2133 63.3509 90.3698 62.6029 90.4676C61.8746 90.5849 61.166 90.7414 61.0479 90.8196C60.9101 90.8979 60.3 91.0348 59.7095 91.113C59.119 91.2108 57.3081 91.3673 55.6744 91.5042C54.0603 91.6215 50.911 91.7584 48.6868 91.7976C46.4626 91.8367 41.5417 91.9149 37.7625 91.9736C33.0779 92.0323 30.5978 91.9932 29.9876 91.8562C29.4955 91.7389 27.9012 91.5433 26.4446 91.4259C24.988 91.3086 23.3543 91.2304 22.8032 91.2499C22.2717 91.2499 19.4767 91.3477 16.6029 91.4455C13.7291 91.5433 10.6782 91.7193 9.81215 91.7976C8.94608 91.8954 7.72572 91.9345 7.11553 91.8758C6.15105 91.778 5.87548 91.6606 5.30466 91.0739C4.95036 90.7023 4.39923 89.9786 4.12366 89.4505C3.8481 88.942 3.6119 88.3552 3.6119 88.14C3.6119 87.9249 3.51348 87.7097 3.41506 87.6511C3.31665 87.5924 3.21823 87.3577 3.21823 87.123C3.21823 86.8687 3.00171 86.458 2.72614 86.1841C2.45058 85.9103 2.23406 85.5583 2.23406 85.4018C2.23406 85.2453 2.17501 85.0302 2.09628 84.9324C2.01754 84.8541 1.78134 84.326 1.60419 83.7588C1.40736 83.2112 1.26958 82.4875 1.24989 82.1746C1.24989 81.8616 1.17116 81.5096 1.07274 81.3922C0.974326 81.2748 0.856226 80.7076 0.797175 80.1209C0.738125 79.5341 0.600342 78.341 0.482242 77.4804C0.383825 76.6198 0.186992 73.9794 0.0885751 71.6127C-0.029525 68.9136 -0.029525 65.7059 0.0885751 63.0068C0.186992 60.6402 0.364142 49.8241 0.482242 38.9493C0.580659 28.0745 0.738125 17.7865 0.797175 16.0653C0.875909 13.9334 0.836543 12.799 0.679076 12.486C0.560976 12.2513 0.521609 12.0166 0.600342 11.9775C0.698759 11.9384 0.836543 11.4298 0.915277 10.8626C0.99401 10.2758 1.13179 9.31746 1.21053 8.73069C1.30894 8.14392 1.66324 7.04862 2.01754 6.28582C2.37184 5.52302 2.80488 4.62331 2.98203 4.25169C3.15918 3.89963 3.71031 3.23463 4.2024 2.78477C4.69448 2.31536 5.5015 1.70903 6.03295 1.4352C6.5644 1.12226 7.273 0.907111 7.68635 0.907111C8.0997 0.907111 8.78862 0.770198 9.22165 0.613727C9.65469 0.457255 10.757 0.339901 11.6821 0.320342C12.6072 0.320342 13.4929 0.222548 13.6504 0.124753C13.8276 0.00739902 14.6346 -0.0317189 15.6187 0.026958ZM8.9264 3.60625C8.43432 3.7236 7.68635 3.91919 7.25332 4.03654C6.82028 4.17346 6.11168 4.4864 5.67865 4.72111C5.18656 4.99493 4.75353 5.44479 4.51733 5.9142C4.3205 6.3445 4.06461 7.20509 3.9662 7.85054C3.86778 8.49598 3.71031 9.68908 3.6119 10.491C3.51348 11.2929 3.35601 12.8381 3.25759 13.9138C3.15918 14.9896 3.00171 16.0066 2.92298 16.1631C2.82456 16.3196 2.64741 18.2559 2.54899 20.4661C2.45058 22.6762 2.37184 26.8032 2.37184 29.6588C2.37184 32.5144 2.45058 39.6338 2.52931 45.5015C2.60804 52.3667 2.72614 56.3959 2.86393 56.8457C3.00171 57.2369 3.15918 60.3076 3.25759 64.0825C3.33633 67.6814 3.4938 71.691 3.59221 72.9818C3.71031 74.2727 3.88746 77.4804 3.98588 80.1209C4.10398 82.7613 4.28113 85.4018 4.41891 85.9886C4.53701 86.5753 4.75353 87.3381 4.89131 87.6511C5.0291 87.964 5.36371 88.3161 5.59991 88.4139C5.8558 88.5117 6.60377 88.6681 7.25332 88.7659C7.90287 88.8442 9.41849 89.0006 10.5995 89.118C11.8002 89.2158 12.9812 89.3527 13.2567 89.4114C13.5323 89.4896 15.6975 89.6265 18.0792 89.7243C20.4608 89.8417 26.7595 89.959 32.0543 89.9786C38.3136 89.9981 42.7818 90.1155 44.7501 90.2915C47.1712 90.5067 48.0175 90.5067 48.8836 90.3306C49.4741 90.1937 51.7377 90.0568 53.9029 89.9981C56.068 89.9395 58.2529 89.8417 58.7647 89.7634C59.2567 89.6656 59.7882 89.4896 59.926 89.3722C60.0638 89.2353 60.3787 89.118 60.6346 89.118C60.8905 89.118 61.1267 89.0397 61.1857 88.9224C61.2448 88.805 61.5597 88.7268 61.8746 88.7268C62.1896 88.7268 62.5045 88.6486 62.5635 88.5312C62.6226 88.4139 62.8785 88.3356 63.154 88.3356C63.4296 88.3356 63.9807 88.1792 64.3744 87.964C64.7878 87.7684 65.3979 87.2599 65.7522 86.8491C66.1656 86.3602 66.4215 85.7734 66.5002 85.2062C66.5789 84.7172 66.6774 80.1013 66.7167 74.9377C66.7758 68.9331 66.7364 65.4125 66.6183 65.1583C66.5002 64.9236 66.3821 61.4421 66.3231 56.7479C66.264 52.3276 66.1459 47.4574 66.0475 45.8927C65.9688 44.328 65.831 42.9393 65.7522 42.8219C65.6735 42.685 65.516 41.2181 65.3979 39.5752C65.2602 37.9518 65.1421 34.7245 65.1027 32.4557L65.024 28.2896C63.8626 27.8202 62.9572 27.7029 62.2092 27.7029C61.481 27.7029 60.8905 27.7616 60.8905 27.8593C60.8905 27.9376 60.6149 28.1527 60.3 28.3483C59.9653 28.5244 59.5914 28.6808 59.4536 28.6808C59.3355 28.6808 59.0993 28.583 58.9615 28.4461C58.804 28.2701 57.564 28.1136 55.4185 27.9963C53.214 27.8593 51.9345 27.8593 51.5212 27.9963C51.1866 28.0941 50.7732 28.3092 50.5961 28.4461C50.3205 28.6417 50.1827 28.6026 49.8284 28.1919C49.4347 27.7811 49.1985 27.7224 48.0569 27.7029C47.3089 27.7029 46.5216 27.6246 46.2854 27.5268C46.0295 27.4291 45.6162 27.2921 45.3406 27.2335C45.065 27.1943 44.3761 26.7445 43.8053 26.2555C42.9589 25.4927 42.7818 25.4145 42.7818 25.747C42.7818 26.0078 42.6702 26.1251 42.4472 26.099C42.2503 26.0599 41.837 25.5123 41.4827 24.8668C41.1481 24.2214 40.8134 23.3803 40.7347 23.0087C40.656 22.6371 40.5182 21.6592 40.4198 20.8572C40.3214 20.0553 40.1442 17.8843 40.0261 16.0653C39.908 14.2463 39.8883 11.4689 39.9474 9.90423C40.0261 8.33951 40.0261 6.30538 39.9474 5.34699L39.8293 3.64536C32.5071 3.64536 30.2238 3.56713 30.027 3.46933C29.8498 3.37154 26.1297 3.25418 21.7206 3.21507C17.3312 3.17595 12.8631 3.21507 11.7805 3.2933C10.6979 3.35198 9.41849 3.50845 8.9264 3.60625ZM43.7266 7.69407C43.7463 7.7723 43.8644 7.73319 44.0021 7.61583C44.1399 7.47892 44.3761 7.36157 44.5336 7.36157C44.7107 7.36157 45.0454 7.16598 45.2816 6.93127C45.5374 6.677 45.7343 6.36406 45.7343 6.2467C45.7343 6.10979 45.6162 5.99244 45.4784 5.99244C45.3209 5.99244 44.8682 6.3445 44.4549 6.7748C44.0415 7.18553 43.7069 7.61583 43.7266 7.69407ZM45.4784 7.4398C45.2422 7.49848 44.6911 7.85054 44.258 8.22216C43.825 8.61334 43.2739 9.10231 43.018 9.31746C42.7621 9.55217 42.5849 9.92379 42.5849 10.2954C42.5849 10.6279 42.6834 10.8822 42.8211 10.8822C42.9589 10.8822 43.9037 10.0607 44.8879 9.08275C45.8917 8.08525 46.7184 7.20509 46.7184 7.12686C46.7184 7.02906 46.5413 6.97039 46.3248 6.97039C46.1083 6.97039 45.9311 7.06818 45.9311 7.16598C45.9311 7.26377 45.7343 7.40068 45.4784 7.4398ZM46.0886 9.02408C46.1083 9.08275 46.4822 8.92628 46.9153 8.69157C47.3483 8.43731 47.7026 8.12436 47.7026 8.00701C47.7026 7.8701 47.5845 7.75274 47.4467 7.75274C47.2893 7.75274 46.9153 8.00701 46.62 8.33951C46.3051 8.65246 46.0689 8.9654 46.0886 9.02408ZM45.7933 10.3932C45.4784 10.6084 44.5336 11.4103 43.7069 12.1535C42.8802 12.8967 42.1519 13.6987 42.1125 13.9138C42.0535 14.129 42.0929 14.4419 42.1913 14.5984C42.3094 14.8331 42.7818 14.4615 44.3761 12.9359C45.4784 11.8601 46.8365 10.5106 47.368 9.96291C47.8994 9.3957 48.2537 8.92628 48.175 8.94584C48.0766 8.94584 47.6436 9.20011 47.1908 9.47393C46.7578 9.76732 46.1279 10.1781 45.7933 10.3932ZM47.6042 11.1169C47.5058 11.1951 47.4664 11.2929 47.5451 11.3516C47.6436 11.4103 48.1356 11.2538 48.6868 10.98C49.297 10.6866 49.6906 10.3541 49.7103 10.1194C49.7497 9.92379 49.6119 9.68908 49.4151 9.6304C49.2379 9.57173 49.0411 9.51305 48.982 9.51305C48.9427 9.51305 48.6474 9.84555 48.3522 10.2563C48.0569 10.6475 47.7223 11.0386 47.6042 11.1169ZM43.1164 19.0578C42.9196 19.3903 42.8211 19.6837 42.8802 19.6837C42.9392 19.6837 43.7856 18.9209 44.7698 17.9625C45.754 17.0237 47.3089 15.4981 48.2341 14.5593C49.1592 13.6009 50.0252 12.8381 50.163 12.8381C50.3008 12.8381 50.6354 12.6034 50.9307 12.31C51.344 11.8601 51.4031 11.7037 51.2062 11.5081C51.0685 11.3711 50.8716 11.2538 50.7929 11.2734C50.7142 11.2734 49.0214 12.8772 47.0334 14.8526C45.065 16.8085 43.2935 18.7058 43.1164 19.0383V19.0578ZM46.7578 13.2879C46.4232 13.5813 46.0689 13.8356 45.9705 13.8356C45.8917 13.816 45.6162 14.0312 45.3209 14.2659C45.0454 14.5201 44.4745 14.97 44.0415 15.3025C43.6282 15.6154 43.018 16.1044 42.7227 16.3782C42.3291 16.7303 42.1913 17.0432 42.1913 17.5127C42.1913 17.8452 42.27 18.1777 42.3881 18.2363C42.5062 18.295 43.7069 17.1997 45.0847 15.811C46.4822 14.4223 47.8601 13.0141 48.175 12.6816C48.4899 12.3491 48.7261 12.0753 48.6671 12.0948C48.6277 12.1144 48.3128 12.2513 47.9979 12.4273C47.6829 12.5838 47.1121 12.975 46.7578 13.2879ZM46.561 17.1997C44.1793 19.5859 43.1754 20.7203 43.1754 21.0333C43.1754 21.268 43.2542 21.5027 43.3723 21.5614C43.4904 21.62 43.9234 21.1897 44.3761 20.6225C44.8092 20.0749 46.3838 18.3733 47.8601 16.8672C49.3363 15.3612 50.7732 13.8747 51.0291 13.5813C51.285 13.2879 51.4228 13.0532 51.3243 13.0532C51.2259 13.0532 50.8716 13.2293 50.5567 13.4444C50.2418 13.6595 48.4309 15.3416 46.561 17.1997ZM48.1553 18.0212C47.4861 18.6666 46.9743 19.2534 47.0137 19.3121C47.0727 19.3708 47.427 19.0774 47.801 18.6862C48.175 18.2755 48.549 17.943 48.6277 17.943C48.7261 17.943 49.2773 17.5322 49.8678 17.0432C50.4583 16.5347 51.1669 16.0262 51.4424 15.8893C51.718 15.7524 52.1117 15.4394 52.3282 15.2243C52.5447 14.9896 52.84 14.794 52.9581 14.8135C53.0958 14.8135 53.273 14.6766 53.3517 14.5201C53.4502 14.3441 53.3714 14.0703 53.1155 13.8356C52.899 13.6009 52.6825 13.4444 52.6234 13.4444C52.5644 13.464 51.8164 14.2268 50.9504 15.146C50.0843 16.0653 48.8246 17.3562 48.1553 18.0212ZM48.923 20.7594C49.0214 20.8181 49.5922 20.4269 50.2024 19.8989C50.8323 19.3512 51.4228 18.9209 51.5409 18.9209C51.659 18.9209 51.9148 18.7449 52.1314 18.5297C52.3479 18.295 52.8006 17.9821 53.1155 17.806C53.4305 17.63 54.1194 17.2975 54.6312 17.0432C55.1626 16.789 55.576 16.5152 55.576 16.4369C55.5956 16.3391 55.4382 16.1435 55.261 15.9871C55.0642 15.8306 54.7099 15.6741 54.4343 15.635C54.0603 15.5959 53.4502 16.0849 51.3834 18.119C49.9465 19.5077 48.8442 20.7008 48.923 20.7594ZM49.5725 18.1581C49.0214 18.5297 47.5255 19.8989 46.2264 21.2289C44.4745 23.0087 43.9234 23.6737 44.1006 23.8106C44.2974 23.9476 44.6911 23.6737 45.5965 22.7936C46.2854 22.109 47.368 21.0724 48.0175 20.4661C48.6474 19.8402 49.7497 18.784 50.4583 18.0799C51.2062 17.3366 51.6393 16.7694 51.5212 16.7107C51.3834 16.6325 51.1275 16.789 50.9307 17.0432C50.7142 17.278 50.104 17.7865 49.5725 18.1581ZM50.6945 23.5173C50.7929 23.5759 51.4031 23.1652 52.0723 22.598C52.7612 22.0308 53.3517 21.5222 53.4108 21.4636C53.4698 21.3853 53.9029 21.0724 54.3753 20.7594C54.8477 20.4465 55.3791 20.114 55.5563 19.9966C55.7334 19.8989 56.1664 19.6055 56.5207 19.3708C56.8554 19.1165 57.2294 18.9209 57.3475 18.9209C57.4656 18.9209 57.5837 18.8427 57.6427 18.7253C57.7018 18.6275 57.5443 18.3146 57.2884 18.0408C57.0522 17.7669 56.757 17.5518 56.6585 17.5518C56.5404 17.5518 55.1232 18.8818 53.5092 20.4856C51.8755 22.109 50.6157 23.4586 50.6945 23.5173ZM52.8596 18.9209C52.7022 18.9209 52.4857 19.0578 52.3676 19.2534C52.2298 19.4294 51.6786 19.8989 51.1472 20.29C50.5961 20.7008 49.6709 21.4831 49.0804 22.0503C48.4899 22.6175 47.6829 23.3021 47.3089 23.5955C46.935 23.8693 46.4822 24.2214 46.3248 24.3779C46.1673 24.5343 45.8327 24.769 45.5768 24.9255C45.3406 25.0624 45.1438 25.3167 45.1438 25.4732C45.1438 25.6687 45.439 25.8252 45.9705 25.9426C46.4429 26.0404 46.8956 26.0795 47.0137 26.0012C47.1318 25.9426 48.9427 24.1431 51.0488 22.0112C53.6863 19.3512 54.7492 18.1385 54.4934 18.1385C54.2768 18.1385 53.8832 18.3146 53.6076 18.5297C53.332 18.7449 52.9974 18.9209 52.8596 18.9209ZM54.2375 23.8889C53.3517 24.769 52.6234 25.5905 52.6234 25.7274C52.6234 25.8448 52.7415 25.9621 52.8596 25.9621C52.9974 25.9621 53.4698 25.6687 53.9029 25.2776C54.3359 24.9059 54.828 24.593 54.9854 24.593C55.1626 24.6126 55.0051 24.8277 54.5918 25.1798L53.9029 25.747C54.9658 25.9426 55.5563 25.9426 55.8712 25.8839C56.2255 25.7861 57.0325 25.1993 57.8986 24.3387C58.6859 23.5564 59.3158 22.8718 59.3158 22.7936C59.3158 22.6958 59.1386 22.6371 58.9221 22.6371C58.7056 22.6371 58.4891 22.7153 58.43 22.8327C58.371 22.9501 58.1545 23.0283 57.938 23.0283C57.7214 23.0283 57.5049 23.1652 57.4459 23.3217C57.3868 23.4781 57.2097 23.6151 57.0522 23.6151C56.8947 23.6151 56.757 23.4977 56.757 23.3803C56.757 23.2434 57.0719 23.0087 57.4459 22.8914C57.8199 22.7545 58.1348 22.5589 58.1348 22.4415C58.1348 22.3437 58.2529 22.2459 58.371 22.2459C58.5088 22.2655 58.7647 22.1286 58.9221 21.9525C59.0796 21.7961 59.3945 21.6396 59.5914 21.6005C59.7882 21.5809 60.0638 21.4049 60.1819 21.2289C60.359 20.9355 60.3 20.7986 59.9063 20.4465C59.6307 20.1922 59.2764 19.8989 59.0993 19.7619C58.8434 19.5664 58.5481 19.7619 57.3278 20.9159C56.5207 21.6787 55.1429 23.0283 54.2375 23.8889ZM54.1981 22.0503C53.9816 22.2655 53.7454 22.4415 53.647 22.4415C53.5683 22.4415 52.7612 23.1261 51.8361 23.9867C50.6748 25.0624 50.2221 25.6101 50.3599 25.7665C50.4976 25.9035 50.7142 25.9035 51.0488 25.7861C51.3243 25.6883 52.7415 24.4561 54.1981 23.0478C55.6547 21.6396 56.757 20.5052 56.6585 20.5052C56.5404 20.5052 56.0484 20.779 55.5169 21.092C55.0051 21.4049 54.4146 21.8352 54.1981 22.0503ZM60.0441 23.4195C60.1425 23.4195 60.5362 23.3021 60.9298 23.1261C61.3432 22.9696 61.6778 22.6958 61.6778 22.5393C61.6778 22.3828 61.5203 22.2459 61.3235 22.2459C61.107 22.2459 60.7133 22.5198 60.4377 22.8327C60.1425 23.1652 59.9653 23.4195 60.0441 23.4195ZM60.9889 24.0062C60.8314 24.0062 60.2015 24.3583 59.611 24.7886C58.9418 25.2776 58.5875 25.6492 58.6662 25.7861C58.7647 25.9426 59.1386 25.9817 59.7095 25.9035C60.3 25.8252 60.7724 25.6101 61.1463 25.2384C61.4613 24.9451 61.8353 24.4561 61.9927 24.1627C62.2486 23.6346 62.2486 23.6151 61.7762 23.6151C61.5006 23.6151 61.2841 23.6933 61.2841 23.8106C61.2841 23.928 61.1463 24.0062 60.9889 24.0062ZM62.0715 25.7665C62.1699 25.7665 62.3077 25.6883 62.3667 25.571C62.4258 25.4536 62.6226 25.3754 62.7997 25.3754C62.9966 25.3949 63.3312 25.2189 63.5477 25.0037C63.902 24.6517 63.902 24.5734 63.6461 24.2996C63.4887 24.1236 63.2918 23.9867 63.2131 24.0062C63.1344 24.0062 62.7997 24.3974 62.4848 24.8864C62.1502 25.3754 61.9534 25.7665 62.0715 25.7665ZM66.697 38.5777C66.8545 39.4774 66.9923 41.6289 67.012 43.663L67.0513 47.1836C67.2875 43.0958 67.3663 39.9272 67.386 37.5019C67.4056 34.9592 67.3466 32.7686 67.2285 32.3188C67.1104 31.8885 66.9726 31.0279 66.9136 30.4216C66.8545 29.7957 66.7167 29.2872 66.5986 29.2872C66.4805 29.2872 66.4018 30.6758 66.4018 33.1598C66.4018 35.6438 66.5002 37.5606 66.697 38.5777ZM7.7454 90.272C8.17843 90.3893 8.90672 90.5067 9.35943 90.5067C9.83183 90.5067 10.1271 90.448 10.0287 90.3698C9.94994 90.2915 9.49722 90.1546 9.0445 90.0959C8.61147 90.0177 7.96192 89.9003 7.6273 89.8221C7.29268 89.7439 6.99743 89.7439 6.99743 89.8417C6.97775 89.9395 7.31237 90.135 7.7454 90.2524V90.272ZM52.8596 42.7046C52.9581 42.7828 53.0565 42.9589 53.0368 43.1153C53.0171 43.3305 53.3517 43.3892 54.6508 43.3892C55.5366 43.3892 56.3239 43.4283 56.4223 43.487C56.5011 43.5456 56.442 43.7608 56.3239 43.9759C56.1468 44.2302 55.8515 44.3671 55.4578 44.3671C55.1429 44.3671 54.7689 44.4845 54.6312 44.6018C54.4934 44.7387 54.3949 45.2473 54.3949 45.7362C54.4146 46.2252 54.4934 47.0076 54.5918 47.4965C54.6902 47.9855 54.7886 54.4008 54.7886 61.7746C54.8083 71.9061 54.8673 75.2311 55.0445 75.4463C55.2216 75.6614 55.2216 75.7397 55.0445 75.7983C54.8673 75.8375 54.7886 76.4047 54.7886 77.7542C54.8083 79.2603 54.7492 79.7297 54.4934 79.9057C54.3359 80.0426 54.1194 80.1209 54.0013 80.0622C53.8832 80.0035 53.8044 79.5928 53.8044 79.1234C53.8241 78.5366 53.706 78.1845 53.4108 77.9107C53.1943 77.6956 53.0171 77.3044 53.0171 77.0306C53.0171 76.7567 52.9187 76.4242 52.7809 76.2873C52.6234 76.1504 52.0723 76.0526 51.344 76.0722C50.6945 76.0917 50.3205 76.1308 50.5173 76.17C50.6945 76.2091 50.8519 76.3069 50.8519 76.3851C50.8519 76.4829 50.5567 76.698 50.163 76.8741C49.6513 77.1479 48.982 77.2261 47.5058 77.2261C46.4232 77.2261 44.6714 77.3044 43.6282 77.4217C42.5653 77.5195 39.1207 77.6369 35.991 77.6956C32.8614 77.7542 29.1412 77.8911 27.724 78.0281C26.0509 78.165 24.1416 78.1845 22.2127 78.0867C20.5789 78.0085 18.8074 77.9303 18.2366 77.9303C17.6855 77.9107 17.154 77.8325 17.0556 77.7542C16.9769 77.676 16.5635 77.6173 16.1502 77.6173C15.7565 77.6173 15.166 77.4804 14.8314 77.3239C14.4574 77.1479 14.2606 76.8936 14.3 76.6785C14.3393 76.4242 14.5558 76.3264 15.2841 76.2873C15.8156 76.2678 16.1699 76.17 16.1108 76.0526C16.0518 75.9353 15.6581 75.857 15.2251 75.857C14.733 75.857 14.4377 75.7592 14.4377 75.6027C14.4181 75.4854 14.5362 75.2702 14.6739 75.1333C14.8117 75.016 15.1463 74.8791 15.4219 74.8399C15.8353 74.8008 15.914 74.6835 15.8549 74.1945C15.8353 73.862 15.7172 73.0796 15.5991 72.4342C15.4613 71.7888 15.3235 70.0676 15.2841 68.6202C15.2448 67.1728 15.1267 65.882 15.0479 65.7842C14.9692 65.6668 14.8905 63.2219 14.8511 60.3077C14.8314 57.3934 14.7724 54.6356 14.6936 54.1466C14.6346 53.6576 14.6346 51.4866 14.8314 45.3451L15.4613 45.3842C16.0715 45.4428 16.1108 45.4037 16.1699 44.7583C16.2092 44.3867 16.347 43.9564 16.4651 43.8195C16.6029 43.6825 16.8194 43.5652 16.9375 43.5847C17.1147 43.5847 17.1934 43.9368 17.1934 45.7362H17.9807C18.4138 45.7362 18.8074 45.6384 18.8665 45.5406C18.9255 45.4233 19.4964 45.3451 20.1459 45.3451C20.7955 45.3451 21.5631 45.2473 21.8584 45.1299C22.1733 45.0126 23.9251 44.8365 25.7557 44.7192C27.5862 44.6214 30.519 44.4649 32.2512 44.3671C33.9833 44.2889 37.8412 44.1128 40.8134 44.015C43.7856 43.8977 47.5648 43.7021 49.1789 43.5847C51.7574 43.3892 52.1707 43.3305 52.3872 42.9784C52.5447 42.7828 52.7415 42.6459 52.8596 42.7046ZM53.2336 50.7238C53.3124 50.2935 53.4108 49.0417 53.4108 47.9464C53.4305 46.7924 53.3714 45.9123 53.2533 45.834C53.1352 45.7558 53.0565 46.7337 53.0565 48.6114C53.0565 50.6455 53.1155 51.2714 53.2336 50.7238ZM45.813 46.3426C42.8999 46.4599 39.3175 46.6164 37.8609 46.6751L35.2037 46.812C35.2037 47.9464 35.2234 49.5307 35.2627 51.0563L35.3021 53.8532C43.6478 53.8532 46.3641 53.951 47.5058 54.1075C48.5293 54.2444 49.9662 54.4008 50.7142 54.4595L52.0329 54.5378C51.9345 46.6164 51.8952 46.0296 51.6196 45.9709C51.4621 45.9514 51.285 45.9709 51.2259 46.0296C51.1669 46.0883 48.7261 46.2448 45.813 46.3426ZM20.2837 47.2032L17.1934 47.1054C17.1737 48.5527 17.1737 50.2739 17.1934 51.8973C17.2131 53.5011 17.2721 54.8703 17.3509 54.9289C17.4296 54.9876 19.2602 54.9681 21.4253 54.8898C23.5905 54.8116 26.5036 54.6551 27.9208 54.5573C29.3184 54.44 31.1292 54.2835 31.9362 54.2053C32.7236 54.127 33.4125 53.951 33.4519 53.8532C33.4912 53.7358 33.6093 52.2494 33.7077 50.5282C33.8652 48.142 33.8455 47.3401 33.6684 47.1445C33.5306 47.0076 33.3338 46.9098 33.2353 46.9293C33.1172 46.9489 30.8733 47.0467 28.2161 47.1445C25.5588 47.2423 21.9961 47.2618 20.2837 47.2032ZM35.4399 55.9656C35.3808 56.1025 35.2824 58.117 35.2234 60.4446L35.1053 64.7084C49.0017 64.6302 52.0526 64.5324 52.0723 64.415C52.1117 64.2977 52.1117 62.3418 52.0723 60.0534L52.0329 55.9069C50.8519 55.5939 47.6239 55.5353 43.4707 55.5353C39.5734 55.5548 36.1878 55.6135 35.9713 55.6526C35.7351 55.7113 35.4989 55.8482 35.4399 55.9656ZM17.1934 65.0996C25.362 64.9431 28.9837 64.8453 30.519 64.8062L33.3338 64.7084C33.4125 58.6451 33.4322 56.6892 33.4322 56.435C33.4322 56.0242 33.3731 56.0047 31.6607 56.0047C30.6765 56.0242 28.7279 56.122 27.3303 56.2589C25.9131 56.3959 23.6692 56.4937 22.3111 56.4937C20.9529 56.4741 19.4964 56.3959 19.0633 56.3176C18.6303 56.2198 18.0398 56.0829 17.7642 56.0047L17.2525 55.8678L17.1934 65.0996ZM42.8015 66.0775C36.739 66.1558 35.4989 66.2145 35.2234 66.4687C34.9281 66.723 34.8887 67.212 34.8887 70.4196L34.9084 74.0967C37.113 74.2532 40.4591 74.3901 43.7659 74.4879C47.0727 74.6052 50.3795 74.7226 51.1078 74.7422L52.466 74.7813C52.3872 69.4808 52.3282 67.4467 52.2495 66.8599L52.1314 65.7842C50.7338 65.6864 50.2614 65.7255 50.1827 65.8233C50.104 65.9015 46.7775 66.0189 42.8015 66.0775ZM17.2328 68.6398C17.2328 69.9698 17.3312 71.8083 17.4493 72.7276L17.6855 74.3901C19.3586 74.3705 20.697 74.2532 21.7206 74.1358C22.8622 73.9794 25.4604 73.8816 28.4129 73.9011L33.2353 73.9402L33.3338 66.4687C24.1023 66.4687 20.4805 66.41 19.3389 66.3318L17.2525 66.2145L17.2328 68.6398ZM17.843 75.8961C17.7445 75.9744 17.7249 76.0917 17.7839 76.1504C17.8233 76.2091 20.7167 76.2482 24.181 76.2286C27.6453 76.2286 30.8733 76.1504 31.3654 76.0722C32.1331 75.9352 31.9756 75.9157 30.1844 75.7983C29.0428 75.7201 26.6021 75.6419 24.7715 75.6027C22.9213 75.5832 20.6577 75.6028 19.7129 75.6419C18.7681 75.7005 17.9414 75.8179 17.843 75.8961Z" fill="#35211A"/>
</svg>
