<svg width="95" height="89" viewBox="0 0 95 89" fill="none" xmlns="http://www.w3.org/2000/svg">
<path fill-rule="evenodd" clip-rule="evenodd" d="M26.1663 0L26.0885 0.543114C26.0496 0.911657 26.1274 1.10563 26.3803 1.18321C26.5943 1.2608 28.2869 1.20261 30.1545 1.06683C32.0221 0.911657 35.0959 0.756481 36.9636 0.69829C38.8312 0.620702 45.1928 0.659496 51.0681 0.756481C56.9628 0.872863 63.2077 1.04744 64.9781 1.14442C66.7484 1.2608 69.5499 1.49357 71.2035 1.64874C72.8572 1.82331 75.9699 2.07547 78.1099 2.23065C81.0086 2.44402 82.2926 2.63798 83.168 2.92894C83.81 3.1617 84.8995 3.66602 85.5999 4.07336C86.4169 4.53889 87.234 5.23718 87.9149 6.03245C88.4791 6.71134 89.0822 7.52602 89.2573 7.85576C89.4129 8.18551 89.9577 8.96139 90.444 9.60149C90.9304 10.2416 91.4557 11.1145 91.5724 11.5412C91.7086 11.9679 92.0782 13.1899 92.4089 14.2568C92.7202 15.3236 93.0704 16.7202 93.1677 17.3603C93.2844 18.0004 93.4206 19.2224 93.4789 20.0758C93.5568 20.9293 93.7318 22.1125 93.868 22.6944C94.0042 23.2763 94.2182 24.7699 94.3544 25.9919C94.4711 27.2139 94.6657 29.0566 94.8018 30.0653C94.9575 31.3067 95.0158 34.9145 94.9964 41.2185C94.9769 46.3393 94.8602 51.7899 94.7629 53.3416C94.6462 54.8934 94.4517 58.5012 94.3349 61.3913C94.1598 65.3871 94.0237 66.9001 93.7708 67.7923C93.5762 68.4324 93.3622 69.6932 93.2844 70.6049C93.2066 71.5166 93.0315 72.9907 92.8953 73.9024C92.7591 74.814 92.4478 76.2494 92.2144 77.1029C91.9615 77.9563 91.5919 79.0426 91.3584 79.5275C91.1444 80.0124 90.4246 80.9629 89.7631 81.6612C89.0822 82.3788 88.0706 83.1935 87.4286 83.5427C86.806 83.8724 85.5415 84.4155 84.6271 84.7259C83.7128 85.0362 82.137 85.4824 81.1253 85.6957C80.1137 85.9091 78.3628 86.2 77.2344 86.3164C76.1061 86.4328 74.8026 86.6268 74.3162 86.7432C73.8299 86.8401 72.8766 87.0147 72.1762 87.1117C71.4759 87.2087 69.8222 87.3833 68.4799 87.4802C67.1375 87.5772 61.6708 87.7906 56.3208 87.9458C49.0643 88.1591 45.9321 88.1785 43.9672 88.0428C41.7883 87.8682 41.1074 87.8876 39.979 88.1203C39.2398 88.2755 37.8779 88.5083 36.9636 88.6441C36.0492 88.7604 33.4812 88.9156 31.2245 88.9738C28.7343 89.032 26.3803 88.9932 25.1936 88.8574C24.1236 88.741 22.3727 88.4307 21.3027 88.1785C19.8825 87.8294 18.5402 87.6742 16.2834 87.5966C14.1045 87.519 13.0734 87.4027 12.7038 87.1893C12.3925 87.0341 12.0229 86.8014 11.8673 86.7044C11.7116 86.6074 11.1474 86.3164 10.6027 86.0837C10.0774 85.8509 9.12417 85.3078 8.48217 84.8617C7.85962 84.4349 6.77017 83.4845 6.05035 82.728C5.33054 81.9715 4.45508 80.9241 4.08545 80.4004C3.73527 79.8766 3.22945 79.0038 3.01545 78.4607C2.782 77.9369 2.39291 76.4822 2.17891 75.2602C1.94545 74.0382 1.67309 71.8463 1.53691 70.4109C1.42018 68.9756 1.24509 66.4346 1.16727 64.7858C1.07 63.1371 0.953271 61.4301 0.875453 61.0034C0.797635 60.5767 0.680908 52.7015 0.622544 43.5074C0.505817 30.4144 0.427999 26.729 0.233454 26.535C0.0583635 26.3411 0 25.1772 0 21.8798C0 19.4357 0.0583636 17.4185 0.155636 17.3797C0.233454 17.3409 0.408545 16.5262 0.544726 15.5951C0.680908 14.6447 0.894908 13.4421 0.99218 12.899C1.10891 12.3753 1.42018 11.2308 1.69254 10.3774C1.94545 9.5239 2.41236 8.39888 2.72363 7.85576C3.0349 7.33205 3.73527 6.42039 4.3189 5.85788C4.88308 5.31476 5.62235 4.71346 5.93363 4.55828C6.2449 4.38371 6.63399 4.26733 6.77017 4.26733C6.8869 4.26733 7.02308 4.20914 7.06199 4.13155C7.08144 4.03457 7.62617 3.70482 8.26817 3.35567C8.91017 3.00653 10.1358 2.50221 10.9918 2.23065C12.0423 1.8815 13.2874 1.66814 14.8827 1.55176C16.1667 1.45477 17.6647 1.2802 18.19 1.16382C18.7347 1.04744 19.7463 0.853466 20.4856 0.717687C21.2832 0.581909 21.7891 0.387939 21.7891 0.25216C21.7891 0.0581907 22.3532 0 26.1663 0ZM58.8499 2.26944C59.8032 2.25005 58.9277 2.21125 56.9045 2.21125C54.8812 2.21125 54.0835 2.25005 55.1535 2.26944C56.2235 2.30824 57.8966 2.30824 58.8499 2.26944ZM27.0418 3.27808C22.1198 3.29748 19.9214 3.39447 18.7736 3.58844C17.9176 3.74361 16.5947 3.87939 15.8554 3.87939C14.9994 3.87939 14.0267 4.03457 13.2291 4.28673C12.5287 4.51949 10.7778 5.25657 9.33817 5.95486C7.89853 6.65315 6.2449 7.54541 5.68072 7.93335C4.98036 8.39888 4.5329 8.8838 4.29945 9.40752C4.1049 9.83425 3.85199 10.7459 3.71581 11.4442C3.57963 12.1425 3.40454 13.0154 3.30727 13.3839C3.20999 13.7524 3.07381 14.6253 3.01545 15.3236C2.93763 16.0801 2.97654 16.9335 3.11272 17.4573C3.22945 17.9422 3.42399 19.4163 3.52127 20.7547C3.61854 22.0931 3.79363 24.8863 3.91036 26.9618C4.00763 29.0372 4.16327 36.1947 4.26054 42.8673C4.35781 51.4407 4.47454 55.1843 4.63017 55.6692C4.76636 56.0378 4.86363 56.6779 4.86363 57.0852C4.86363 57.4732 4.94145 58.1715 5.03872 58.637C5.13599 59.0831 5.33054 60.3633 5.44726 61.4883C5.56399 62.6134 5.75854 63.9711 5.87526 64.4949C5.99199 65.038 6.14763 66.1242 6.2449 66.9195C6.34217 67.7148 6.49781 68.898 6.59508 69.5381C6.69235 70.1782 6.84799 71.4002 6.96472 72.2536C7.08144 73.1071 7.25653 74.0382 7.37326 74.3485C7.48999 74.6395 7.58726 75.2214 7.58726 75.6481C7.58726 76.0748 7.7429 76.7925 7.9569 77.2581C8.15144 77.7042 8.73508 78.6352 9.26035 79.3141C9.78562 80.0124 10.7389 81.0017 11.3809 81.5254C12.0229 82.0685 13.0151 82.8056 13.5987 83.1935L14.6687 83.8918C19.5129 84.1052 21.614 84.2604 22.47 84.3573C23.326 84.4737 24.6878 84.6483 25.4854 84.7647C26.283 84.8811 27.82 85.0556 28.89 85.1526C29.96 85.2496 31.1856 85.4048 31.6136 85.5212C32.0999 85.6375 39.2203 85.7151 50.0954 85.6957C60.6786 85.6957 68.227 85.6181 68.869 85.5212C69.4526 85.4048 70.7755 85.2496 71.7872 85.1526C72.7988 85.0362 74.433 84.8423 75.3862 84.6871C76.3395 84.5125 77.4484 84.3961 77.8181 84.3961C78.1877 84.3961 78.6351 84.2604 78.7908 84.0858C78.9464 83.9112 79.997 83.4069 81.1253 82.9802C82.2537 82.534 83.6933 82.0685 84.3353 81.9327C84.9773 81.7969 85.7749 81.6806 86.0862 81.6806C86.4948 81.6612 86.8839 81.4672 87.3897 80.9435C87.7788 80.5361 88.2262 79.896 88.3624 79.5275C88.518 79.159 88.8293 78.1115 89.0628 77.1999C89.2768 76.2882 89.588 74.6395 89.7631 73.5144C89.9188 72.3894 90.1522 70.7407 90.2689 69.829C90.3857 68.9174 90.5608 67.6566 90.658 67.0165C90.7553 66.3764 90.9304 65.2901 91.0277 64.5918C91.1444 63.8936 91.3195 62.2448 91.4362 60.9064C91.5724 59.3935 91.5918 55.8826 91.514 51.4989C91.4362 46.6885 91.4557 43.5268 91.6308 41.3155C91.7475 39.5504 91.8642 35.3218 91.8642 31.908C91.8642 27.02 91.7864 25.3906 91.5529 24.2462C91.3779 23.4509 91.1055 22.3647 90.9304 21.8216C90.7553 21.2979 90.5413 20.5414 90.4246 20.1728C90.3273 19.8043 90.1717 19.1448 90.0939 18.7181C89.9966 18.2913 89.7437 17.2827 89.5297 16.4874C89.2962 15.6921 88.8682 14.5089 88.5375 13.8688C88.2068 13.1705 87.5064 12.2589 86.8255 11.6188C86.2029 11.0175 85.094 10.067 84.3353 9.50451C83.5766 8.94199 82.8179 8.41828 82.6233 8.32129C82.4288 8.22431 82.1759 8.22431 82.0008 8.34069C81.7868 8.47647 81.2615 8.3019 79.997 7.6424C78.8686 7.06049 77.8829 6.70488 77.0399 6.57557C76.3395 6.45918 74.2384 6.26521 72.3708 6.12944C70.5032 5.99366 68.8301 5.81909 68.6744 5.7221C68.5188 5.64451 65.7952 5.50873 62.6435 5.43115C59.0639 5.33416 56.6905 5.19838 56.3208 5.04321C56.0095 4.92683 55.1341 4.73286 54.3754 4.63587C53.6166 4.53889 50.5234 4.32552 47.469 4.18974C42.6443 3.93758 41.691 3.8406 40.1152 3.41386C38.909 3.06472 37.8974 2.90954 37.0025 2.92894C36.2827 2.94834 35.2516 3.02592 34.7263 3.10351C34.1816 3.2005 30.7381 3.27808 27.0418 3.27808ZM58.7526 3.76301C59.453 3.85999 61.807 3.95698 64.0053 3.97637C66.9624 3.99577 68.4021 4.11215 69.5499 4.36431C70.6782 4.59708 71.6121 4.67467 72.9544 4.59708C73.9661 4.55828 75.0166 4.57768 75.289 4.65527C75.5613 4.75225 76.6119 5.00441 77.6235 5.23718C78.6351 5.46994 79.8219 5.78029 80.2499 5.91607C80.6779 6.05185 81.6895 6.47858 82.4871 6.84712C83.2848 7.23506 84.1797 7.70059 84.4715 7.89456C84.7633 8.08853 85.0746 8.18551 85.1524 8.10793C85.2302 8.03034 84.9384 7.54541 84.5104 7.04109C83.9657 6.42039 83.2264 5.87728 82.2731 5.39235C81.4755 5.00441 80.386 4.61647 79.8608 4.53889C79.3161 4.4613 78.1877 4.38371 77.3317 4.36431C76.4757 4.34492 75.1722 4.24793 74.4135 4.11215C73.6548 3.99577 71.865 3.8018 70.4253 3.70482C68.9857 3.58844 65.7757 3.45266 63.3244 3.41386C60.8732 3.35567 58.5386 3.39447 58.169 3.47205C57.527 3.60783 57.5659 3.62723 58.7526 3.76301ZM85.1135 6.20702C85.4248 6.53677 86.0473 7.46783 86.4753 8.2631C86.9033 9.03898 87.9149 10.4744 88.7126 11.4248C89.5102 12.3753 90.23 13.1705 90.3079 13.1705C90.4051 13.1899 90.3662 12.8214 90.2689 12.3753C90.1522 11.9097 89.802 11.192 89.4713 10.7653C89.16 10.3386 88.6542 9.60149 88.3624 9.13596C88.0706 8.67044 87.4286 7.79757 86.9422 7.19627C86.4559 6.59496 85.6193 5.81908 85.094 5.48934C84.5688 5.14019 83.9657 4.84924 83.7517 4.84924C83.4404 4.84924 83.4599 4.90743 83.9462 5.21778C84.2575 5.41175 84.8022 5.85788 85.1135 6.20702ZM2.10109 54.0205C2.25672 55.2813 2.27618 54.9322 2.19836 52.0808C2.14 50.1605 2.08163 42.9255 2.02327 35.9813C1.98436 29.0566 1.90654 23.3345 1.84818 23.2763C1.78982 23.2181 1.77036 29.7743 1.82872 37.8241C1.86763 45.8738 2.00381 53.167 2.10109 54.0205ZM4.20217 64.2039C4.27999 64.9022 4.35781 65.8139 4.39672 66.2406C4.43563 66.6673 4.57181 67.4626 4.68854 67.9863C4.82472 68.5294 5.07763 69.4799 5.29163 70.12L5.64181 71.2838C5.48617 69.1695 5.36945 68.0057 5.27217 67.3074C5.19435 66.6091 5.01926 65.5617 4.90254 64.9798C4.78581 64.3979 4.59127 63.3892 4.49399 62.7491C4.37727 62.109 4.27999 61.2168 4.27999 60.7706C4.27999 60.3051 4.20217 59.9366 4.08545 59.9366C3.96872 59.9366 3.92981 60.5185 3.98818 61.4495C4.04654 62.2642 4.14381 63.5056 4.20217 64.2039ZM3.13218 71.4778C3.19054 72.661 3.30727 73.883 3.36563 74.1933C3.44345 74.5037 3.59909 75.299 3.71581 75.9391C3.83254 76.5792 4.20218 77.6266 4.51345 78.2667C4.82472 78.9068 5.29163 79.7021 5.54454 80.0124C5.79745 80.3228 6.06981 80.5555 6.12817 80.4973C6.18654 80.4392 6.01144 79.9154 5.73908 79.3335C5.46672 78.7516 5.25272 78.1503 5.25272 78.0339C5.25272 77.8982 5.1749 77.6266 5.07763 77.452C4.98036 77.2581 4.80526 76.6761 4.66908 76.133C4.5329 75.6093 4.37727 74.8334 4.33836 74.4455C4.3189 74.0382 4.18272 73.6696 4.08545 73.6114C3.96872 73.5532 3.8909 73.2041 3.8909 72.8355C3.8909 72.467 3.79363 71.9239 3.65745 71.6329C3.54072 71.3226 3.38509 70.5661 3.32672 69.926C3.26836 69.2859 3.17109 68.898 3.11272 69.0531C3.05436 69.2083 3.05436 70.3139 3.13218 71.4778ZM9.82453 84.0664C10.2525 84.2797 10.914 84.7065 11.2836 85.0168C11.6533 85.3272 12.3147 85.6957 12.7427 85.8315C13.1707 85.9479 13.8322 86.0255 14.2018 85.9673L14.8827 85.8897C13.3653 85.0168 12.7427 84.7647 12.4898 84.7647C12.2563 84.7647 11.5171 84.4737 10.8362 84.1246C10.1747 83.7754 9.0658 83.0577 8.36544 82.5146C7.66508 81.9909 7.08144 81.506 7.04253 81.4284C7.02308 81.3314 6.8869 81.2732 6.75072 81.2732C6.63399 81.2926 7.08144 81.8357 7.78181 82.4952C8.48217 83.1547 9.39653 83.8724 9.82453 84.0664ZM82.5844 83.6203C82.4871 83.7172 82.565 83.7948 82.8373 83.7948C83.0708 83.7948 83.2848 83.7172 83.3237 83.6009C83.3626 83.5039 83.5766 83.4069 83.81 83.4069C84.0435 83.4069 84.277 83.3293 84.3159 83.2129C84.3548 83.1159 84.3353 83.0189 84.2575 83.0383C84.1991 83.0383 83.8295 83.1353 83.4599 83.2517C83.0902 83.3487 82.7011 83.5233 82.5844 83.6203ZM17.9954 85.4436C19.7658 86.0061 20.7774 86.1225 21.9252 86.1225C22.9174 86.1225 23.8901 86.0643 24.0652 85.9867C24.2987 85.8962 23.9291 85.7345 22.9563 85.5018C22.1587 85.3078 21.186 85.172 20.8163 85.1914C20.4467 85.2108 19.6491 85.269 19.0654 85.3272L17.9954 85.4436ZM49.4145 15.4594C51.4961 15.4982 53.9085 15.6145 54.7645 15.7309C55.6205 15.8279 56.885 16.0219 57.5854 16.1189C58.2857 16.2352 59.1612 16.4098 59.5308 16.5262C59.9004 16.6426 60.6008 16.9141 61.0872 17.1275C61.5735 17.3409 62.5268 18.0974 63.2272 18.7956C63.9275 19.4939 64.803 20.5996 65.1726 21.2397C65.8146 22.3647 65.8341 22.4811 65.8341 24.3432C65.8341 25.9143 65.7368 26.5156 65.3672 27.4467C65.1143 28.0868 64.6473 28.979 64.3166 29.4446C63.9859 29.9101 63.3634 30.5308 62.9354 30.8412C62.5074 31.1515 61.7681 31.5782 61.2817 31.7916C60.7954 32.005 59.7059 32.3735 58.8499 32.5869C57.9939 32.8002 57.0795 32.9748 56.8072 32.9942C56.5348 32.9942 56.1652 33.0912 55.9901 33.227C55.7955 33.3628 55.6594 33.4985 55.6399 33.5567C55.6399 33.6149 56.0485 33.7313 56.5543 33.8089C57.0795 33.8865 57.8772 34.1386 58.3635 34.3714C58.8499 34.6042 59.6281 35.0503 60.1144 35.38C60.6008 35.6904 61.4179 36.3111 61.9432 36.7378C62.4684 37.184 63.3634 38.1538 63.9081 38.8909C64.4528 39.6474 65.017 40.5978 65.1532 41.0245C65.3672 41.6646 65.3672 42.2272 65.1726 44.225C65.0364 45.5634 64.803 46.96 64.6473 47.3286C64.5112 47.6971 64.3944 48.2014 64.3944 48.4536C64.3944 48.6863 64.2193 49.2683 64.0053 49.7532C63.733 50.3739 63.2855 50.8782 62.4879 51.4601C61.8848 51.9062 61.3401 52.333 61.2817 52.3912C61.2234 52.4688 60.6203 52.6627 59.9199 52.8373C59.2195 53.0119 58.5775 53.2446 58.4803 53.3416C58.3635 53.458 57.2352 53.5356 55.9512 53.5356C54.0641 53.5356 53.3637 53.458 52.4299 53.1282C51.7879 52.9149 50.9514 52.5851 50.5817 52.43C50.2121 52.2554 49.5117 51.8093 49.0448 51.4213C48.5585 51.0334 47.8776 50.2769 47.5274 49.7144C47.1772 49.1519 46.7686 48.7251 46.6325 48.7445C46.4768 48.8027 46.3601 49.4816 46.2628 50.8394C46.185 51.9644 46.2045 53.167 46.3017 53.5356C46.4185 53.9817 46.4185 54.486 46.2823 54.9904C46.1267 55.5335 46.1267 55.999 46.2823 56.5421C46.399 56.9688 46.4963 57.7641 46.4963 58.2878C46.4963 58.831 46.399 60.053 46.2823 61.0034C46.185 61.9733 45.9905 63.3698 45.8737 64.1069C45.7765 64.8634 45.543 65.9108 45.3874 66.4346C45.2123 66.9777 44.687 68.2385 44.2007 69.2471C43.7143 70.2558 43.0917 71.3808 42.8194 71.7493C42.547 72.0985 42.0412 72.5446 41.7299 72.7192C41.3992 72.8743 40.835 73.1459 40.4654 73.2817C40.0568 73.4562 38.9868 73.5532 37.7418 73.5726C36.0881 73.592 35.4656 73.5144 34.4345 73.1459C33.7341 72.9131 32.4696 72.37 31.6136 71.9433C30.7576 71.5166 29.8432 70.9734 29.5709 70.7407C29.2985 70.5079 28.7538 69.829 28.3841 69.2471C27.995 68.6652 27.5087 67.6566 27.2752 67.0165C27.0418 66.3764 26.8472 65.6975 26.8472 65.5229C26.8472 65.3289 26.75 64.9798 26.6138 64.747C26.4776 64.4949 26.2636 63.9905 26.1274 63.622C25.9912 63.2535 25.8745 62.3224 25.8745 61.5465C25.8745 60.3439 25.9523 59.9948 26.3803 59.3159C26.6721 58.8503 27.3141 58.0939 27.8005 57.6089C28.2869 57.124 29.1818 56.4257 29.7654 56.0572C30.349 55.6886 31.5552 55.0291 32.4501 54.6024C33.3256 54.1757 34.0454 53.7877 34.0454 53.7296C34.0454 53.6714 33.5007 53.361 32.8198 53.0119C32.1583 52.6627 31.0494 51.8868 30.3685 51.2661C29.6876 50.6454 28.7927 49.7144 28.4036 49.1713C28.0145 48.6476 27.5476 47.8523 27.353 47.4255C27.139 46.9988 26.8667 46.2035 26.7305 45.641C26.5749 45.0785 26.4581 44.2832 26.4581 43.8953C26.4776 43.488 26.5943 42.6733 26.75 42.0914C26.8861 41.5095 27.1001 40.7724 27.1974 40.4426C27.2947 40.1323 27.7032 39.2594 28.1312 38.5029C28.5398 37.7659 29.3374 36.6796 29.8821 36.0783C30.4463 35.4964 31.2439 34.7981 31.6914 34.5266C32.1194 34.255 32.489 33.9447 32.489 33.8089C32.489 33.6731 32.3529 33.5179 32.1972 33.4597C32.0416 33.4015 31.7109 33.3628 31.4579 33.3628C31.2245 33.3822 30.6798 33.1494 30.2518 32.8584C29.8238 32.5869 29.279 32.1407 29.0261 31.8886C28.7927 31.6364 28.5398 31.4231 28.4425 31.4231C28.3647 31.4231 28.0729 31.2291 27.8005 30.9963C27.5281 30.7442 27.1001 30.1623 26.8472 29.6773C26.6138 29.1924 26.283 28.3583 26.1469 27.7958C25.9912 27.2333 25.8745 26.3992 25.8745 25.9531C25.8745 25.4876 25.9912 24.8087 26.1274 24.4014C26.2441 24.0134 26.4776 23.5867 26.6138 23.4315C26.75 23.2957 26.8472 22.8496 26.8472 22.4617C26.8472 22.0543 26.925 21.5306 27.0223 21.2979C27.1196 21.0457 27.2947 20.5026 27.4309 20.0758C27.567 19.6491 27.995 18.912 28.3841 18.4465C28.7732 17.981 29.3374 17.4573 29.6681 17.3021C29.9794 17.1275 30.6019 16.8753 31.0299 16.7396C31.4579 16.5844 32.2945 16.3904 32.8781 16.274C33.4618 16.1771 34.9014 16.0025 36.0881 15.8861C37.2554 15.7697 39.8818 15.5951 41.9245 15.5176C43.9477 15.44 47.3328 15.4206 49.4145 15.4594ZM46.6519 17.0887C46.8465 28.5717 46.9437 32.0244 46.9827 32.1601C47.0605 32.3347 47.7025 32.3735 49.6479 32.3153C51.0681 32.2571 52.7995 32.1407 53.4999 32.0438C54.2003 31.9468 54.9785 31.7916 55.2508 31.7334C55.5232 31.6558 56.1263 31.5006 56.6126 31.4037C57.099 31.2873 57.8383 31.0545 58.2663 30.8799C58.6943 30.7054 59.6086 30.1817 60.309 29.6967C61.0094 29.2312 61.9432 28.4747 62.4101 28.048C62.877 27.6213 63.4412 26.9036 63.6552 26.4768C63.9859 25.8561 64.0443 25.4488 63.9859 24.3432C63.9081 23.2957 63.7719 22.8108 63.3634 22.1707C63.0715 21.7052 62.2544 20.7353 61.5152 19.9983C60.7759 19.2224 60.0366 18.6405 59.8226 18.6405C59.6086 18.6405 59.3363 18.5629 59.239 18.4659C59.1223 18.3689 58.6554 18.1555 58.169 18.0004C57.6826 17.8258 56.457 17.5542 55.4454 17.3991C54.4337 17.2245 52.7995 17.0693 51.8463 17.0305C50.8736 16.9917 49.3172 16.9917 48.3639 17.0305L46.6519 17.0887ZM40.9712 17.9034C40.5432 18.1943 39.8818 18.6599 39.5121 18.9314C39.123 19.203 38.5978 19.6297 38.3448 19.8625C38.0725 20.0952 37.6834 20.3474 37.4694 20.425C37.2554 20.5026 37.1387 20.6384 37.2165 20.7159C37.3138 20.7935 37.6056 20.7353 37.8974 20.5608C38.1892 20.4056 38.8896 19.9983 39.4538 19.6491C40.0179 19.3 40.5238 19.009 40.5821 19.009C40.621 19.009 41.2241 18.7569 41.8856 18.4659C42.5665 18.1555 43.3057 17.8452 43.5392 17.787C43.7921 17.7094 43.9867 17.5348 43.9867 17.3603C43.9867 17.1663 43.8051 17.0822 43.4419 17.1081C43.1501 17.1081 42.6443 17.1857 42.333 17.2439C42.0023 17.3215 41.3992 17.6124 40.9712 17.9034ZM36.3021 18.4853C35.8741 18.7762 35.0376 19.397 34.4539 19.8819C33.8509 20.3474 33.131 20.8905 32.8392 21.0457C32.5474 21.2009 32.0221 21.6082 31.6719 21.938C31.3218 22.2483 30.9716 22.5199 30.8938 22.5199C30.8159 22.5005 30.4658 22.772 30.1156 23.1212C29.7654 23.4509 29.318 23.8195 29.1234 23.9358C28.9289 24.0522 28.8121 24.285 28.8316 24.4208C28.89 24.6147 29.0845 24.5177 29.5125 24.091C29.8627 23.7419 30.2518 23.4703 30.3879 23.4897C30.5436 23.4897 30.7576 23.3539 30.8743 23.1988C30.991 23.0242 31.5941 22.5587 32.2361 22.1513C32.8587 21.744 33.4618 21.3754 33.5785 21.3172C33.6758 21.2785 34.5318 20.7353 35.4656 20.134C36.3994 19.5133 37.2554 19.009 37.3721 19.009C37.4694 19.009 37.5667 18.9314 37.5667 18.815C37.5667 18.7181 37.7223 18.5823 37.8974 18.5435C38.0919 18.4853 38.6367 18.2331 39.123 17.9616L39.9985 17.4573C38.053 17.4573 37.4888 17.5542 37.3332 17.7288C37.197 17.8646 36.7301 18.2137 36.3021 18.4853ZM33.6563 18.912C33.6758 18.8538 33.345 18.9896 32.9559 19.203C32.5474 19.4357 31.8081 19.8431 31.3218 20.134C30.8354 20.425 30.1545 20.8905 29.8043 21.1427C29.4541 21.4336 29.104 21.9186 28.9872 22.3065C28.89 22.6944 28.8121 23.063 28.8121 23.1406C28.8121 23.2182 29.0456 23.16 29.3374 23.0048C29.6292 22.869 30.4074 22.3453 31.0494 21.8604C31.6914 21.3754 32.5863 20.6771 33.0532 20.328C33.5396 19.9789 34.2789 19.3582 34.7069 18.9702C35.1543 18.5629 35.3683 18.2331 35.2127 18.2331C35.057 18.2331 34.6485 18.4077 34.2789 18.6211C33.9092 18.8344 33.6369 18.9702 33.6563 18.912ZM30.7576 19.3194C30.5436 19.5909 30.4463 19.8237 30.563 19.8819C30.6603 19.9401 30.7576 19.9013 30.7576 19.7849C30.7576 19.6879 31.1078 19.4163 31.5358 19.203C31.9638 18.9896 32.3139 18.7762 32.3139 18.7181C32.3139 18.6793 32.2361 18.6405 32.1583 18.6599C32.0805 18.6599 31.8276 18.7181 31.5941 18.7569C31.3607 18.7956 30.991 19.0478 30.7576 19.3194ZM42.0412 20.1728C41.9828 20.231 41.6716 20.4444 41.3603 20.6578C41.0296 20.8517 40.3292 21.3754 39.8039 21.8216C39.2592 22.2677 38.4227 22.9078 37.9558 23.2181C37.4694 23.5479 36.9441 23.9358 36.7885 24.0716C36.6134 24.2268 36.1465 24.6147 35.7185 24.9251C35.2905 25.2354 34.8236 25.604 34.6874 25.7398C34.5512 25.8949 34.4929 26.0501 34.5512 26.0889C34.5901 26.1471 34.8819 25.9725 35.1738 25.701C35.4656 25.4294 35.8158 25.216 35.9519 25.216C36.0881 25.216 36.2048 25.1578 36.1854 25.0803C36.1854 25.0027 36.4383 24.8087 36.7301 24.6341C37.0219 24.479 37.5278 24.1686 37.8585 23.9358C38.1698 23.7031 38.8701 23.2569 39.4148 22.9466C39.9401 22.6362 40.9128 22.0931 41.5548 21.7246C42.1968 21.3754 42.9556 20.9681 43.2474 20.8129C43.6365 20.6384 43.7921 20.425 43.7921 20.0371C43.7727 19.7461 43.7143 19.3776 43.6365 19.2418C43.5197 19.0478 43.3252 19.1254 42.7999 19.5327C42.4303 19.8237 42.0801 20.1146 42.0412 20.1728ZM36.6912 22.4035C36.5745 22.5393 36.0492 22.8884 35.5239 23.1794C34.9792 23.4897 34.2399 23.9746 33.8703 24.2462C33.4812 24.5371 32.6058 25.1772 31.9249 25.701C31.2245 26.2247 30.3296 26.9618 29.921 27.3303C29.5125 27.7182 29.1818 28.1644 29.1818 28.3195C29.1818 28.4941 29.2985 28.7269 29.4347 28.8627C29.5709 28.9984 29.8432 29.0566 30.0183 28.9984C30.2129 28.9596 30.3685 28.8239 30.3685 28.7075C30.3685 28.6105 31.1661 27.8346 32.1389 27.02C33.1116 26.1859 34.3761 25.1191 34.9403 24.6341C35.5045 24.1686 36.4578 23.3733 37.0803 22.8884C37.6834 22.4229 38.4616 21.7828 38.7923 21.4918C39.1425 21.2009 39.3176 20.9681 39.2203 20.9681C39.1036 20.9875 38.5394 21.2591 37.9558 21.5888C37.3527 21.9186 36.7885 22.2871 36.6912 22.4035ZM32.4501 22.772C32.0416 23.0048 31.7109 23.2569 31.7303 23.3345C31.7303 23.4121 31.5941 23.4703 31.4385 23.4703C31.2634 23.4703 30.8159 23.7613 30.4269 24.1104C30.0572 24.4596 29.5514 24.8281 29.318 24.9445C29.0845 25.0415 28.89 25.3324 28.851 25.5652C28.8316 25.7979 28.89 25.9725 28.9872 25.9531C29.0845 25.9143 29.8821 25.3324 30.7576 24.6341C31.633 23.9552 32.6447 23.1018 33.0338 22.7526C33.4034 22.4035 33.7925 22.1125 33.8898 22.1125C33.987 22.1125 34.0649 22.0349 34.0649 21.9186C34.0649 21.8216 33.987 21.7246 33.8898 21.7246C33.7925 21.7246 33.5979 21.8798 33.4423 22.0349C33.3061 22.2095 32.8587 22.5393 32.4501 22.772ZM42.0412 22.8884C41.9828 22.9466 41.5938 23.2569 41.1658 23.5673C40.7378 23.897 40.1152 24.3238 39.7845 24.5371C39.4538 24.7505 38.7923 25.2548 38.3254 25.6622C37.839 26.0501 37.2943 26.5156 37.0803 26.6708C36.7885 26.8842 36.769 26.9618 36.983 26.9618C37.1387 26.9618 37.5667 26.7096 37.9558 26.3799C38.3254 26.0695 38.695 25.7979 38.7728 25.7979C38.8507 25.7979 39.2008 25.604 39.551 25.3324C39.9012 25.0803 40.621 24.6729 41.1658 24.4014C41.691 24.1492 42.5081 23.7225 42.9556 23.4703C43.5392 23.1406 43.7921 22.8496 43.8116 22.5587C43.8116 22.3259 43.7337 22.0931 43.6365 22.0543C43.5392 21.9961 43.1501 22.1319 42.7999 22.3647C42.4303 22.5974 42.0801 22.8302 42.0412 22.8884ZM40.1347 25.7979C40.0179 25.7979 39.7456 25.9725 39.551 26.2053C39.3759 26.4186 39.1425 26.5932 39.0647 26.5932C38.9868 26.5738 38.3838 26.9812 37.7028 27.4855C37.0414 27.9898 36.127 28.7075 35.6796 29.0954C35.2321 29.464 34.5901 30.0071 34.2399 30.2592C33.9092 30.5308 33.4034 30.8799 33.131 31.0351C32.8587 31.2097 32.6058 31.4425 32.5669 31.5782C32.5279 31.714 32.7614 31.9468 33.0921 32.102C33.4034 32.2765 33.9092 32.3735 34.201 32.3541C34.5901 32.3153 34.7458 32.1601 34.8625 31.714C34.9598 31.3649 35.5045 30.6666 36.2438 29.9683C36.9247 29.3282 38.2087 28.2032 39.0841 27.4467C39.9596 26.7096 41.0101 25.8173 41.4187 25.4682C41.8077 25.1191 42.0412 24.8475 41.9439 24.8475C41.8272 24.8475 41.4381 25.0609 41.0685 25.3324C40.6794 25.5846 40.2708 25.7979 40.1347 25.7979ZM41.7494 26.2635C41.6521 26.3992 40.9323 26.9812 40.193 27.5825C39.4343 28.1838 38.3059 29.2118 37.6639 29.8519C37.0219 30.5114 36.5745 31.0351 36.6912 31.0351C36.7885 31.0157 37.2359 30.783 37.6834 30.492C38.1308 30.2011 39.1425 29.5416 39.9207 29.0372C40.7183 28.5135 41.8272 27.854 42.4303 27.5631C43.0139 27.2721 43.5587 26.8648 43.6559 26.6514C43.7337 26.4574 43.7532 26.0113 43.7143 25.6622C43.6559 25.313 43.5587 25.0415 43.4614 25.0415C43.3641 25.0415 42.9945 25.2742 42.6248 25.5264C42.2747 25.7979 41.8661 26.1277 41.7494 26.2635ZM35.9519 26.1859C35.8158 26.1859 35.3099 26.4962 34.843 26.8648C34.3567 27.2333 33.5785 27.8152 33.1116 28.1644C32.6252 28.5329 31.8859 29.1342 31.4579 29.5222C30.777 30.1235 30.6992 30.298 30.8743 30.589C30.991 30.783 31.205 30.9575 31.3607 30.9963C31.4969 31.0157 31.8859 30.6472 32.2167 30.1623C32.5279 29.6773 33.4034 28.7851 34.1621 28.1838C34.9014 27.5825 35.7574 26.8454 36.0492 26.535C36.341 26.2441 36.5939 25.9531 36.5939 25.8949C36.5939 25.8561 36.4967 25.7979 36.3994 25.7979C36.2827 25.7979 36.2049 25.8949 36.2049 25.9919C36.2049 26.1083 36.0881 26.1859 35.9519 26.1859ZM41.0685 29.076C40.1541 29.6579 39.2592 30.2398 39.1036 30.3562C38.9285 30.4726 38.3448 30.8993 37.8001 31.3261C37.2554 31.7528 36.8079 32.2183 36.7885 32.3541C36.7885 32.5287 37.1776 32.5869 38.1114 32.5869H39.4538C42.6637 29.367 43.5976 28.2614 43.5976 28.0868C43.5976 27.8928 43.5781 27.757 43.5392 27.757C43.5197 27.7764 43.3252 27.8346 43.1112 27.8928C42.8972 27.9316 41.9634 28.4747 41.0685 29.076ZM61.2428 30.2204C61.0677 30.4144 60.951 30.5696 61.0094 30.6084C61.0483 30.6278 61.379 30.492 61.7292 30.2786C62.0794 30.0847 62.5463 29.7355 62.7603 29.5028C62.9743 29.2894 63.091 29.076 63.0326 29.0372C62.9743 28.9984 62.6241 29.173 62.2544 29.4446C61.8848 29.6967 61.4374 30.0459 61.2428 30.2204ZM42.6637 30.3174C42.2163 30.8218 41.8856 31.3067 41.9439 31.3843C41.9828 31.4619 42.1774 31.4425 42.3719 31.3455C42.5665 31.2485 42.8388 31.1515 43.0139 31.1127C43.1696 31.0739 43.3641 30.9769 43.4614 30.8993C43.5392 30.8218 43.5781 30.4532 43.5587 30.0847L43.5003 29.4058L42.6637 30.3174ZM42.6832 32.3541C42.7416 32.4899 42.975 32.5869 43.189 32.5869C43.5003 32.5869 43.5781 32.4511 43.5781 32.005C43.5781 31.6946 43.5392 31.4231 43.5003 31.4231C43.4614 31.4231 43.2279 31.5782 42.9945 31.7722C42.7416 31.9468 42.6054 32.2183 42.6832 32.3541ZM51.9046 34.5654C51.9241 34.643 51.8074 34.7205 51.6517 34.7205C51.4961 34.7205 51.3599 34.8175 51.3599 34.9145C51.3599 35.0309 51.4377 35.1085 51.5155 35.1085C51.5934 35.1279 51.9241 34.9921 52.2354 34.8369C52.6439 34.6236 53.4026 34.5266 54.7645 34.5266C55.8345 34.546 56.671 34.4878 56.6126 34.449C56.5543 34.3908 55.9706 34.3132 55.2897 34.2938C54.6088 34.255 54.0057 34.1774 53.9668 34.0998C53.9279 34.0223 53.6555 33.9447 53.3637 33.9641C53.0719 33.9641 52.605 34.061 52.3521 34.1774C52.0797 34.2938 51.8852 34.4684 51.9046 34.5654ZM46.7492 34.352C46.5547 37.0482 46.5741 37.9598 46.6519 38.115C46.7492 38.3478 46.9243 38.212 47.3134 37.5913C47.6052 37.1258 48.3834 36.2335 49.0254 35.5934C49.6479 34.9533 50.1343 34.3714 50.0954 34.2938C50.037 34.2162 49.7646 34.158 49.4728 34.1774C49.181 34.1968 48.4417 34.255 47.8386 34.2938L46.7492 34.352ZM31.7303 35.8262C31.4969 36.0589 31.3218 36.3111 31.3218 36.3693C31.3218 36.4081 31.7498 36.1947 32.2556 35.8844C32.7614 35.574 33.4423 35.2637 33.7536 35.1861C34.0843 35.1085 34.415 35.0115 34.4929 34.9727C34.5707 34.9339 34.5901 34.7787 34.5318 34.6236C34.4734 34.449 34.2789 34.3326 34.1038 34.3326C33.9092 34.352 33.3839 34.5848 32.9365 34.8757C32.489 35.1667 31.9443 35.5934 31.7303 35.8262ZM38.3254 36.9318C37.7418 37.4943 37.1192 38.0956 36.9636 38.2896C36.769 38.5223 36.996 38.4512 37.6445 38.0762C38.1892 37.7853 38.7145 37.5331 38.8118 37.5137C38.9285 37.4943 39.3176 37.2615 39.6872 36.99C40.0568 36.699 40.4459 36.4663 40.5238 36.4663C40.6016 36.4663 41.0879 36.2529 41.5938 36.0007C42.1774 35.7098 42.6248 35.5934 42.7999 35.6904C42.9945 35.7874 43.0334 35.9619 42.9556 36.1559C42.8777 36.3111 42.3525 36.8154 41.7883 37.2421C41.2241 37.6689 40.3681 38.3284 39.8818 38.7163C39.3954 39.1043 38.8701 39.4728 38.7145 39.5698C38.5588 39.6474 38.5005 39.7831 38.5783 39.8413C38.6561 39.8995 39.2008 39.6668 39.8039 39.3176C40.3876 38.9685 41.1074 38.5611 41.3992 38.406C41.691 38.2314 41.9634 38.0568 42.0217 38.018C42.0801 37.9598 42.4497 37.7465 42.8583 37.5331C43.5781 37.1452 43.5976 37.1258 43.5781 36.0201C43.5781 35.2055 43.5003 34.8757 43.2863 34.8175C43.1307 34.7593 42.5276 34.7205 41.9634 34.7205C41.0879 34.7205 40.7961 34.8175 40.1541 35.3024C39.7456 35.6322 38.909 36.3693 38.3254 36.9318ZM51.0097 37.1064C50.6596 37.4361 50.1148 38.1538 49.8036 38.6969C49.5117 39.2206 49.0254 40.3651 48.7336 41.2185C48.2666 42.5957 48.2083 42.9642 48.3056 44.516C48.3639 45.4665 48.539 46.5527 48.6752 46.9406C48.8308 47.3092 49.0837 47.8717 49.2588 48.2014C49.4145 48.5118 49.8619 49.0355 50.2121 49.3652C50.5817 49.695 51.6323 50.2381 52.5855 50.5679C54.103 51.1304 54.5115 51.2079 56.3792 51.2079C57.527 51.2079 58.7721 51.111 59.1417 50.9752C59.5114 50.8588 60.2312 50.4321 60.7175 50.0441C61.2234 49.6756 61.8264 49.0549 62.0988 48.6863C62.3517 48.2984 62.8186 47.251 63.1104 46.3587C63.5968 44.9039 63.6552 44.4772 63.5773 42.9642C63.519 41.684 63.3828 41.0052 63.091 40.4426C62.877 40.0159 62.3128 39.24 61.8459 38.7163C61.2623 38.0762 60.5035 37.5331 59.4335 37.0094C58.5775 36.602 57.5659 36.1947 57.1963 36.1365C56.8266 36.0783 56.1846 35.9232 55.7955 35.768C55.387 35.6128 54.7255 35.4964 54.3365 35.4964C53.9279 35.4964 53.1692 35.7098 52.6245 35.9813C52.0992 36.2529 51.3599 36.7572 51.0097 37.1064ZM31.8665 38.406C31.3607 38.9879 30.991 39.4922 31.0299 39.5116C31.0883 39.531 31.3218 39.4534 31.5747 39.337C31.8081 39.2206 32.2167 38.9491 32.489 38.7551C32.7614 38.5417 33.5785 37.9404 34.2983 37.4167C35.0181 36.893 35.6796 36.4663 35.7574 36.4663C35.8352 36.4663 36.0492 36.2917 36.2438 36.0783C36.4967 35.8068 36.5161 35.6904 36.341 35.7098C36.2049 35.7098 35.3489 36.0977 34.4345 36.5439C33.1894 37.1646 32.5474 37.6301 31.8665 38.406ZM33.7536 38.6387C33.4423 38.9103 32.8976 39.2594 32.5474 39.434C32.1972 39.6086 31.9054 39.8219 31.9054 39.8995C31.9054 39.9771 31.3801 40.4038 30.7187 40.8306C30.0767 41.2573 29.4152 41.8004 29.2596 42.0332C29.1234 42.266 28.9872 42.7121 28.9872 43.003C28.9872 43.294 29.065 43.6431 29.1429 43.7789C29.2401 43.9535 29.8627 43.5268 31.1272 42.4211C32.1389 41.5483 33.3256 40.462 33.7536 40.0353C34.1816 39.6086 35.1932 38.6969 35.9908 37.9986C36.7885 37.3197 37.5472 36.6408 37.6834 36.5051C37.8196 36.3693 37.9363 36.2141 37.9363 36.1753C37.9363 36.1171 37.8779 36.0783 37.7807 36.0783C37.7028 36.0783 36.8858 36.5439 35.9908 37.1258C35.0765 37.7077 34.0843 38.3866 33.7536 38.6387ZM37.4305 39.1818C36.9052 39.434 35.8158 40.1129 35.0181 40.6754C34.2205 41.2379 33.3839 41.8586 33.1699 42.0526C32.9559 42.2466 32.3918 42.6733 31.9054 43.003C31.419 43.3328 30.7187 43.9147 30.349 44.3026C29.9794 44.6906 29.5709 45.0009 29.4347 45.0009C29.2985 45.0009 29.1818 45.0591 29.1818 45.1367C29.1818 45.2143 29.2596 45.3889 29.3374 45.544C29.4347 45.738 29.7849 45.6022 30.7381 45.0009C31.4385 44.5742 32.0221 44.1281 32.061 44.0311C32.0805 43.9147 32.5669 43.488 33.131 43.0806C33.6952 42.6733 34.2789 42.2078 34.4345 42.072C34.5901 41.9168 35.4267 41.2767 36.2827 40.6366C37.1387 39.9965 38.1308 39.24 38.481 38.9297C38.8312 38.6387 39.0452 38.3478 38.9674 38.2896C38.8896 38.2314 38.7534 38.1926 38.695 38.1926C38.6172 38.1926 38.5199 38.309 38.4616 38.4448C38.4032 38.5805 37.9363 38.9103 37.4305 39.1818ZM42.0023 39.8801C41.1852 40.6172 40.0763 41.5871 39.5121 42.0332C38.9674 42.4793 38.5199 42.9642 38.5199 43.1C38.5394 43.2746 38.6172 43.2552 38.8507 43.0418C39.0063 42.8867 39.2398 42.6927 39.3759 42.6151C39.4927 42.5375 40.0763 42.169 40.6599 41.781C41.2436 41.4125 42.0996 40.947 42.5665 40.7336C43.0139 40.5202 43.4419 40.2293 43.5003 40.0935C43.5587 39.9577 43.5781 39.5504 43.5392 39.2012L43.4808 38.5417L42.0023 39.8801ZM38.5394 41.1215C38.481 41.1603 37.3916 41.9168 36.1465 42.7703C34.9014 43.6237 33.5396 44.5548 33.131 44.8457C32.7225 45.1561 31.8665 45.7768 31.2245 46.2423C30.5825 46.6885 30.0378 47.2316 30.0183 47.4449C29.9794 47.6389 30.1545 48.0268 30.4074 48.2984C30.6409 48.5506 31.1661 49.0549 31.5747 49.404L32.2945 50.0441C33.7341 48.7057 34.7847 47.7359 35.5629 47.0376C36.341 46.3393 37.0608 45.7768 37.1581 45.7768C37.2748 45.7768 37.3527 45.6798 37.3527 45.5828C37.3527 45.4665 37.2943 45.3889 37.2165 45.3889C37.1387 45.3695 36.8468 45.5828 36.5745 45.8156C36.3021 46.0678 35.699 46.5527 35.2127 46.8824C34.7263 47.2316 33.8119 47.8523 33.1699 48.2984C32.3723 48.8221 31.9443 49.0161 31.8081 48.8803C31.6784 48.7381 31.6784 48.5118 31.8081 48.2014C31.9249 47.9493 33.4423 46.4169 35.2127 44.7876C36.983 43.1776 38.7339 41.5483 39.1036 41.1797C39.4732 40.8306 39.6872 40.5396 39.5899 40.5396C39.4927 40.5396 39.2203 40.656 39.0258 40.7724C38.8118 40.9082 38.5783 41.0633 38.5394 41.1215ZM41.3214 43.391C41.2825 43.5268 41.7494 43.391 42.4108 43.0612C43.3836 42.5763 43.5781 42.3823 43.5781 41.9944C43.5781 41.7228 43.5392 41.5095 43.5003 41.5095C43.4419 41.5095 42.9556 41.878 42.3914 42.3241C41.8272 42.7703 41.3408 43.2552 41.3214 43.391ZM38.4032 46.9212C37.7807 47.3867 36.9441 48.0462 36.555 48.376C36.1659 48.7057 35.4656 49.2489 34.9987 49.5786C34.5318 49.9084 33.9481 50.2381 33.7147 50.2963C33.4618 50.3739 33.3061 50.4903 33.345 50.5679C33.3839 50.6454 33.5979 50.7812 33.8314 50.8588C34.1621 50.9752 34.4539 50.82 35.2127 50.1799C35.7379 49.7338 36.5356 49.0355 37.0025 48.6475C37.4694 48.279 38.1892 47.7165 38.6172 47.4255C39.0452 47.1346 39.8234 46.5139 40.3292 46.0484C40.835 45.5634 41.2436 45.1367 41.2436 45.0979C41.2436 45.0397 41.1852 45.0009 41.1074 45.0009C41.0296 45.0009 40.6405 45.2531 40.2514 45.5246C39.8623 45.8156 39.0258 46.4363 38.4032 46.9212ZM38.7145 49.2489C38.1308 49.695 37.2359 50.3933 36.7107 50.7812C36.1659 51.1885 35.7963 51.6153 35.8352 51.7899C35.8936 52.0032 36.1854 52.0808 36.9636 52.0808C37.9363 52.0808 38.0336 52.0226 38.0919 51.6347C38.1114 51.3631 38.7145 50.6842 39.6288 49.889C40.4459 49.1713 41.6521 48.085 42.2941 47.4643C42.9556 46.863 43.3447 46.3587 43.189 46.3587C43.0334 46.3587 42.1968 46.8242 41.3408 47.3867C40.4848 47.9493 39.2981 48.7833 38.7145 49.2489ZM41.6521 49.2683C41.6521 49.307 41.9634 49.2295 42.333 49.0743C42.7027 48.8997 42.9945 48.7057 42.9945 48.6282C42.9945 48.5506 43.1307 48.4924 43.2863 48.4924C43.4808 48.4924 43.5781 48.2984 43.5781 48.0075C43.5781 47.7359 43.5392 47.5225 43.4614 47.5225C43.403 47.5225 42.975 47.8911 42.5081 48.3372C42.0217 48.7833 41.6521 49.2101 41.6521 49.2683ZM41.4381 50.7812C41.2825 50.9364 40.9712 51.1304 40.7572 51.2273C40.5432 51.3243 40.1541 51.5377 39.8818 51.6929L39.3954 51.9644C40.7378 51.9838 41.1074 51.7705 42.2357 50.8588C42.975 50.2381 43.5976 49.7144 43.5976 49.695C43.5781 49.6756 43.4808 49.6562 43.3447 49.6562C43.2085 49.6562 42.7805 49.8502 42.4108 50.0829C42.0412 50.3157 41.5937 50.626 41.4381 50.7812ZM42.4108 51.9838C43.3252 51.9838 43.6365 51.848 43.7337 51.6735C43.8116 51.5183 43.7921 51.3049 43.6754 51.2079C43.5392 51.0916 43.2668 51.2079 42.9361 51.4989L42.4108 51.9838ZM38.8118 54.8158C38.1698 54.874 37.2943 54.9904 36.8663 55.0873C36.4383 55.1843 35.5239 55.3589 34.8236 55.4947C34.1232 55.6305 32.917 56.0572 32.1194 56.4257C31.0883 56.93 30.4658 57.3956 29.8821 58.0939C29.4347 58.637 28.9483 59.4517 28.8121 59.9366C28.676 60.4215 28.4814 61.081 28.4036 61.3913C28.3063 61.7211 28.1312 62.4582 28.0145 63.0401C27.8783 63.622 27.7616 64.2815 27.7616 64.4949C27.7616 64.7082 27.9561 65.2707 28.1896 65.7557C28.4425 66.2406 29.0456 67.1522 29.532 67.7923C30.0183 68.4324 30.9132 69.4217 31.5163 69.9842C32.3723 70.7989 32.7614 71.0122 33.4618 71.1286C33.9481 71.1868 35.485 71.2062 36.8663 71.148C39.123 71.0898 39.5121 71.0122 40.3681 70.5661C40.9128 70.2945 41.7688 69.6351 42.2747 69.1307C42.975 68.3936 43.2863 67.8699 43.617 66.8225C44.0061 65.6199 44.0645 64.9604 44.1228 61.1974C44.1617 58.8503 44.1423 56.4839 44.0839 55.9214C44.0061 55.2231 43.8699 54.8352 43.6365 54.7188C43.4419 54.6218 42.9361 54.486 42.5081 54.4472C42.0801 54.3891 41.3408 54.4278 40.8545 54.5248C40.3681 54.6218 39.4538 54.7576 38.8118 54.8158Z" fill="#35211A"/>
</svg>
