<svg width="69" height="92" viewBox="0 0 69 92" fill="none" xmlns="http://www.w3.org/2000/svg">
<path fill-rule="evenodd" clip-rule="evenodd" d="M15.6187 0.026958C16.5439 0.0856348 20.6183 0.202988 24.6731 0.300783C28.905 0.398578 32.389 0.55505 32.8417 0.672403C33.2944 0.809316 35.2824 0.907111 37.4279 0.907111C39.7505 0.907111 41.2465 0.985347 41.3055 1.1027C41.3646 1.22005 41.5417 1.29829 41.6992 1.29829C41.8567 1.29829 42.1716 1.51344 42.3881 1.78726C42.7227 2.198 42.9392 2.27624 43.8644 2.27624C44.6517 2.27624 45.2422 2.43271 46.0492 2.82389C46.6791 3.11727 47.4074 3.68448 47.7617 4.13434C48.0963 4.56463 48.4899 4.97537 48.6277 5.07317C48.7655 5.1514 48.8836 5.30787 48.8836 5.40567C48.8836 5.50346 49.4544 6.42274 50.1433 7.42024C50.8126 8.39819 51.5212 9.35658 51.6786 9.51305C51.8361 9.66952 52.1314 10.0607 52.3479 10.3541C52.6825 10.8431 52.8006 10.9017 53.4698 10.8039C53.8832 10.7453 54.2375 10.7648 54.2965 10.8822C54.3556 10.98 54.2572 11.2342 54.08 11.4298C53.9029 11.6254 53.8044 11.9579 53.8832 12.2513C53.9422 12.5642 55.7728 14.5006 58.745 17.4344C61.3825 20.0162 63.8626 22.4611 64.276 22.8718C64.6893 23.263 65.024 23.7129 65.024 23.8498C65.024 23.9671 65.2995 24.3974 65.6341 24.769C65.9688 25.1407 66.5789 25.9426 66.9726 26.5293C67.3663 27.1161 67.8387 27.918 68.0158 28.2896C68.193 28.6613 68.4095 29.5023 68.4882 30.1477C68.567 30.7932 68.6457 34.6267 68.6457 38.6559C68.6654 42.685 68.6457 47.0467 68.6063 48.3376C68.567 49.6285 68.6457 56.0438 68.7638 62.6156C68.8819 69.1874 68.9803 76.0917 69 77.9694C69 79.847 68.9409 82.2332 68.8819 83.2503C68.8032 84.2674 68.6457 85.3235 68.5276 85.5974C68.4292 85.8712 68.2127 86.3602 68.0749 86.6731C67.9371 86.9861 67.6222 87.6902 67.3663 88.2183C67.1104 88.7464 66.6183 89.3722 66.3034 89.607C65.9884 89.8612 65.3192 90.0959 64.8271 90.1546C64.335 90.2133 63.3509 90.3698 62.6029 90.4676C61.8746 90.5849 61.166 90.7414 61.0479 90.8196C60.9101 90.8979 60.3 91.0348 59.7095 91.113C59.119 91.2108 57.3081 91.3673 55.6744 91.5042C54.0603 91.6215 50.911 91.7584 48.6868 91.7976C46.4626 91.8367 41.5417 91.9149 37.7625 91.9736C33.0779 92.0323 30.5978 91.9932 29.9876 91.8562C29.4955 91.7389 27.9012 91.5433 26.4446 91.4259C24.988 91.3086 23.3543 91.2303 22.8032 91.2499C22.2717 91.2499 19.4767 91.3477 16.6029 91.4455C13.7291 91.5433 10.6782 91.7193 9.81215 91.7976C8.94608 91.8954 7.72572 91.9345 7.11553 91.8758C6.15105 91.778 5.87548 91.6607 5.30466 91.0739C4.95036 90.7023 4.39923 89.9786 4.12366 89.4505C3.8481 88.942 3.6119 88.3552 3.6119 88.14C3.6119 87.9249 3.51348 87.7097 3.41506 87.6511C3.31665 87.5924 3.21823 87.3577 3.21823 87.123C3.21823 86.8687 3.00171 86.458 2.72614 86.1841C2.45058 85.9103 2.23406 85.5583 2.23406 85.4018C2.23406 85.2453 2.17501 85.0302 2.09628 84.9324C2.01754 84.8541 1.78134 84.326 1.60419 83.7588C1.40736 83.2112 1.26958 82.4875 1.24989 82.1746C1.24989 81.8616 1.17116 81.5096 1.07274 81.3922C0.974326 81.2748 0.856226 80.7076 0.797175 80.1209C0.738125 79.5341 0.600342 78.341 0.482242 77.4804C0.383825 76.6198 0.186992 73.9794 0.0885751 71.6127C-0.029525 68.9136 -0.029525 65.7059 0.0885751 63.0068C0.186992 60.6401 0.364142 49.8241 0.482242 38.9493C0.580659 28.0745 0.738125 17.7865 0.797175 16.0653C0.875909 13.9334 0.836543 12.799 0.679076 12.486C0.560976 12.2513 0.521609 12.0166 0.600342 11.9775C0.698759 11.9384 0.836543 11.4298 0.915277 10.8626C0.99401 10.2758 1.13179 9.31746 1.21053 8.73069C1.30894 8.14392 1.66324 7.04862 2.01754 6.28582C2.37184 5.52302 2.80488 4.62331 2.98203 4.25169C3.15918 3.89963 3.71031 3.23463 4.2024 2.78477C4.69448 2.31536 5.5015 1.70903 6.03295 1.4352C6.5644 1.12226 7.273 0.907111 7.68635 0.907111C8.0997 0.907111 8.78862 0.770198 9.22165 0.613727C9.65469 0.457255 10.757 0.339901 11.6821 0.320342C12.6072 0.320342 13.4929 0.222548 13.6504 0.124753C13.8276 0.00739902 14.6346 -0.0317189 15.6187 0.026958ZM8.9264 3.60625C8.43432 3.7236 7.68635 3.91919 7.25332 4.03654C6.82028 4.17346 6.11168 4.4864 5.67865 4.72111C5.18656 4.99493 4.75353 5.44479 4.51733 5.9142C4.3205 6.3445 4.06461 7.20509 3.9662 7.85054C3.86778 8.49598 3.71031 9.68908 3.6119 10.491C3.51348 11.2929 3.35601 12.8381 3.25759 13.9138C3.15918 14.9896 3.00171 16.0066 2.92298 16.1631C2.82456 16.3196 2.64741 18.2559 2.54899 20.4661C2.45058 22.6762 2.37184 26.8032 2.37184 29.6588C2.37184 32.5144 2.45058 39.6338 2.52931 45.5015C2.60804 52.3667 2.72614 56.3959 2.86393 56.8457C3.00171 57.2369 3.15918 60.3076 3.25759 64.0825C3.33633 67.6814 3.4938 71.691 3.59221 72.9818C3.71031 74.2727 3.88746 77.4804 3.98588 80.1209C4.10398 82.7613 4.28113 85.4018 4.41891 85.9886C4.53701 86.5753 4.75353 87.3381 4.89131 87.6511C5.0291 87.964 5.36371 88.3161 5.59991 88.4139C5.8558 88.5117 6.60377 88.6681 7.25332 88.7659C7.90287 88.8442 9.41849 89.0006 10.5995 89.118C11.8002 89.2158 12.9812 89.3527 13.2567 89.4114C13.5323 89.4896 15.6975 89.6265 18.0792 89.7243C20.4608 89.8417 26.7595 89.959 32.0543 89.9786C38.3137 89.9981 42.7818 90.1155 44.7501 90.2915C47.1712 90.5067 48.0175 90.5067 48.8836 90.3306C49.4741 90.1937 51.7377 90.0568 53.9029 89.9981C56.068 89.9395 58.2529 89.8417 58.7647 89.7634C59.2567 89.6656 59.7882 89.4896 59.926 89.3722C60.0638 89.2353 60.3787 89.118 60.6346 89.118C60.8905 89.118 61.1267 89.0397 61.1857 88.9224C61.2448 88.805 61.5597 88.7268 61.8746 88.7268C62.1896 88.7268 62.5045 88.6486 62.5635 88.5312C62.6226 88.4139 62.8785 88.3356 63.154 88.3356C63.4296 88.3356 63.9807 88.1792 64.3744 87.964C64.7878 87.7684 65.3979 87.2599 65.7522 86.8491C66.1656 86.3602 66.4215 85.7734 66.5002 85.2062C66.5789 84.7172 66.6774 80.1013 66.7167 74.9377C66.7758 68.9331 66.7364 65.4125 66.6183 65.1583C66.5002 64.9236 66.3821 61.4421 66.3231 56.7479C66.264 52.3276 66.1459 47.4574 66.0475 45.8927C65.9688 44.328 65.831 42.9393 65.7522 42.8219C65.6735 42.685 65.516 41.2181 65.3979 39.5752C65.2602 37.9518 65.1421 34.7245 65.1027 32.4557L65.024 28.2896C63.8626 27.8202 62.9572 27.7029 62.2092 27.7029C61.481 27.7029 60.8905 27.7616 60.8905 27.8593C60.8905 27.9376 60.6149 28.1527 60.3 28.3483C59.9653 28.5244 59.5914 28.6808 59.4536 28.6808C59.3355 28.6808 59.0993 28.583 58.9615 28.4461C58.804 28.2701 57.564 28.1136 55.4185 27.9963C53.214 27.8593 51.9345 27.8593 51.5212 27.9963C51.1866 28.0941 50.7732 28.3092 50.5961 28.4461C50.3205 28.6417 50.1827 28.6026 49.8284 28.1919C49.4347 27.7811 49.1985 27.7224 48.0569 27.7029C47.3089 27.7029 46.5216 27.6246 46.2854 27.5268C46.0295 27.4291 45.6162 27.2921 45.3406 27.2335C45.065 27.1943 44.3761 26.7445 43.8053 26.2555C42.9589 25.4927 42.7818 25.4145 42.7818 25.747C42.7818 26.0078 42.6702 26.1251 42.4472 26.099C42.2503 26.0599 41.837 25.5123 41.4827 24.8668C41.148 24.2214 40.8134 23.3803 40.7347 23.0087C40.656 22.6371 40.5182 21.6592 40.4198 20.8572C40.3214 20.0553 40.1442 17.8843 40.0261 16.0653C39.908 14.2463 39.8883 11.4689 39.9474 9.90423C40.0261 8.33951 40.0261 6.30538 39.9474 5.34699L39.8293 3.64536C32.5071 3.64536 30.2238 3.56713 30.027 3.46933C29.8498 3.37154 26.1297 3.25418 21.7206 3.21507C17.3312 3.17595 12.8631 3.21507 11.7805 3.2933C10.6979 3.35198 9.41848 3.50845 8.9264 3.60625ZM43.7266 7.69407C43.7463 7.7723 43.8644 7.73319 44.0021 7.61583C44.1399 7.47892 44.3761 7.36157 44.5336 7.36157C44.7107 7.36157 45.0454 7.16598 45.2816 6.93127C45.5374 6.677 45.7343 6.36406 45.7343 6.2467C45.7343 6.10979 45.6162 5.99244 45.4784 5.99244C45.3209 5.99244 44.8682 6.3445 44.4549 6.7748C44.0415 7.18553 43.7069 7.61583 43.7266 7.69407ZM45.4784 7.4398C45.2422 7.49848 44.6911 7.85054 44.258 8.22216C43.825 8.61334 43.2739 9.10231 43.018 9.31746C42.7621 9.55217 42.5849 9.92379 42.5849 10.2954C42.5849 10.6279 42.6834 10.8822 42.8211 10.8822C42.9589 10.8822 43.9037 10.0607 44.8879 9.08275C45.8917 8.08525 46.7184 7.20509 46.7184 7.12686C46.7184 7.02906 46.5413 6.97039 46.3248 6.97039C46.1083 6.97039 45.9311 7.06818 45.9311 7.16598C45.9311 7.26377 45.7343 7.40068 45.4784 7.4398ZM46.0886 9.02408C46.1083 9.08275 46.4822 8.92628 46.9153 8.69157C47.3483 8.43731 47.7026 8.12436 47.7026 8.00701C47.7026 7.8701 47.5845 7.75274 47.4467 7.75274C47.2893 7.75274 46.9153 8.00701 46.62 8.33951C46.3051 8.65246 46.0689 8.9654 46.0886 9.02408ZM45.7933 10.3932C45.4784 10.6084 44.5336 11.4103 43.7069 12.1535C42.8802 12.8967 42.1519 13.6987 42.1125 13.9138C42.0535 14.129 42.0929 14.4419 42.1913 14.5984C42.3094 14.8331 42.7818 14.4615 44.3761 12.9359C45.4784 11.8601 46.8365 10.5106 47.368 9.96291C47.8994 9.3957 48.2537 8.92628 48.175 8.94584C48.0766 8.94584 47.6436 9.20011 47.1908 9.47393C46.7578 9.76732 46.1279 10.1781 45.7933 10.3932ZM47.6042 11.1169C47.5058 11.1951 47.4664 11.2929 47.5451 11.3516C47.6436 11.4103 48.1356 11.2538 48.6868 10.98C49.297 10.6866 49.6906 10.3541 49.7103 10.1194C49.7497 9.92379 49.6119 9.68908 49.4151 9.6304C49.2379 9.57173 49.0411 9.51305 48.982 9.51305C48.9427 9.51305 48.6474 9.84555 48.3522 10.2563C48.0569 10.6475 47.7223 11.0386 47.6042 11.1169ZM43.1164 19.0578C42.9196 19.3903 42.8211 19.6837 42.8802 19.6837C42.9392 19.6837 43.7856 18.9209 44.7698 17.9625C45.754 17.0237 47.3089 15.4981 48.2341 14.5593C49.1592 13.6009 50.0252 12.8381 50.163 12.8381C50.3008 12.8381 50.6354 12.6034 50.9307 12.31C51.344 11.8601 51.4031 11.7037 51.2062 11.5081C51.0685 11.3711 50.8716 11.2538 50.7929 11.2734C50.7142 11.2734 49.0214 12.8772 47.0334 14.8526C45.065 16.8085 43.2935 18.7058 43.1164 19.0383V19.0578ZM46.7578 13.2879C46.4232 13.5813 46.0689 13.8356 45.9705 13.8356C45.8917 13.816 45.6162 14.0312 45.3209 14.2659C45.0454 14.5201 44.4745 14.97 44.0415 15.3025C43.6282 15.6154 43.018 16.1044 42.7227 16.3782C42.3291 16.7303 42.1913 17.0432 42.1913 17.5127C42.1913 17.8452 42.27 18.1777 42.3881 18.2363C42.5062 18.295 43.7069 17.1997 45.0847 15.811C46.4822 14.4223 47.8601 13.0141 48.175 12.6816C48.4899 12.3491 48.7261 12.0753 48.6671 12.0948C48.6277 12.1144 48.3128 12.2513 47.9979 12.4273C47.6829 12.5838 47.1121 12.975 46.7578 13.2879ZM46.561 17.1997C44.1793 19.5859 43.1754 20.7203 43.1754 21.0333C43.1754 21.268 43.2542 21.5027 43.3723 21.5614C43.4904 21.62 43.9234 21.1897 44.3761 20.6225C44.8092 20.0749 46.3838 18.3733 47.8601 16.8672C49.3363 15.3612 50.7732 13.8747 51.0291 13.5813C51.285 13.2879 51.4228 13.0532 51.3243 13.0532C51.2259 13.0532 50.8716 13.2293 50.5567 13.4444C50.2418 13.6595 48.4309 15.3416 46.561 17.1997ZM48.1553 18.0212C47.4861 18.6666 46.9743 19.2534 47.0137 19.3121C47.0727 19.3708 47.427 19.0774 47.801 18.6862C48.175 18.2755 48.549 17.943 48.6277 17.943C48.7261 17.943 49.2773 17.5322 49.8678 17.0432C50.4583 16.5347 51.1669 16.0262 51.4424 15.8893C51.718 15.7524 52.1117 15.4394 52.3282 15.2243C52.5447 14.9896 52.84 14.794 52.9581 14.8135C53.0958 14.8135 53.273 14.6766 53.3517 14.5201C53.4502 14.3441 53.3714 14.0703 53.1155 13.8356C52.899 13.6009 52.6825 13.4444 52.6234 13.4444C52.5644 13.464 51.8164 14.2268 50.9504 15.146C50.0843 16.0653 48.8246 17.3562 48.1553 18.0212ZM48.923 20.7594C49.0214 20.8181 49.5922 20.4269 50.2024 19.8989C50.8323 19.3512 51.4228 18.9209 51.5409 18.9209C51.659 18.9209 51.9148 18.7449 52.1314 18.5297C52.3479 18.295 52.8006 17.9821 53.1155 17.806C53.4305 17.63 54.1194 17.2975 54.6312 17.0432C55.1626 16.789 55.576 16.5152 55.576 16.4369C55.5956 16.3391 55.4382 16.1435 55.261 15.9871C55.0642 15.8306 54.7099 15.6741 54.4343 15.635C54.0603 15.5959 53.4502 16.0849 51.3834 18.119C49.9465 19.5077 48.8442 20.7008 48.923 20.7594ZM49.5725 18.1581C49.0214 18.5297 47.5255 19.8989 46.2264 21.2289C44.4745 23.0087 43.9234 23.6737 44.1006 23.8106C44.2974 23.9476 44.6911 23.6737 45.5965 22.7936C46.2854 22.109 47.368 21.0724 48.0175 20.4661C48.6474 19.8402 49.7497 18.784 50.4583 18.0799C51.2062 17.3366 51.6393 16.7694 51.5212 16.7107C51.3834 16.6325 51.1275 16.789 50.9307 17.0432C50.7142 17.278 50.104 17.7865 49.5725 18.1581ZM50.6945 23.5173C50.7929 23.5759 51.4031 23.1652 52.0723 22.598C52.7612 22.0308 53.3517 21.5222 53.4108 21.4636C53.4698 21.3853 53.9029 21.0724 54.3753 20.7594C54.8477 20.4465 55.3791 20.114 55.5563 19.9966C55.7334 19.8989 56.1664 19.6055 56.5207 19.3708C56.8554 19.1165 57.2294 18.9209 57.3475 18.9209C57.4656 18.9209 57.5837 18.8427 57.6427 18.7253C57.7018 18.6275 57.5443 18.3146 57.2884 18.0408C57.0522 17.7669 56.757 17.5518 56.6585 17.5518C56.5404 17.5518 55.1232 18.8818 53.5092 20.4856C51.8755 22.109 50.6157 23.4586 50.6945 23.5173ZM52.8596 18.9209C52.7022 18.9209 52.4857 19.0578 52.3676 19.2534C52.2298 19.4294 51.6786 19.8989 51.1472 20.29C50.5961 20.7008 49.6709 21.4831 49.0804 22.0503C48.4899 22.6175 47.6829 23.3021 47.3089 23.5955C46.935 23.8693 46.4822 24.2214 46.3248 24.3779C46.1673 24.5343 45.8327 24.769 45.5768 24.9255C45.3406 25.0624 45.1438 25.3167 45.1438 25.4732C45.1438 25.6687 45.439 25.8252 45.9705 25.9426C46.4429 26.0404 46.8956 26.0795 47.0137 26.0012C47.1318 25.9426 48.9427 24.1431 51.0488 22.0112C53.6863 19.3512 54.7492 18.1385 54.4934 18.1385C54.2768 18.1385 53.8832 18.3146 53.6076 18.5297C53.332 18.7449 52.9974 18.9209 52.8596 18.9209ZM54.2375 23.8889C53.3517 24.769 52.6234 25.5905 52.6234 25.7274C52.6234 25.8448 52.7415 25.9621 52.8596 25.9621C52.9974 25.9621 53.4698 25.6687 53.9029 25.2776C54.3359 24.9059 54.828 24.593 54.9855 24.593C55.1626 24.6126 55.0051 24.8277 54.5918 25.1798L53.9029 25.747C54.9658 25.9426 55.5563 25.9426 55.8712 25.8839C56.2255 25.7861 57.0325 25.1993 57.8986 24.3387C58.6859 23.5564 59.3158 22.8718 59.3158 22.7936C59.3158 22.6958 59.1386 22.6371 58.9221 22.6371C58.7056 22.6371 58.4891 22.7153 58.43 22.8327C58.371 22.9501 58.1545 23.0283 57.938 23.0283C57.7214 23.0283 57.5049 23.1652 57.4459 23.3217C57.3868 23.4781 57.2097 23.6151 57.0522 23.6151C56.8947 23.6151 56.757 23.4977 56.757 23.3803C56.757 23.2434 57.0719 23.0087 57.4459 22.8914C57.8199 22.7545 58.1348 22.5589 58.1348 22.4415C58.1348 22.3437 58.2529 22.2459 58.371 22.2459C58.5088 22.2655 58.7647 22.1286 58.9221 21.9525C59.0796 21.7961 59.3945 21.6396 59.5914 21.6005C59.7882 21.5809 60.0638 21.4049 60.1819 21.2289C60.359 20.9355 60.3 20.7986 59.9063 20.4465C59.6307 20.1922 59.2764 19.8989 59.0993 19.7619C58.8434 19.5664 58.5481 19.7619 57.3278 20.9159C56.5207 21.6787 55.1429 23.0283 54.2375 23.8889ZM54.1981 22.0503C53.9816 22.2655 53.7454 22.4415 53.647 22.4415C53.5683 22.4415 52.7612 23.1261 51.8361 23.9867C50.6748 25.0624 50.2221 25.6101 50.3599 25.7665C50.4976 25.9035 50.7142 25.9035 51.0488 25.7861C51.3243 25.6883 52.7415 24.4561 54.1981 23.0478C55.6547 21.6396 56.757 20.5052 56.6585 20.5052C56.5404 20.5052 56.0484 20.779 55.5169 21.0919C55.0051 21.4049 54.4146 21.8352 54.1981 22.0503ZM60.0441 23.4195C60.1425 23.4195 60.5362 23.3021 60.9298 23.1261C61.3432 22.9696 61.6778 22.6958 61.6778 22.5393C61.6778 22.3828 61.5203 22.2459 61.3235 22.2459C61.107 22.2459 60.7133 22.5198 60.4377 22.8327C60.1425 23.1652 59.9653 23.4195 60.0441 23.4195ZM60.9889 24.0062C60.8314 24.0062 60.2015 24.3583 59.611 24.7886C58.9418 25.2776 58.5875 25.6492 58.6662 25.7861C58.7647 25.9426 59.1386 25.9817 59.7095 25.9035C60.3 25.8252 60.7724 25.6101 61.1463 25.2384C61.4613 24.9451 61.8353 24.4561 61.9927 24.1627C62.2486 23.6346 62.2486 23.6151 61.7762 23.6151C61.5006 23.6151 61.2841 23.6933 61.2841 23.8106C61.2841 23.928 61.1463 24.0062 60.9889 24.0062ZM62.0715 25.7665C62.1699 25.7665 62.3077 25.6883 62.3667 25.571C62.4258 25.4536 62.6226 25.3754 62.7997 25.3754C62.9966 25.3949 63.3312 25.2189 63.5477 25.0037C63.902 24.6517 63.902 24.5734 63.6461 24.2996C63.4887 24.1236 63.2918 23.9867 63.2131 24.0062C63.1344 24.0062 62.7997 24.3974 62.4848 24.8864C62.1502 25.3754 61.9534 25.7665 62.0715 25.7665ZM66.697 38.5777C66.8545 39.4774 66.9923 41.6289 67.012 43.663L67.0513 47.1836C67.2875 43.0958 67.3663 39.9272 67.386 37.5019C67.4056 34.9593 67.3466 32.7686 67.2285 32.3188C67.1104 31.8885 66.9726 31.0279 66.9136 30.4216C66.8545 29.7957 66.7167 29.2872 66.5986 29.2872C66.4805 29.2872 66.4018 30.6758 66.4018 33.1598C66.4018 35.6438 66.5002 37.5606 66.697 38.5777ZM7.7454 90.272C8.17843 90.3893 8.90672 90.5067 9.35943 90.5067C9.83183 90.5067 10.1271 90.448 10.0287 90.3698C9.94993 90.2915 9.49722 90.1546 9.0445 90.0959C8.61147 90.0177 7.96192 89.9003 7.6273 89.8221C7.29268 89.7439 6.99743 89.7439 6.99743 89.8417C6.97775 89.9395 7.31237 90.135 7.7454 90.2524V90.272Z" fill="#35211A"/>
<path d="M35.9443 49.7664C35.7196 49.392 34.8809 49.2664 34.4443 49.2664C34.0077 49.2664 33.356 49.3062 32.9443 49.7664C32.2804 50.5084 32.6158 51.8723 33.4443 52.4246C34.0941 52.8579 35.0583 52.8579 35.7081 52.4246C36.5366 51.8723 36.262 50.2959 35.9443 49.7664Z" fill="#35211A"/>
<path d="M33.9443 63.622C33.442 63.9234 32.9443 64.392 32.9443 65.392C32.9443 66.392 33.894 67.3451 34.4443 67.392C34.8752 67.4287 35.7998 66.7881 35.7998 66.7881C35.7998 66.7881 35.6739 68.5825 35.0887 69.122C34.7708 69.415 32.9443 69.828 32.9443 69.828C32.9443 69.828 32.5887 70.122 33.5887 70.622C34.5887 71.122 35.1738 70.9269 36.0887 70.622C37.5887 70.122 37.6337 67.7731 37.5887 66.7881C37.552 65.9839 37.2791 64.0362 36.5887 63.622C36.0864 63.3206 34.4466 63.3206 33.9443 63.622Z" fill="#35211A"/>
<path d="M24.5955 37.0695C24.8707 37.1283 25.0869 37.1871 25.0869 37.2067C25.1066 37.2263 25.2245 37.4616 25.3621 37.7361C25.4997 38.0106 25.5783 38.3439 25.4997 38.4811C25.4407 38.5988 25.0083 38.7752 24.5365 38.834C24.0844 38.9125 23.4751 39.0889 23.1606 39.2262C22.8657 39.383 22.4529 39.8732 22.2367 40.3437C22.0205 40.7947 21.7846 41.6574 21.706 42.2456C21.6273 43.0298 21.6863 43.5592 21.9222 44.2062C22.217 44.9708 22.2367 45.5786 22.1384 48.5196C22.0795 50.4018 22.0008 52.6566 21.9812 53.5192C21.9419 54.3819 21.8436 55.2642 21.7453 55.4603C21.6273 55.6759 21.1949 55.9896 20.0155 56.4602L21.018 57.2052C21.8239 57.7738 22.0794 58.1071 22.2564 58.7738C22.3743 59.2247 22.4726 60.754 22.4529 62.1461C22.4333 63.5577 22.4136 65.3615 22.394 66.1654C22.3743 66.9692 22.4529 68.028 22.5512 68.5181C22.6691 69.0083 23.0623 70.0278 23.4358 70.7729C23.9075 71.714 24.3006 72.2434 24.7134 72.4394C25.0673 72.6159 25.7159 72.7139 26.4039 72.6747C27.2295 72.6551 27.603 72.7139 27.7405 72.9296C27.8388 73.0864 27.8978 73.3413 27.8585 73.4786C27.8192 73.5962 27.2098 73.8315 26.4825 73.9687C25.48 74.1452 24.8903 74.1452 23.8485 73.9687C22.7085 73.7726 22.4136 73.6354 21.7256 72.9492C21.2342 72.4394 20.8804 71.8904 20.8018 71.4591C20.7231 71.0866 20.5856 69.9886 20.4676 69.0083C20.3693 68.0476 20.271 65.3223 20.271 58.7149L19.6813 58.1267C19.3472 57.7934 18.8754 57.5386 18.6002 57.5386C18.325 57.5386 17.8926 57.3817 17.6174 57.2052C17.3422 57.0092 17.067 56.7347 17.0277 56.617C16.9687 56.4798 17.008 56.2053 17.1063 56.0289C17.2046 55.8132 17.755 55.5583 18.502 55.3818C19.1703 55.225 19.8386 54.9505 19.9565 54.7937C20.0941 54.6368 20.3497 54.127 20.5266 53.6761C20.7231 53.2055 20.8607 52.4801 20.8607 52.0488C20.8607 51.6174 20.6642 49.8332 20.4086 48.0883C20.1728 46.3237 19.9762 44.0101 19.9762 42.9318C19.9762 41.2456 20.0548 40.8143 20.4873 39.8928C20.7821 39.2458 21.2539 38.6184 21.6667 38.3243C22.0205 38.0694 22.7281 37.638 23.2195 37.4028C23.7699 37.1283 24.3006 37.0106 24.5955 37.0695Z" fill="#35211A"/>
<path d="M44.0359 36.0695C44.6452 36.148 45.4511 36.3636 45.8246 36.5597C46.1981 36.7362 46.7288 37.1479 47.004 37.4616C47.2792 37.7753 47.6723 38.5203 47.8689 39.1085C48.2031 40.0692 48.2227 40.6182 48.1048 44.2062C48.0458 46.4217 47.9475 49.6372 47.7706 54.4996L48.321 55.0485C48.6158 55.3426 49.0876 55.6171 49.3628 55.6759C49.638 55.7152 49.9918 55.9112 50.1491 56.0681C50.3849 56.323 50.4046 56.4602 50.1884 56.8523C50.0704 57.1268 49.7363 57.4405 49.4611 57.5386C49.1859 57.6562 48.7928 58.0287 48.5765 58.3816C48.3407 58.7541 48.1834 59.3619 48.1834 59.8521C48.1834 60.3031 48.38 61.3618 48.5962 62.2049C48.8321 63.0283 49.1073 64.1067 49.2252 64.5969C49.3235 65.087 49.4611 66.9692 49.5004 68.8122C49.5594 70.7729 49.52 72.3022 49.4021 72.5375C49.3038 72.7531 48.8321 73.2041 48.3603 73.5374C47.574 74.0667 47.3382 74.1256 45.9229 74.1452C45.058 74.1648 44.1931 74.106 43.9965 73.9883C43.8196 73.8903 43.6624 73.7334 43.6624 73.6158C43.6624 73.5178 43.8196 73.4197 43.9965 73.4197C44.1931 73.4197 44.8418 73.2629 45.4315 73.0668C46.0212 72.8904 46.6305 72.6747 46.7485 72.5767C46.8861 72.4982 47.1809 72.0669 47.3971 71.6159C47.633 71.1062 47.7903 70.3611 47.7903 69.6945C47.7903 69.1063 47.6527 68.126 47.4758 67.5378C47.2989 66.9496 47.0826 66.185 46.9843 65.8713C46.8861 65.5576 46.8074 63.7342 46.8074 61.852C46.8074 59.5972 46.8861 58.2052 47.063 57.7934C47.2792 57.2248 47.2595 57.1072 46.8861 56.7151C46.6698 56.4602 46.375 55.9896 46.2374 55.6759C46.0801 55.3622 45.8836 54.3819 45.7656 53.5192C45.6477 52.6566 45.5691 51.1665 45.5887 50.1861C45.6084 49.2254 45.6674 46.6178 45.7263 44.4023C45.805 41.6966 45.7656 40.3241 45.628 40.1869C45.5101 40.0888 45.4315 39.8732 45.4315 39.7555C45.4315 39.6183 45.1563 39.1085 44.8418 38.6184C44.5076 38.1282 44.0752 37.6577 43.8589 37.54C43.6427 37.442 43.3282 37.0891 43.171 36.7558C43.0137 36.4421 42.8958 36.1087 42.8958 36.0499C42.9154 35.9715 43.4265 35.9911 44.0359 36.0695Z" fill="#35211A"/>
</svg>
