<svg width="68" height="92" viewBox="0 0 68 92" fill="none" xmlns="http://www.w3.org/2000/svg">
<path fill-rule="evenodd" clip-rule="evenodd" d="M25.7894 0.0189348C29.2687 0.0581476 32.7675 0.195392 33.5341 0.313031C34.3204 0.430669 35.3229 0.626733 35.7553 0.783585C36.1878 0.940436 37.4065 1.09729 38.4483 1.15611C40.237 1.27374 40.3943 1.25414 40.5712 0.881617C40.6891 0.665946 40.8464 0.489488 40.9643 0.489488C41.0823 0.489488 41.2788 0.783584 41.4361 1.1365C41.613 1.54823 42.183 2.07761 43.1462 2.72462C43.9521 3.2736 45.1315 3.95982 45.7802 4.29313C46.5075 4.64605 47.6279 5.52833 48.709 6.56747C49.6722 7.48898 51.2644 9.17513 52.2472 10.3123C53.23 11.4495 54.3505 12.7827 54.7436 13.2533C55.1171 13.7238 56.1392 14.6453 57.0041 15.2727C57.8493 15.9197 58.9894 16.802 59.5005 17.2334C60.0312 17.6843 60.9944 18.7038 61.6824 19.5077C62.3507 20.3116 63.0387 21.2919 63.2156 21.6644C63.3925 22.0369 63.8839 22.782 64.2967 23.3113C64.7095 23.8407 65.653 24.6838 66.3803 25.174C67.1076 25.6641 67.7956 26.2327 67.8939 26.4092C68.0118 26.6052 68.0314 26.9189 67.9528 27.0954C67.8939 27.2914 67.8152 29.2521 67.7956 31.4676C67.7759 33.6831 67.658 36.33 67.5204 37.3495C67.3828 38.4867 67.2452 43.3491 67.2059 49.7996C67.1469 55.6227 67.0093 61.7595 66.911 63.4261C66.7931 65.0926 66.7145 69.8177 66.7145 73.9155C66.7145 79.9346 66.6555 81.5816 66.4196 82.5423C66.2427 83.1893 65.9085 84.3265 65.6727 85.0519C65.3188 86.1695 65.2795 86.4636 65.4761 86.7773C65.6137 86.9733 65.7316 87.3655 65.7316 87.64C65.7316 87.9733 65.5744 88.2085 65.1812 88.4046C64.8864 88.5419 64.336 88.6987 63.9625 88.7575C63.5891 88.8163 62.7831 89.1889 62.1934 89.581C61.4268 90.0908 60.7978 90.326 60.0312 90.4241C59.4415 90.4829 58.1049 90.4437 57.0827 90.3064C56.0606 90.1692 54.547 89.9731 53.7411 89.8751C52.9352 89.7771 51.5985 89.7378 50.7926 89.7967C49.9867 89.8555 47.8245 90.0908 45.9768 90.3064C44.129 90.5221 41.7113 90.8162 40.5712 90.9731C39.4311 91.1299 37.3082 91.3064 35.8536 91.3652C34.399 91.4436 32.4923 91.5809 31.6274 91.6789C30.7626 91.7965 26.0646 91.9142 21.2095 91.973C15.8825 92.0318 11.106 91.9926 9.21894 91.8749C6.30976 91.6789 6.01492 91.6201 5.209 91.1299C4.67827 90.777 4.1672 90.2476 3.892 89.6986C3.63647 89.2085 3.28265 88.2086 3.10574 87.4439C2.92883 86.6793 2.71261 85.7185 2.61433 85.2872C2.49639 84.8559 2.31948 84.1108 2.22119 83.6207C2.10326 83.1305 1.946 81.6796 1.86738 80.3856C1.76909 79.0916 1.59218 76.0526 1.47424 73.6214C1.3563 71.1902 1.15974 68.2492 1.0418 67.0532C0.943517 65.8572 0.766607 64.3672 0.668324 63.7201C0.550385 63.0731 0.353819 60.3871 0.23588 57.7402C0.0982838 55.0933 0 51.0348 0 48.7212C0 46.4077 0.157253 42.604 0.353819 40.2905C0.550385 37.9769 0.766607 35.1144 0.86489 33.9184C0.943517 32.7224 0.98283 31.5068 0.923861 31.1735C0.884547 30.8402 0.746951 30.4089 0.629012 30.1932C0.511072 29.9383 0.491415 26.9777 0.550385 21.9585C0.609355 17.6451 0.746951 13.018 0.845234 11.6651C0.943517 10.3123 1.15974 8.58693 1.33665 7.84189C1.51356 7.07724 1.71012 6.19495 1.76909 5.88125C1.84772 5.54794 2.06394 4.76368 2.28016 4.11667C2.49639 3.46966 2.81089 2.72462 2.9878 2.45013C3.14505 2.17564 3.55784 1.70509 3.892 1.41099C4.22617 1.11689 4.67827 0.822797 4.89449 0.763978C5.11071 0.705159 5.72007 0.705159 6.27045 0.763978C6.87981 0.822797 7.84298 0.705159 8.82581 0.450276C10.1231 0.116967 10.8111 0.077754 12.7571 0.15618C14.0545 0.195392 16.0791 0.175786 17.2781 0.0973604C18.4772 -0.00067167 22.2906 -0.020278 25.7698 0.0189348H25.7894ZM6.62427 3.19517C6.38839 3.31281 6.01492 3.72455 5.81835 4.05785C5.60213 4.41077 5.26797 5.27345 5.05174 5.97928C4.83552 6.68511 4.56033 7.95953 4.44239 8.82221C4.34411 9.68489 4.18685 11.9788 4.12788 13.9199C4.06891 15.8609 3.93132 18.4097 3.81338 19.6057C3.7151 20.7821 3.53819 22.4683 3.4399 23.331C3.34162 24.1936 3.10574 26.1347 2.92883 27.6444C2.73227 29.2717 2.59467 31.7029 2.61433 33.6243C2.61433 35.4085 2.71261 37.6044 2.83055 38.5259C2.94849 39.4474 3.06643 41.7022 3.06643 43.5255C3.08608 45.3489 3.16471 47.7801 3.26299 48.9173C3.36128 50.0545 3.51853 53.3484 3.63647 56.2697C3.73475 59.1911 3.89201 63.8966 3.99029 66.7591C4.06891 69.6217 4.20651 72.0725 4.28514 72.1901C4.36376 72.3274 4.52102 73.8763 4.6193 75.6212C4.73724 77.3858 4.91415 79.5621 5.01243 80.4836C5.11071 81.4051 5.24831 82.5031 5.30728 82.9344C5.36625 83.3658 5.54316 84.3853 5.72007 85.1892C5.89698 86.0126 6.27045 87.0126 6.54564 87.4439C6.89946 87.9733 7.43019 88.4046 8.15748 88.7575C9.21894 89.2673 9.33688 89.2673 15.2339 89.4634C21.1308 89.6594 21.2291 89.6594 21.6222 89.2673C21.9957 88.8948 22.1333 88.8752 24.3742 89.032C25.6715 89.1301 29.7404 89.2085 33.4162 89.2085C39.8242 89.2085 40.296 89.1889 45.0136 88.5615C47.7065 88.2085 50.5764 87.836 51.343 87.738C52.1293 87.6204 54.4487 87.5419 56.5127 87.5419C59.068 87.5419 60.6602 87.4439 61.5644 87.2478C62.7438 86.9929 62.9404 86.8949 63.2352 86.3263C63.4908 85.797 63.6087 84.5814 63.7856 80.0915C63.9429 76.5231 63.9625 72.347 63.8839 68.5237C63.8053 65.2298 63.7463 59.9361 63.7463 56.7599C63.766 53.5836 63.8643 48.0546 63.9822 44.5059C64.0805 40.9375 64.2574 37.4083 64.3557 36.6633C64.454 35.9183 64.5916 33.6047 64.6898 31.5656L64.8274 27.8404C56.3947 28.0757 55.7068 28.1345 54.9402 28.4874C54.4487 28.7031 53.7411 28.9384 53.3676 29.0168C52.9942 29.0756 50.773 28.958 48.4535 28.7031C46.134 28.4678 43.7556 28.2914 43.1855 28.311C42.3206 28.3306 42.1241 28.2718 41.9078 27.8796C41.7506 27.6444 41.5344 27.1346 41.3968 26.7621C41.2592 26.3895 40.984 25.8602 40.7874 25.5857C40.5909 25.3112 40.2174 24.2132 39.9815 23.1349C39.5884 21.2723 39.5687 20.8605 39.6866 14.7041C39.7653 11.1358 39.9029 7.39094 40.0012 6.37141C40.0994 5.35188 40.1388 4.33234 40.0798 4.11667C40.0012 3.80297 39.7456 3.68533 38.8611 3.56769C38.2517 3.46966 36.7185 3.31281 35.4801 3.21478C34.2418 3.09714 32.5513 2.92068 31.7454 2.80304C30.9395 2.70501 25.3177 2.58737 19.2635 2.54816C11.1453 2.50895 8.09851 2.54816 7.66607 2.72462C7.33191 2.84226 6.87981 3.05793 6.62427 3.19517ZM3.16471 4.31274C3.08608 4.62644 2.85021 5.80282 2.63398 6.90078C2.43742 8.01835 2.16222 9.0967 2.06394 9.31237C1.946 9.54765 1.84772 12.2141 1.80841 15.7629C1.78875 19.096 1.82806 21.8997 1.92635 21.9977C2.00497 22.0761 2.06394 21.2723 2.06394 20.1939C2.06394 19.1156 2.20154 17.5471 2.35879 16.704C2.55536 15.7433 2.65364 14.0375 2.65364 11.9592C2.65364 9.35158 2.73227 8.37126 3.06643 6.90078C3.30231 5.92046 3.79372 4.54801 4.14754 3.86179C4.75689 2.76383 4.77655 2.64619 4.44239 2.64619C4.22617 2.64619 3.89201 2.88147 3.67578 3.17557C3.45956 3.48927 3.24334 3.97943 3.16471 4.31274ZM41.9668 5.48912C41.9865 6.01849 42.0651 6.54787 42.1241 6.62629C42.2027 6.70472 42.6548 6.44984 43.1462 6.05771C43.6376 5.66558 44.0504 5.31266 44.0701 5.27345C44.1094 5.23424 43.7162 4.88132 43.1855 4.5088C42.6744 4.13628 42.2027 3.82258 42.1044 3.82258C42.0258 3.82258 41.9472 3.97943 41.9472 4.15589C41.9275 4.35195 41.9275 4.94014 41.9668 5.48912ZM42.1634 8.37126C42.1634 8.68497 42.2224 8.66536 42.6745 8.27323C42.9496 8.03795 43.3035 7.64583 43.4607 7.39094C43.7163 6.99882 43.6966 6.9596 43.3821 6.9596C43.2052 6.9596 42.8514 7.21449 42.6155 7.50858C42.3599 7.80268 42.1634 8.19481 42.1634 8.37126ZM42.5565 10.4888C42.7727 10.4888 42.9496 10.3907 42.9496 10.2927C42.9496 10.1947 43.0283 10.0966 43.1462 10.0966C43.2445 10.0966 44.0504 9.62607 44.935 9.05749L46.5075 8.03795C45.6623 7.19488 45.2691 6.9596 45.1119 6.9596C44.9546 6.9596 44.2273 7.76347 43.4804 8.72418C42.3993 10.1751 42.242 10.4888 42.5565 10.4888ZM43.5787 10.8613C42.9693 11.273 42.3993 11.7632 42.301 11.9396C42.2223 12.1161 42.1634 12.8219 42.1634 13.5277V14.8022C44.7187 12.1357 45.8195 10.9005 46.2716 10.3319C46.7041 9.78292 47.0579 9.21434 47.0186 9.0967C46.9989 8.99867 46.4682 9.17513 45.8392 9.48883C45.2298 9.82214 44.2077 10.4299 43.5787 10.8613ZM45.3477 12.6651C45.1512 12.9788 45.1708 13.0376 45.3871 13.0376C45.5443 13.0376 45.7998 12.9199 45.9374 12.7827C46.075 12.6259 46.7827 12.1357 47.5296 11.6455C48.768 10.8417 48.827 10.7632 48.5714 10.3907C48.4338 10.1751 48.1783 9.97899 48.0407 9.95938C47.8834 9.93978 47.2741 10.4495 46.6844 11.1162C46.0947 11.7828 45.4853 12.469 45.3477 12.6651ZM44.129 14.9394C42.2224 16.5471 42.0651 16.7432 42.0061 17.449C41.9668 17.8804 41.9865 18.5274 42.0454 18.8607L42.1634 19.5077C42.7334 18.8215 43.9128 17.6059 45.1315 16.3707C46.3699 15.1159 47.7852 13.6454 48.2962 13.0768C48.827 12.5082 49.2398 11.92 49.2398 11.7632C49.2398 11.6063 49.1218 11.4691 48.9842 11.4887C48.8663 11.4887 48.1783 11.8808 47.4707 12.3514C46.763 12.8219 45.2691 13.9983 44.129 14.9394ZM47.2151 15.1551C46.5861 15.7041 46.0947 16.2334 46.0947 16.3315C46.0947 16.4099 45.7998 16.6844 45.446 16.9393C45.1119 17.1941 44.5222 17.7823 44.1684 18.2529C43.8342 18.7234 43.559 19.2136 43.5787 19.3312C43.618 19.4293 44.2077 18.9979 44.9153 18.3509C45.6229 17.7235 46.5075 16.9393 46.9006 16.6256C47.3134 16.3315 48.4731 15.4296 49.5149 14.6649C50.5567 13.8807 51.402 13.1748 51.402 13.0964C51.402 12.9984 51.2054 12.7435 50.9695 12.5082C50.714 12.2533 50.3602 12.0573 50.1833 12.0573C49.9867 12.0573 49.4953 12.5278 49.0825 13.0964C48.6697 13.6454 47.8245 14.5865 47.2151 15.1551ZM48.2766 16.5471C47.2544 17.3706 46.1537 18.2529 45.8195 18.5078C45.4853 18.7627 44.5615 19.6057 43.7752 20.3704C42.4779 21.6448 42.3599 21.8213 42.3599 22.5467C42.3599 22.978 42.4975 23.8995 42.6745 24.6054C42.8514 25.3112 43.0872 25.9974 43.2248 26.1151C43.3428 26.2523 44.2273 26.4484 45.2102 26.5464C46.1733 26.6444 47.0972 26.6836 47.2151 26.6444C47.3527 26.6052 47.4707 26.5072 47.4707 26.4288C47.4707 26.3307 47.8245 25.7425 48.2569 25.0955C48.6894 24.4485 50.4781 22.4291 52.2472 20.6057C53.9966 18.8019 55.4512 17.2334 55.4709 17.1353C55.5102 17.0373 55.4316 16.9589 55.3333 16.9589C55.2154 16.9589 54.4094 17.449 53.5052 18.0372C52.6207 18.6254 51.5789 19.3508 51.2054 19.6253C50.8319 19.8998 50.2029 20.4096 49.8295 20.7625C49.456 21.1154 48.827 21.6252 48.4535 21.8997C48.08 22.1742 47.2348 22.8996 46.5861 23.527C45.9374 24.1348 45.0136 24.9975 44.5222 25.4092C44.0308 25.8406 43.5787 26.1935 43.4804 26.1739C43.4017 26.1739 43.2838 25.8798 43.2248 25.5269C43.1266 25.0563 43.2248 24.723 43.559 24.1936C43.8145 23.8015 44.4239 22.9584 44.8956 22.331C45.3674 21.684 46.4289 20.4684 47.2544 19.6057C48.08 18.7431 49.5739 17.1353 50.5764 16.0178C51.8148 14.6649 52.2865 14.0179 52.0506 14.0179C51.8541 14.0179 51.343 14.2532 50.9106 14.5473C50.4781 14.8414 49.2987 15.7433 48.2766 16.5471ZM51.6968 15.8805C51.2644 16.4099 50.7533 17.0373 50.5174 17.253C50.3012 17.4686 49.6329 18.2137 49.0432 18.9195C48.4535 19.6253 47.3724 20.8409 46.6451 21.6252C45.8981 22.3898 45.3084 23.1153 45.3084 23.2329C45.3084 23.3506 45.3871 23.429 45.505 23.429C45.6033 23.429 46.4289 22.7428 47.3134 21.8997C48.2176 21.0566 49.1808 20.2331 49.4756 20.0371C49.7901 19.8606 50.2619 19.4881 50.5567 19.2136C50.8712 18.9587 51.5003 18.449 51.9917 18.0764C52.4831 17.7235 53.2694 17.2138 53.7608 16.9393C54.2522 16.6844 54.7043 16.3707 54.7829 16.2726C54.8615 16.1746 54.9402 15.9785 54.9402 15.8805C54.9402 15.7825 54.5667 15.3904 54.1146 15.0374C53.6428 14.6845 53.23 14.41 53.1711 14.41C53.1121 14.41 52.9155 14.5277 52.7583 14.6453C52.5814 14.7826 52.1096 15.3315 51.6968 15.8805ZM51.2644 22.6447C50.9499 23.0172 50.3995 23.6643 50.0064 24.1152C49.6329 24.5465 49.1218 25.1936 48.8859 25.5269C48.6501 25.8798 48.4535 26.3111 48.4535 26.468C48.4535 26.6248 48.5125 26.7621 48.5911 26.7621C48.6894 26.7621 49.2398 26.3111 49.8295 25.7621C50.4192 25.2328 51.2447 24.4485 51.6575 24.0564C52.3258 23.4094 52.2865 23.5074 51.3234 24.8014L50.2226 26.2719C51.0678 26.4876 51.7951 26.4484 52.3848 26.3307C53.3873 26.1347 53.6232 25.9582 55.5888 24.0368C56.7682 22.8996 57.9869 21.586 58.3014 21.1154C58.6159 20.6645 58.8715 20.1547 58.8715 19.9979C58.8715 19.841 58.6946 19.6646 58.4784 19.6057C58.2621 19.5469 57.7117 19.7038 57.2793 19.939C56.8272 20.1939 56.2768 20.5076 56.0409 20.6253C55.8444 20.7429 55.4709 21.037 55.1171 21.3311C55.3136 21.135 55.294 21.0762 55.0974 21.0762C54.9205 21.0762 54.2718 21.5468 53.6625 22.0957C53.0728 22.6643 52.6207 23.1741 52.6797 23.2329C52.6207 23.1741 53.0531 22.6643 53.6625 22.0957C54.2522 21.5468 54.8615 21.0762 54.9795 21.0762C55.1171 21.0566 55.3136 20.939 55.4316 20.7821C55.5299 20.6057 56.1785 20.1351 56.8468 19.7038L58.0852 18.9195C56.9451 17.6843 56.552 17.3314 56.493 17.351C56.4341 17.351 55.353 18.3901 54.0949 19.6449C52.8369 20.9194 51.5592 22.2722 51.2644 22.6447ZM55.1171 21.3311C55.0647 21.3834 54.9991 21.4422 54.9205 21.5076C54.7239 21.7036 54.3505 22.0173 54.0163 22.2526C54.3111 22.0173 54.665 21.7232 54.9402 21.4879C54.9926 21.4357 55.0516 21.3834 55.1171 21.3311ZM53.6625 22.5075C53.5839 22.5598 53.5118 22.6121 53.4463 22.6643C53.5511 22.5859 53.6559 22.514 53.7608 22.4487C53.8394 22.3833 53.9246 22.318 54.0163 22.2526C53.8787 22.3506 53.7608 22.4487 53.6625 22.5075ZM58.9698 21.8017C59.0287 21.8997 59.3432 21.8213 59.6577 21.6644C59.9919 21.5076 60.2671 21.3311 60.2671 21.2723C60.2474 21.2135 60.1492 21.0566 60.0116 20.9194C59.874 20.7821 59.6971 20.6841 59.6184 20.6841C59.5595 20.6841 59.3629 20.8998 59.186 21.1742C59.0091 21.4487 58.9108 21.7232 58.9698 21.8017ZM57.5152 23.978C57.2596 24.1544 56.6896 24.625 56.2768 24.9975C55.864 25.37 55.5102 25.7425 55.5299 25.821C55.5299 25.919 56.1785 25.9778 56.9451 25.9778L58.3801 25.9974C60.2278 24.076 60.9158 23.2917 61.0927 22.978C61.2696 22.6839 61.3875 22.3506 61.3286 22.2526C61.2696 22.1546 61.0337 22.0565 60.7782 22.0761C60.5423 22.0761 59.815 22.4291 59.1663 22.8604C58.5177 23.2917 57.7707 23.8015 57.5152 23.978ZM60.0312 25.4288C59.874 25.7229 59.9133 25.7621 60.2868 25.6641C60.5423 25.5857 60.9551 25.37 61.2303 25.1936C61.5055 24.9975 61.9576 24.7426 62.2524 24.625C62.5669 24.5073 62.8028 24.3309 62.8028 24.2132C62.8028 24.0956 62.7045 23.8407 62.6062 23.625C62.4883 23.4094 62.2917 23.2329 62.1345 23.2329C61.9772 23.2329 61.4858 23.6447 61.0337 24.1544C60.5816 24.6838 60.1295 25.2524 60.0312 25.4288ZM61.9576 25.7425C61.8593 25.8994 62.0362 25.9778 62.5079 25.9778C62.8814 25.9778 63.3335 25.9386 63.4908 25.8798C63.648 25.821 63.8053 25.6053 63.8249 25.4092C63.8643 25.2132 63.7267 24.9779 63.5301 24.9191C63.3532 24.8603 63.1763 24.8014 63.137 24.821C63.1173 24.821 62.8618 24.9779 62.5866 25.174C62.3114 25.3504 62.0165 25.6053 61.9576 25.7425ZM1.82806 57.152C1.86738 60.0145 1.96566 62.2105 2.04429 62.0536C2.10326 61.8968 2.12291 59.4263 2.06394 56.5638C2.00497 53.7013 1.90669 51.5054 1.84772 51.6622C1.78875 51.8191 1.76909 54.2895 1.82806 57.152ZM65.3582 60.1518C65.3582 61.6811 65.4368 62.6418 65.5547 62.6418C65.6727 62.6418 65.7513 61.2693 65.7513 58.9166C65.7513 56.8775 65.712 55.1914 65.6727 55.1914C65.6333 55.1914 65.5547 55.7403 65.4761 56.4266C65.4171 57.0932 65.3582 58.7597 65.3582 60.1518ZM3.38093 79.8954C3.42025 79.4053 3.42025 78.6994 3.38093 78.3269C3.34162 77.9544 3.30231 78.3465 3.30231 79.2092C3.30231 80.0719 3.34162 80.3856 3.38093 79.8954ZM5.209 88.7771C5.5235 89.2869 5.87732 89.7378 5.99526 89.7967C6.09354 89.8555 6.27045 89.8555 6.38839 89.7967C6.48667 89.7378 6.34908 89.4045 6.07389 89.0712C5.77904 88.7183 5.42522 88.1497 5.24831 87.836C5.09106 87.5223 4.87483 87.0322 4.79621 86.7577C4.67827 86.3459 4.65861 86.3852 4.63895 87.0518C4.6193 87.6204 4.77655 88.1105 5.209 88.7771ZM52.9352 23.1349C52.9942 23.0369 53.2104 22.8604 53.4463 22.6643C53.1907 22.8604 52.9942 23.0369 52.9352 23.1349Z" fill="#35211A"/>
<path d="M38.9912 38.152C38.9912 38.1324 39.2074 38.0736 39.4826 38.0148C39.7775 37.956 40.3082 38.0736 40.8586 38.3481C41.35 38.5834 42.0576 39.0147 42.4115 39.2696C42.8243 39.5637 43.296 40.1911 43.5909 40.8381C44.0233 41.7596 44.1019 42.191 44.1019 43.8771C44.1019 44.9555 43.9054 47.269 43.6695 49.0336C43.414 50.7786 43.2174 52.5627 43.2174 52.9941C43.2174 53.4254 43.355 54.1509 43.5515 54.6214C43.7285 55.0724 43.984 55.5821 44.1216 55.739C44.2395 55.8958 44.9079 56.1703 45.5762 56.3272C46.3231 56.5036 46.8735 56.7585 46.9718 56.9742C47.0701 57.1506 47.1094 57.4251 47.0504 57.5624C47.0111 57.68 46.7359 57.9545 46.4607 58.1506C46.1855 58.327 45.7531 58.4839 45.4779 58.4839C45.2027 58.4839 44.7309 58.7388 44.3968 59.0721L43.8071 59.6603C43.8071 66.2676 43.7088 68.9929 43.6105 69.9536C43.4926 70.9339 43.355 72.0319 43.2764 72.4044C43.1977 72.8358 42.8439 73.3848 42.3525 73.8945C41.6645 74.5808 41.3697 74.718 40.2296 74.914C39.1878 75.0905 38.5981 75.0905 37.5956 74.914C36.8683 74.7768 36.259 74.5415 36.2196 74.4239C36.1803 74.2866 36.2393 74.0318 36.3376 73.8749C36.4752 73.6593 36.8486 73.6004 37.6742 73.62C38.3622 73.6593 39.0109 73.5612 39.3647 73.3848C39.7775 73.1887 40.1706 72.6593 40.6424 71.7182C41.0158 70.9732 41.409 69.9536 41.5269 69.4635C41.6252 68.9733 41.7038 67.9146 41.6842 67.1107C41.6645 66.3068 41.6449 64.503 41.6252 63.0914C41.6055 61.6993 41.7038 60.17 41.8218 59.7191C41.9987 59.0525 42.2542 58.7192 43.0601 58.1506L44.0626 57.4055C42.8832 56.935 42.4508 56.6213 42.3328 56.4056C42.2346 56.2095 42.1363 55.3273 42.097 54.4646C42.0773 53.6019 41.9987 51.3472 41.9397 49.4649C41.8414 46.524 41.8611 45.9162 42.1559 45.1515C42.3918 44.5045 42.4508 43.9751 42.3722 43.1909C42.2935 42.6027 42.0576 41.74 41.8414 41.2891C41.6252 40.8185 41.2124 40.3284 40.9176 40.1715C40.6031 40.0343 39.9937 39.8578 39.5416 39.7794C39.0698 39.7206 38.6374 39.5441 38.5784 39.4265C38.4998 39.2892 38.5784 38.9559 38.716 38.6814C38.8536 38.4069 38.9716 38.1716 38.9912 38.152Z" fill="#35211A"/>
<path d="M25.5395 39.0859C25.9001 38.8721 26.691 38.6118 27.2943 38.497C27.8975 38.3822 28.4064 38.3306 28.4308 38.4053C28.4345 38.4623 28.3374 38.7927 28.1999 39.1067C28.0636 39.4396 27.7716 39.8016 27.5618 39.9103C27.3533 40.0381 26.3031 40.5038 26 41C25.8135 41.3052 26 41 25.5 42C25 43 25.4818 43.6789 25.7277 46.2951C25.9237 48.4378 26.2317 51.0705 26.3108 52C26.3911 52.9485 26.7124 54.6694 26.6481 55.5127C26.5838 56.3559 26.4483 57.3182 26.3108 57.6322C26.1929 57.9449 25.9277 58.4195 25.7277 58.6802C25.3793 59.084 25.367 59.1992 25.6179 59.7362C25.82 60.1239 25.9846 61.4675 26.1241 63.6519C26.2406 65.4754 26.275 67.2469 26.1964 67.5571C26.1177 67.8673 25.9493 68.6219 25.8091 69.203C25.669 69.7841 25.5923 70.7426 25.6287 71.3125C25.67 71.9583 25.873 72.6701 26.14 73.1489C26.3837 73.572 26.7046 73.9711 26.8468 74.0383C26.9706 74.1257 27.592 74.2958 28.1915 74.4292C28.7921 74.5815 29.4492 74.6921 29.6453 74.6796C29.8219 74.6683 29.9849 74.7533 29.9909 74.8482C29.9982 74.9622 29.851 75.1242 29.6805 75.2305C29.4916 75.357 28.6321 75.4691 27.7678 75.5052C26.3542 75.5765 26.1151 75.5345 25.2977 75.0718C24.8063 74.779 24.3076 74.3722 24.1961 74.1695C24.0639 73.9491 23.93 72.47 23.8675 70.5667C23.7927 68.7787 23.8135 66.9464 23.8812 66.4653C23.9686 65.9829 24.1765 64.9207 24.3609 64.1078C24.5245 63.2773 24.6551 62.239 24.6272 61.8021C24.5969 61.3273 24.4023 60.7485 24.1439 60.4026C23.9062 60.0745 23.2819 60.0964 23 60C22.7193 59.9226 21.6347 59.7584 21.5 59.5C21.2599 59.1339 21.2804 58.762 21.5 58.5C21.6472 58.338 22.9195 57.887 23.1917 57.8314C23.4627 57.7569 23.9165 57.4609 24.1926 57.1572C24.1926 57.1572 24.5744 56.2322 24.5 55.5C24.4256 54.7678 23.9332 48.7819 23.7373 46.6393C23.3975 43.1707 23.3831 42.6376 23.6571 41.6856C23.8169 41.1032 24.1631 40.3563 24.4183 40.0349C24.6736 39.7134 25.1777 39.2807 25.5395 39.0859Z" fill="#35211A"/>
</svg>
